<?xml version="1.0" encoding="UTF-8" standalone="no"?>
<!-- Created with Inkscape (http://www.inkscape.org/) -->

<svg
   width="150"
   height="150"
   viewBox="0 0 150 150"
   version="1.1"
   id="svg5"
   xml:space="preserve"
   xmlns="http://www.w3.org/2000/svg"
   xmlns:svg="http://www.w3.org/2000/svg"
   xmlns:rdf="http://www.w3.org/1999/02/22-rdf-syntax-ns#"
   xmlns:cc="http://creativecommons.org/ns#"
   xmlns:dc="http://purl.org/dc/elements/1.1/"><title
     id="title1">Open Invention Network Community Member Logo</title><defs
     id="defs2" /><rect
     style="fill:#ffffff;fill-opacity:1;stroke-width:6.02504"
     id="background"
     width="150"
     height="150"
     x="0"
     y="0" /><g
     id="foreground"
     transform="matrix(0.10063965,0,0,0.10063965,14.616248,14.6226)"><path
       id="community-member"
       d="m 197.12967,285.48453 a 1.51,1.51 0 0 0 -1.62995,1.51522 v 27.00059 c 0,0.5 0.25008,0.74936 0.75008,0.74936 h 1.61991 c 0.42,0 0.63032,-0.20623 0.63032,-0.61956 V 292.2302 a 0.27,0.27 0 0 1 0.47973,-0.16995 l 17.99036,22.43991 a 1.56,1.56 0 0 0 2.78016,-0.98027 v -27.01996 c 0,-0.5 -0.25007,-0.75007 -0.75007,-0.75007 h -1.61991 c -0.42,0 -0.63032,0.21032 -0.63032,0.63032 v 22.38971 a 0.25,0.25 0 0 1 -0.45034,0.14987 l -18.09936,-22.8594 a 1.51,1.51 0 0 0 -1.07061,-0.57583 z m 63.54424,0.0316 c -0.48508,-0.0221 -1.03949,0.14957 -1.66365,0.51415 -0.26,0.15333 -0.31059,0.35956 -0.15059,0.61956 l 10.35048,16.81004 c 0.19333,0.30666 0.2897,0.64034 0.2897,1.00034 v 9.54016 c 0,0.5 0.25008,0.74936 0.75008,0.74936 h 1.61991 c 0.42,0 0.63032,-0.20623 0.63032,-0.61956 v -9.56025 c 0,-0.34667 0.0896,-0.66348 0.26962,-0.95014 l 10.66027,-17.19941 c 0.16667,-0.26667 0.0999,-0.45338 -0.20007,-0.56005 -2.04,-0.72 -3.04016,0.02 -4.06016,1.83001 -2.44,4.33334 -5.03305,8.56297 -7.77972,12.68963 -0.23333,0.35334 -0.46654,0.35334 -0.69988,0 -2.92666,-4.55333 -5.75701,-9.15976 -8.49035,-13.81976 -0.39375,-0.6675 -0.90229,-1.01573 -1.52596,-1.04408 z m 191.39641,0.0251 c -2.63259,-0.0158 -5.24904,0.19997 -7.38029,0.21872 -0.46,0.007 -0.68985,0.23988 -0.68985,0.69988 v 27.66032 c 0,0.42 0.20624,0.6296 0.61957,0.6296 h 1.75042 c 0.42,0 0.6296,-0.2096 0.6296,-0.6296 v -9.37022 c 0,-0.33333 0.1672,-0.49981 0.50053,-0.49981 h 7.21967 c 0.34,0 0.60356,0.14359 0.79023,0.43025 l 6.15981,9.61977 c 0.19333,0.3 0.46701,0.44961 0.82035,0.44961 h 2.17995 c 0.57334,0 0.70609,-0.24333 0.39942,-0.72999 l -6.25948,-9.85999 c -0.18,-0.28667 -0.11664,-0.49628 0.19003,-0.62961 4.42667,-1.98 6.32007,-5.29701 5.68007,-9.95034 -0.94875,-6.8475 -6.81833,-8.00384 -12.61003,-8.03859 z m -376.930614,0.0387 a 13.55,14.69 0 0 0 -13.54942,14.69031 13.55,14.69 0 0 0 13.54942,14.68959 13.55,14.69 0 0 0 13.550138,-14.68959 13.55,14.69 0 0 0 -13.550138,-14.69031 z m 45.471414,0.0143 c -0.75417,-0.0234 -1.33106,0.30854 -1.73106,0.99604 -3.48,5.98 -6.89675,12.01269 -10.25009,18.09935 a 0.46,0.46 0 0 1 -0.80027,0 L 97.340104,286.27979 c -0.2,-0.35334 -0.503321,-0.52993 -0.909987,-0.52993 h -1.809936 c -0.413334,0 -0.620283,0.21032 -0.620283,0.63032 v 27.62016 c 0,0.5 0.250076,0.74936 0.750076,0.74936 h 1.619907 c 0.42,0 0.630322,-0.2096 0.630322,-0.6296 v -21.60019 a 0.28,0.28 0 0 1 0.519891,-0.13984 l 9.560246,16.63004 a 1.32,1.32 0 0 0 2.28967,0 l 9.54017,-16.63004 a 0.32,0.32 0 0 1 0.59016,0.15991 v 21.70991 c 0,0.33334 0.16648,0.49981 0.49982,0.49981 h 1.99996 c 0.33333,0 0.49981,-0.16647 0.49981,-0.49981 v -27.69976 c 0,-0.24667 -0.11323,-0.42326 -0.3399,-0.52993 -0.58,-0.27 -1.09641,-0.41189 -1.54891,-0.42595 z m 202.24097,0.006 c -0.8963,0.0341 -1.51949,0.54948 -2.15199,1.67011 -3.23333,5.74 -6.55372,11.54019 -9.96039,17.40019 a 0.36,0.37 45.3 0 1 -0.6296,0 l -10.55987,-18.46005 c -0.17334,-0.30667 -0.4369,-0.46037 -0.79024,-0.46037 h -1.89025 c -0.41333,0 -0.61956,0.21032 -0.61956,0.63032 v 27.86971 c 0,0.33334 0.16648,0.49981 0.49981,0.49981 h 1.99997 c 0.33333,0 0.49981,-0.16647 0.49981,-0.49981 v -21.85978 a 0.23,0.22 30.1 0 1 0.42021,-0.11043 l 9.62981,16.65012 a 1.36,1.36 0 0 0 2.3499,0 l 9.54017,-16.53969 c 0.37333,-0.64666 0.56005,-0.59679 0.56005,0.14987 v 21.59016 c 0,0.41333 0.21032,0.61956 0.63032,0.61956 h 1.73966 c 0.42,0 0.63032,-0.2096 0.63032,-0.6296 v -27.63021 c 0,-0.33333 -0.16045,-0.54968 -0.48045,-0.64968 -0.54687,-0.17187 -1.01027,-0.25573 -1.41768,-0.24023 z m -275.059338,0.0215 c -11.849487,-0.0232 -17.767261,14.06435 -10.782886,23.59872 5.6,7.63 16.700222,7.76967 21.790222,-0.45033 0.24,-0.39333 0.156402,-0.69666 -0.250265,-0.90999 l -1.459996,-0.76011 c -0.34,-0.18 -0.619712,-0.11327 -0.839712,0.20006 -7.21,10.18 -19.819857,2.92998 -19.139857,-7.86002 0.61,-9.72 13.079613,-16.20972 18.529613,-6.31972 0.18,0.32667 0.433449,0.3934 0.760115,0.20007 l 1.58979,-0.95015 c 0.393333,-0.22666 0.470186,-0.53336 0.230186,-0.92002 -1.98,-3.22667 -4.639781,-5.10321 -7.979781,-5.62988 -0.840625,-0.1325 -1.657463,-0.19709 -2.447429,-0.19863 z m 310.211098,0.01 c -0.31281,0.008 -0.63881,0.066 -0.97381,0.16851 -0.35333,0.10667 -0.52993,0.34663 -0.52993,0.71996 v 27.72988 c 0,0.33334 0.16648,0.49981 0.49982,0.49981 h 2.01 c 0.34,0 0.50985,-0.16985 0.50985,-0.50985 l -0.0495,-21.98957 a 0.22,0.22 0 0 1 0.40946,-0.11043 l 9.77035,16.75983 a 1.35,1.35 0 0 0 2.32983,-0.01 l 9.41038,-16.3095 a 0.33,0.33 0 0 1 0.60952,0.16995 v 21.37001 c 0,0.42 0.21033,0.6296 0.63033,0.6296 h 1.7497 c 0.41333,0 0.62028,-0.2096 0.62028,-0.6296 v -27.74996 c 0,-0.41333 -0.21032,-0.62028 -0.63032,-0.62028 h -1.81998 c -0.42,0 -0.73344,0.17997 -0.9401,0.53997 L 371.3202,304.3299 c -0.38,0.66666 -0.76018,0.66666 -1.14018,0 -3.14666,-5.61334 -6.42995,-11.38655 -9.84995,-17.31989 -0.57,-0.9825 -1.3878,-1.40262 -2.32624,-1.37824 z m 43.45854,0.0208 c -2.35167,0.0117 -5.29911,0.0779 -8.84244,0.19792 -0.41333,0.0133 -0.62028,0.22631 -0.62028,0.63964 v 27.51045 c 0,0.4 0.2002,0.60961 0.6002,0.62961 7.01333,0.3 11.70674,0.30675 14.08007,0.0201 8.05,-0.95 9.69019,-10.46013 2.97019,-14.46013 -0.34667,-0.20666 -0.37028,-0.44325 -0.0703,-0.70992 4.48,-3.94 3.84029,-13.14001 -2.84971,-13.70001 -1.16,-0.0967 -2.91608,-0.1393 -5.26775,-0.12764 z m -174.20274,0.0875 c -0.28254,0 -0.50985,0.22731 -0.50985,0.50985 v 27.98014 c 0,0.28254 0.22731,0.50986 0.50985,0.50986 h 1.9806 c 0.28254,0 0.50986,-0.22732 0.50986,-0.50986 v -27.98014 c 0,-0.28254 -0.22732,-0.50985 -0.50986,-0.50985 z m -97.12988,0.01 c -0.42,0 -0.6296,0.20695 -0.6296,0.62028 v 27.87975 c 0,0.33334 0.16648,0.49981 0.49981,0.49981 h 1.99997 c 0.33333,0 0.49981,-0.16647 0.49981,-0.49981 v -21.85978 a 0.23,0.23 0 0 1 0.43025,-0.11043 l 9.77968,16.87027 a 1.21,1.21 0 0 0 2.09032,-0.01 l 9.64988,-16.76988 a 0.3,0.29 60.1 0 1 0.55001,0.14988 v 21.72998 c 0,0.33334 0.16648,0.49981 0.49981,0.49981 h 1.99997 c 0.33333,0 0.50052,-0.16647 0.50052,-0.49981 v -27.87975 c 0,-0.41333 -0.21032,-0.62028 -0.63032,-0.62028 h -1.86013 c -0.42667,0 -0.74613,0.18334 -0.95947,0.55 l -10.6201,18.64005 a 0.22,0.22 0 0 1 -0.38006,0 l -10.73986,-18.71964 c -0.17334,-0.31334 -0.44028,-0.47041 -0.80028,-0.47041 z m 35.11018,0 c -0.32,0 -0.48985,0.16045 -0.50985,0.48045 -0.56667,9.02 -0.48042,15.35601 0.25958,19.00934 1.6,7.91 9.17996,11.60033 16.60996,8.85033 9.75,-3.61 7.44026,-19.90963 7.37026,-27.84963 0,-0.32667 -0.16311,-0.49049 -0.48977,-0.49049 h -1.77982 c -0.45334,0 -0.68052,0.22646 -0.68052,0.6798 0.01,5.05 1.06999,17.7401 -1.83001,21.7601 -4.5,6.25 -14.73984,4.77016 -16.02984,-2.69984 -0.84667,-4.89334 -0.99966,-11.29343 -0.45966,-19.20009 0.0267,-0.36 -0.14052,-0.53997 -0.50052,-0.53997 z m 69.22,0 a 0.47,0.47 0 0 0 -0.46969,0.48045 l 0.0394,1.80993 a 0.47,0.47 0 0 0 0.47041,0.45966 h 9.27987 a 0.47,0.47 0 0 1 0.46969,0.47041 v 25.3097 a 0.47,0.47 0 0 0 0.47041,0.46969 h 2.0602 a 0.47,0.47 0 0 0 0.4697,-0.46969 v -25.3097 a 0.47,0.47 0 0 1 0.46969,-0.47041 h 9.30998 a 0.47,0.47 0 0 0 0.47041,-0.4697 v -1.80993 a 0.47,0.47 0 0 0 -0.47041,-0.47041 z m 97.73009,0 a 0.44,0.44 0 0 0 -0.4403,0.44029 v 28.11998 a 0.44,0.44 0 0 0 0.4403,0.43957 H 350.81 a 0.44,0.44 0 0 0 0.4403,-0.43957 v -1.87017 a 0.44,0.44 0 0 0 -0.4403,-0.4403 h -15.61966 a 0.44,0.44 0 0 1 -0.44029,-0.43957 v -9.87003 a 0.44,0.44 0 0 1 0.44029,-0.4403 h 13.11989 a 0.44,0.44 0 0 0 0.43957,-0.43957 v -1.61991 a 0.44,0.44 0 0 0 -0.43957,-0.44029 h -13.11989 a 0.44,0.44 0 0 1 -0.44029,-0.4403 v -9.3695 a 0.44,0.44 0 0 1 0.44029,-0.44029 h 15.3694 a 0.44,0.44 0 0 0 0.44029,-0.43958 v -1.87017 a 0.44,0.44 0 0 0 -0.44029,-0.44029 z m 87.2498,0 a 0.44,0.44 0 0 0 -0.43957,0.44029 v 28.11998 a 0.44,0.44 0 0 0 0.43957,0.43957 h 18.61997 a 0.44,0.44 0 0 0 0.44029,-0.43957 v -1.87017 a 0.44,0.44 0 0 0 -0.44029,-0.4403 h -15.61966 a 0.44,0.44 0 0 1 -0.44029,-0.43957 v -9.89011 a 0.44,0.44 0 0 1 0.44029,-0.4403 l 13.37015,0.0301 a 0.44,0.44 0 0 0 0.43957,-0.43957 v -1.62995 a 0.44,0.44 0 0 0 -0.43957,-0.44029 h -13.37015 a 0.44,0.44 0 0 1 -0.44029,-0.4403 v -9.3695 a 0.44,0.44 0 0 1 0.44029,-0.44029 h 15.37011 a 0.44,0.44 0 0 0 0.43958,-0.43958 v -1.87017 a 0.44,0.44 0 0 0 -0.43958,-0.44029 z m 32.47559,2.62383 c 2.61259,-0.0478 5.32846,0.10608 6.68471,1.00608 3.6,2.37 4.04015,7.65008 0.95015,10.43008 -2.7,2.43 -8.43011,1.79002 -12.08011,1.65002 -0.31333,-0.007 -0.47041,-0.1664 -0.47041,-0.47973 v -11.7402 c 0,-0.43334 0.2137,-0.65981 0.64037,-0.67981 1.1775,-0.0563 2.70773,-0.15779 4.27529,-0.18644 z m -52.43221,0.0466 c 2.15365,-0.0219 4.28296,0.10434 6.38712,0.37934 4.24,0.56 4.58932,6.27047 2.19932,8.52047 -2.45,2.32 -9.22991,1.4598 -12.57991,1.4098 -0.32667,-0.007 -0.48978,-0.17315 -0.48978,-0.49981 v -8.97009 c 0,-0.39333 0.19346,-0.60702 0.58013,-0.64036 1.31,-0.12 2.61093,-0.18622 3.90312,-0.19935 z m -324.281127,0.0803 a 10.38,11.75 0.4 0 1 10.297417,11.82196 10.38,11.75 0.4 0 1 -10.46163,11.67709 10.38,11.75 0.4 0 1 -10.297417,-11.82195 10.38,11.75 0.4 0 1 10.46163,-11.6771 z M 402.2978,301.32147 c 2.565,0.0188 5.04247,0.25347 6.29247,1.06847 2.99,1.95 2.46987,6.5898 0.14987,8.3498 -2.74,2.07 -9.61036,1.2806 -13.24036,1.2506 -0.33333,-0.007 -0.49981,-0.17723 -0.49981,-0.51057 V 302.04 c 0,-0.32 0.15974,-0.48311 0.47974,-0.48978 1.6,-0.05 4.25309,-0.2475 6.81809,-0.22875 z"
       style="fill:#888888;fill-opacity:1"
       transform="matrix(2.7236808,0,0,2.7236808,-79.013998,120.0543)" /><path
       id="signature-line"
       transform="matrix(2.7236808,0,0,2.7236808,-79.013998,120.0543)"
       d="m 30.85,265.29001 h 436.9 c 0.24376,0 0.44,0.19624 0.44,0.44 v 0.16 c 0,0.24376 -0.19624,0.44 -0.44,0.44 H 30.85 c -0.24376,0 -0.44,-0.19624 -0.44,-0.44 v -0.16 c 0,-0.24376 0.19624,-0.44 0.44,-0.44 z"
       style="fill:#c4c4c4;fill-opacity:1" /><path
       id="network"
       d="m 319.14401,168.93585 a 1.21,1.21 0 0 0 -0.4238,0.0445 c -4.29333,1.24667 -8.72388,2.03328 -13.29055,2.35995 -0.8,0.06 -1.37953,0.59976 -1.15953,1.39976 0.1,0.34666 0.32646,0.51314 0.6798,0.49981 2.23,-0.05 6.10014,-0.09 5.15014,3.48004 -5.29333,19.72 -10.67023,39.4332 -16.13023,59.13987 -0.12,0.42666 0.0438,0.64036 0.49049,0.64036 h 6.43947 c 0.44,0 0.7238,-0.2137 0.85047,-0.64036 l 4.71989,-16.17971 c 0.0933,-0.31334 0.26993,-0.56678 0.52993,-0.76012 l 5.10998,-3.78982 c 0.36667,-0.27333 0.64301,-0.19648 0.82968,0.23019 2.5,5.72666 5.01354,11.43989 7.5402,17.13989 5.05,11.38 15.79006,0.4197 19.01006,-5.1903 0.20667,-0.35334 0.13994,-0.64654 -0.20006,-0.87987 l -0.86983,-0.58013 c -0.31334,-0.21333 -0.5769,-0.16009 -0.79024,0.15991 -1.61,2.42 -6.74954,8.71996 -9.37954,4.18996 -1.84666,-3.18666 -4.78688,-9.90285 -8.82021,-20.14952 -0.12,-0.3 -0.0533,-0.55345 0.20007,-0.76011 6.71,-5.26 14.23944,-12.33991 22.86944,-14.03991 0.66,-0.12667 0.89056,-0.58707 0.69056,-1.3804 -0.0667,-0.24667 -0.23049,-0.37002 -0.49049,-0.37002 h -18.38978 c -0.37333,0 -0.56005,0.18671 -0.56005,0.56005 v 0.52993 c 0,0.34 0.16648,0.5402 0.49982,0.6002 l 2.85043,0.52993 a 1.37,1.37 0 0 1 0.9401,2.03008 c -0.43333,0.74667 -1.05009,1.46992 -1.85009,2.16992 -5.70667,4.98 -11.64033,9.66665 -17.80033,14.05999 -0.51333,0.36 -0.68318,0.24002 -0.50985,-0.35998 l 12.33969,-43.15019 a 1.21,1.21 0 0 0 -1.07564,-1.53386 z m -169.69367,13.10196 c -0.35667,0.0483 -0.66336,0.29552 -0.92003,0.74219 -3.66667,6.42666 -8.69037,10.49656 -15.07037,12.20989 -0.81333,0.21334 -0.98993,0.68651 -0.52993,1.41984 0.14,0.22667 0.34358,0.34062 0.61025,0.34062 h 5.45992 c 0.37333,0 0.51283,0.18334 0.4195,0.55001 -4.48,17.06 -7.29277,28.11976 -8.43944,33.17976 -0.62,2.72667 -0.0437,4.71645 1.72962,5.96978 5.62,3.97 13.20004,-4.45964 16.08004,-8.30964 0.71,-0.95 0.56023,-1.79008 -0.66977,-2.03008 -0.34,-0.0667 -0.60356,0.0432 -0.79023,0.32986 -1.53333,2.32666 -3.50022,4.18032 -5.90022,5.56032 a 1.34,1.34 0 0 1 -1.97988,-0.87055 c -0.28667,-1.26 -0.26644,-2.55279 0.0602,-3.87946 2.43333,-9.96 4.9435,-19.91369 7.53017,-29.86036 0.0867,-0.32666 0.29964,-0.50326 0.63964,-0.52993 3.66,-0.28 15.24006,-1.55023 15.54006,4.13977 0.64667,11.90666 1.14008,23.8535 1.48008,35.84017 a 1.09,1.09 0 0 0 2.01,0.56005 l 19.82038,-30.6298 a 0.33,0.33 0 0 1 0.59949,0.13983 l 3.29001,29.83024 a 1.14,1.14 0 0 0 1.98992,0.62961 c 6.37333,-7.21334 12.38722,-14.67638 18.04056,-22.38971 2.98,-4.05334 4.97652,-7.2335 5.98985,-9.54017 1.52,-3.47 2.97015,-11.7303 -2.51985,-12.8603 -5.41,-1.11 -5.75045,6.07021 -1.94045,8.82021 0.25333,0.18667 0.41981,0.43675 0.49981,0.75008 1.35,5.49 -11.14001,19.95024 -14.98001,24.17024 a 0.23,0.23 0 0 1 -0.39942,-0.13051 l -3.56035,-32.63979 a 1.35,1.35 0 0 0 -2.49978,-0.56005 l -18.4701,30.19022 c -0.32666,0.54 -0.50326,0.49687 -0.52993,-0.1298 l -1.48007,-29.03068 c -0.0133,-0.34667 -0.1933,-0.51989 -0.53997,-0.51989 h -21.07026 c -0.38,0 -0.52287,-0.18334 -0.42954,-0.55001 l 2.40942,-9.72948 c 0.0733,-0.3 -0.0129,-0.54333 -0.25958,-0.73 -0.45667,-0.35 -0.86311,-0.50082 -1.21977,-0.45248 z m -93.526502,10.36841 a 0.84,0.84 0 0 0 -0.294007,0.0237 c -4.62,1.18 -9.266184,2.00034 -13.939517,2.46034 -0.686667,0.0667 -1.023714,0.48996 -1.01038,1.26996 0.0067,0.32667 0.169772,0.50327 0.489772,0.52993 2.28,0.21 6.700357,0.22021 5.570357,4.07021 -3.42,11.66666 -6.819892,23.36271 -10.199892,35.08938 -0.126666,0.43333 0.03307,0.6504 0.479734,0.6504 h 7.230421 c 0.36,0 0.586468,-0.17323 0.679802,-0.51989 3.65,-14.08 8.799951,-25.77997 20.259951,-35.23997 4.61,-3.81 9.210186,-4.45 7.170186,3.47 -2.206667,8.58667 -4.443865,17.15313 -6.710531,25.6998 -1.2,4.54 1.15009,8.36009 6.05009,7.33009 4.95,-1.04 9.240035,-6.28997 11.880035,-10.76997 0.59,-0.99 0.550002,-1.9298 -0.729998,-2.1398 -0.32,-0.0533 -0.570076,0.0531 -0.750076,0.31982 -1.4,2.12 -3.839853,6.17006 -6.719853,7.32006 -0.366667,0.14666 -0.693596,0.0833 -0.980263,-0.19003 -0.953333,-0.93333 -1.193292,-2.19986 -0.719958,-3.79986 1.82,-6.11334 4.00058,-14.16687 6.54058,-24.16021 0.93,-3.69 1.839421,-6.46003 -0.330579,-9.87003 -0.18,-0.28 -0.426703,-0.4802 -0.740037,-0.6002 -10.45,-4.03 -21.629794,10.46013 -27.159794,17.75013 -0.386666,0.50667 -0.493155,0.45342 -0.319822,-0.15991 l 4.980192,-17.46043 a 0.84,0.84 0 0 0 -0.726413,-1.07348 z m 59.443202,0.0452 c -11.64324,0.37867 -22.092004,12.73946 -25.167004,22.34884 -5.13,16.04 5.24978,28.44992 21.859784,20.06992 3.66,-1.84667 6.88666,-4.36695 9.68,-7.56028 0.26,-0.30667 0.25663,-0.60662 -0.01,-0.89995 l -0.63965,-0.71996 c -0.27333,-0.3 -0.55979,-0.31012 -0.85979,-0.0301 -9.63,9.09 -25.510463,12.39005 -22.400463,-7.65995 a 1.3,1.3 0 0 1 1.160252,-1.10002 c 8.240001,-0.81 22.999971,-5.12995 26.109971,-14.04995 2.23,-6.41 -1.60033,-9.67961 -7.39033,-10.30961 -0.785,-0.0856 -1.56652,-0.11416 -2.34273,-0.0889 z m 129.55956,0.0387 a 18.46,25.78 44.9 0 0 -19.5529,9.38958 18.46,25.78 44.9 0 0 -5.12146,31.29095 18.46,25.78 44.9 0 0 31.27375,-5.23046 18.46,25.78 44.9 0 0 5.12145,-31.29095 18.46,25.78 44.9 0 0 -11.72084,-4.15912 z m 50.32755,0.0237 c -0.65872,-0.0286 -1.44616,0.12724 -2.37429,0.5163 -5.87,2.45 -10.28978,10.26008 -14.18978,16.64008 -0.53333,0.88 -0.66006,0.82339 -0.38006,-0.16995 l 4.28964,-14.92049 a 1.48,1.48 0 0 0 -1.76978,-1.84006 c -1.33,0.32 -13.72956,2.18014 -13.94956,3.14014 -0.1,0.40667 0.0564,0.65 0.4697,0.73 l 3.92033,0.71996 c 0.40667,0.0733 0.68638,0.29714 0.83971,0.67048 0.76667,1.82666 0.81317,3.99641 0.13983,6.50974 -2.79333,10.44 -5.64657,20.88301 -8.5599,31.32968 -0.12,0.44 0.0498,0.66044 0.50985,0.66044 h 6.51046 c 0.4,0 0.64936,-0.19346 0.74936,-0.58013 3.19,-12.91 8.08021,-25.40032 17.22021,-35.33032 a 0.64,0.64 0 0 1 1.01038,0.0803 c 6.29843,9.61532 11.93154,-7.88009 5.5639,-8.15618 z m -50.71477,2.6518 c 4.57171,0.11391 8.0705,3.7419 7.8005,9.3444 -0.5,10.27 -5.80954,25.72977 -16.31954,29.70977 -7.62,2.89 -11.99043,-3.56948 -11.25043,-10.45948 1,-9.43 5.67986,-23.03033 14.93986,-27.48033 1.6625,-0.8 3.3057,-1.15233 4.82961,-1.11436 z m -130.27451,0.033 c 0.23465,0.0122 0.46927,0.0392 0.7049,0.0817 2.99,0.54 3.38021,3.27991 2.61021,5.81991 -2.49,8.19 -10.72021,12.10959 -18.500215,13.40959 a 0.34,0.33 3.2 0 1 -0.380058,-0.4195 c 1.559683,-5.47344 8.291033,-19.27117 15.565163,-18.89174 z m 238.08544,25.35129 a 8.37,8.37 0 0 0 -8.37059,8.36988 8.37,8.37 0 0 0 8.37059,8.37059 8.37,8.37 0 0 0 8.36988,-8.37059 8.37,8.37 0 0 0 -8.36988,-8.36988 z m -0.2854,1.52597 a 6.81,6.57 87.6 0 1 6.84965,6.5291 6.81,6.57 87.6 0 1 -6.27956,7.07912 6.81,6.57 87.6 0 1 -6.84893,-6.52911 6.81,6.57 87.6 0 1 6.27884,-7.07911 z m 0.1133,1.81854 c -0.92279,-0.006 -1.84388,0.0809 -2.57794,0.14557 -0.36,0.0333 -0.54671,0.22679 -0.56005,0.58012 -0.04,1.16 -0.81038,9.73992 1.17962,9.10992 0.34666,-0.11334 0.51989,-0.34992 0.51989,-0.70992 l 0.0301,-2.97019 a 0.62,0.62 0 0 1 1.10002,-0.3901 c 0.97,1.22 2.47049,4.42017 3.96049,4.06017 0.41333,-0.1 0.51308,-0.33322 0.29974,-0.69988 l -1.79989,-3.09998 c -0.20667,-0.36 -0.10692,-0.57973 0.29974,-0.65973 0.83334,-0.18 1.34698,-0.68689 1.54031,-1.52023 0.73313,-3.19844 -1.63379,-3.82926 -3.99204,-3.84575 z m -0.54786,1.58548 2.10968,0.0904 a 1.01,1.01 0 0 1 0.70992,1.68946 c -1.2,1.32 -4.81012,1.77044 -3.50012,-1.34956 0.12667,-0.3 0.35386,-0.44359 0.68052,-0.43026 z"
       style="fill:#e97824;fill-opacity:1"
       transform="matrix(2.7236808,0,0,2.7236808,-79.013998,120.0543)" /><path
       id="invention"
       d="m -5.5800141,-5.0000776 c -0.23268,0 -0.4201992,0.1875519 -0.4201992,0.4202319 l 2.115e-4,9.1601247 c 0,0.23268 0.1875506,0.4194821 0.4202306,0.4194821 L 5.5803214,4.9996445 c 0.23268,0 0.4194834,-0.1868335 0.4194834,-0.4195135 l 5.056e-4,-9.160126 c 0,-0.23268 -0.1875518,-0.4201992 -0.4202318,-0.4201992 z M 238.31205,-5.42575 227.15203,-5.386911 c -0.23268,8.122e-4 -0.41886,0.1889837 -0.41805,0.4216623 l 0.0318,9.1600696 c 8.1e-4,0.2326786 0.18898,0.4188576 0.42166,0.4180454 l 11.15931,-0.038838 c 0.23268,-8.122e-4 0.41957,-0.1882679 0.41876,-0.4209464 l -0.0318,-9.1600697 c -8.1e-4,-0.2326785 -0.18899,-0.4195747 -0.42167,-0.4187625 z m -36.31515,3.5735442 c -0.33334,5.818e-4 -0.49952,0.1673507 -0.49894,0.5006835 l 0.0205,11.7495063 c 5.9e-4,0.333333 -0.1656,0.500819 -0.49893,0.5014 l -5.75034,0.01004 c -0.5,8.72e-4 -0.74964,0.251385 -0.74877,0.751384 l 0.0122,6.999508 c 5.8e-4,0.333332 0.16807,0.500236 0.5014,0.499654 l 5.98985,-0.01045 c 0.34666,-6.05e-4 0.52019,0.172316 0.52079,0.518982 -0.0134,7.580035 0.01,15.156283 0.0698,22.729523 0.0385,4.899941 0.78625,9.328846 5.48918,11.000641 4.16925,1.479392 9.06253,1.700693 14.68073,0.664219 0.37322,-0.06732 0.55954,-0.290739 0.55888,-0.670739 l -0.014,-8.009886 c -7.1e-4,-0.406666 -0.20051,-0.582914 -0.60041,-0.528883 -3.21928,0.41562 -7.97897,0.743386 -8.10558,-3.046399 -0.11915,-3.33313 -0.13545,-10.736166 -0.0488,-22.209668 0.006,-0.313345 0.16558,-0.469984 0.47892,-0.470531 l 7.60043,-0.01327 c 0.42,-7.33e-4 0.62923,-0.211421 0.6285,-0.63142 l -0.0122,-6.990186 c -7.3e-4,-0.419999 -0.2107,-0.629238 -0.6307,-0.628505 l -7.61979,0.0133 c -0.33334,5.82e-4 -0.50082,-0.166322 -0.5014,-0.499655 l -0.0205,-11.7495059 c -5.8e-4,-0.3333328 -0.16735,-0.4995205 -0.50069,-0.4989388 z M 175.11195,9.792236 c -4.70139,0.1014348 -9.03551,2.275964 -13.0031,6.524562 -0.21959,0.233717 -0.32953,0.190782 -0.33009,-0.129217 l -0.008,-4.600127 c -7.2e-4,-0.413333 -0.2114,-0.619198 -0.6314,-0.618465 l -10.36983,0.0181 a 0.5,0.5 0 0 0 -0.49894,0.500684 l 0.0735,42.119667 c 7.3e-4,0.419999 0.20733,0.629961 0.62066,0.62924 l 11.1199,-0.01941 c 0.34667,-6.05e-4 0.51694,-0.174126 0.50966,-0.520781 -0.026,-7.253299 -0.0326,-14.503363 -0.0186,-21.750065 0.0181,-6.810042 1.28766,-13.062271 9.40877,-12.436444 4.58062,0.352006 6.76635,3.607898 6.78393,7.947874 0.0419,8.726607 0.0673,17.466981 0.0759,26.220313 5.9e-4,0.339999 0.17074,0.509554 0.51074,0.508961 l 10.95999,-0.01913 c 0.32,-5.59e-4 0.47945,-0.160571 0.4789,-0.48057 0.0943,-14.720187 0.0736,-24.623984 -0.0619,-29.710422 -0.12801,-4.589783 -2.24743,-10.025713 -6.76111,-12.127839 -3.085,-1.432118 -6.03811,-2.1177929 -8.85895,-2.056932 z M 38.930356,10.082983 c -4.864909,0.05599 -9.208716,2.140438 -13.031545,6.252117 -0.246213,0.26043 -0.369653,0.210056 -0.370281,-0.149943 l -0.0076,-4.359902 C 25.520209,11.411922 25.309527,11.206057 24.889528,11.20679 L 14.419326,11.2351 a 0.4,0.4 0 0 0 -0.398721,0.400116 l 0.0739,42.34053 c 5.82e-4,0.333333 0.16735,0.499521 0.500683,0.498939 l 11.000148,-0.0192 c 0.353333,-6.17e-4 0.529621,-0.177521 0.529004,-0.530854 -0.109809,-13.259828 -0.104801,-21.573583 0.01599,-24.940465 0.184187,-5.24033 2.459208,-8.280886 6.824413,-9.12184 7.737388,-1.503506 9.608498,4.673491 9.599232,10.823517 -0.01318,7.726701 3.39e-4,15.473534 0.04056,23.240143 0.0072,0.333321 0.174018,0.499509 0.500684,0.498939 l 10.749884,-0.01876 c 0.359999,-6.28e-4 0.546399,-0.180922 0.559104,-0.540945 C 54.851611,40.924438 54.752943,30.357518 54.118643,22.165279 53.668399,16.296056 49.721527,12.14304 43.969006,10.703078 42.231582,10.271109 40.551993,10.064319 38.930356,10.082983 Z M 321.7482,9.6015625 c -5.45401,-0.1442312 -10.0475,2.0597305 -13.77956,6.6112515 a 0.3,0.29 65.5 0 1 -0.52024,-0.199161 l 0.1016,-4.650515 c 0.0126,-0.433356 -0.19741,-0.64934 -0.63074,-0.648584 l -9.90014,0.01728 c -0.5,8.73e-4 -0.74963,0.251386 -0.74876,0.751385 l 0.0729,41.749649 c 8.8e-4,0.499999 0.25139,0.749639 0.75139,0.748766 l 10.70973,-0.01869 c 0.36,-6.28e-4 0.53965,-0.180911 0.53902,-0.540911 -0.0192,-7.199977 -0.0149,-14.396816 0.0125,-21.590208 0.0194,-6.090043 0.53962,-11.620717 7.258,-12.552444 5.29872,-0.73925 8.80428,2.304713 8.84366,7.674652 0.062,8.779905 0.11714,17.599736 0.16593,26.459665 6.1e-4,0.346666 0.17148,0.519592 0.51148,0.518998 l 11.15934,-0.01948 c 0.28667,-5.01e-4 0.43338,-0.140972 0.43956,-0.420983 0.26402,-9.153808 0.19822,-18.283687 -0.19768,-27.389677 -0.32272,-7.289448 -1.81389,-13.526397 -9.04747,-15.573775 -2.00933,-0.5698274 -3.9225,-0.8791425 -5.7405,-0.9272195 z M 123.07447,10.02074 c -10.08604,0.234904 -20.08504,7.251389 -21.12027,21.081342 -0.33877,4.527265 0.37892,8.66265 2.15213,12.406227 7.81873,16.456379 34.33788,16.179933 39.70595,-2.119464 0.11925,-0.426876 -0.0442,-0.639568 -0.49089,-0.638789 l -8.93995,0.0156 c -0.28,4.89e-4 -0.50964,0.114124 -0.68925,0.341105 -6.30561,8.251018 -19.00866,6.733023 -19.64871,-4.755877 -0.0206,-0.366631 0.15226,-0.550275 0.51893,-0.550915 l 29.74988,-0.05192 a 0.47,0.47 0 0 0 0.46964,-0.440397 C 146.04832,18.199166 134.5053,9.7545154 123.07447,10.02074 Z M 265.72613,9.9990837 A 20.12,20.12 0 0 0 245.57076,30.084136 l -0.008,4.600155 a 20.12,20.12 0 0 0 20.08505,20.155369 l 3.99995,0.0066 a 20.12,20.12 0 0 0 20.15465,-20.085051 l 0.008,-4.600155 a 20.12,20.12 0 0 0 -20.08433,-20.15461 z m -195.486459,1.1285553 -11.950273,0.0309 a 0.3,0.3 0 0 0 -0.278968,0.399907 l 14.624161,42.61488 a 0.3,0.3 0 0 0 0.280731,0.199578 l 12.879639,-0.02248 A 0.3,0.3 0 0 0 86.084316,54.14985 L 100.38035,11.47517 a 0.3,0.3 0 0 0 -0.29112,-0.399629 l -11.269778,0.01967 a 0.3,0.3 0 0 0 -0.289337,0.210613 l -8.661056,28.334488 a 0.3,0.3 0 0 1 -0.579408,10e-4 L 70.529742,11.33724 a 0.3,0.3 0 0 0 -0.290071,-0.209601 z m -75.7898543,0.142317 c -0.2382196,4.16e-4 -0.4299196,0.192068 -0.4295038,0.430288 l 0.073967,42.37997 c 4.157e-4,0.23822 0.1927848,0.429918 0.4310044,0.429503 L 5.6652648,54.490274 C 5.9034844,54.489858 6.094466,54.29749 6.0940503,54.05927 L 6.0200832,11.6793 C 6.0196674,11.44108 5.8280167,11.250098 5.5897971,11.250513 Z M 227.28939,10.863574 c -0.28808,5.03e-4 -0.51949,0.232718 -0.51898,0.520797 l 0.0737,42.199981 c 5e-4,0.28808 0.23272,0.519485 0.5208,0.518982 l 10.95999,-0.01913 c 0.28808,-5.03e-4 0.51948,-0.232718 0.51898,-0.520797 l -0.0736,-42.199981 c -5e-4,-0.28808 -0.23272,-0.519485 -0.5208,-0.518983 z m -103.42685,8.190425 c 4.07117,-0.04711 7.96023,2.61587 8.76519,8.324474 0.0607,0.426561 -0.12559,0.640582 -0.55893,0.641338 l -17.27969,0.03016 a 0.82,0.82 0 0 1 -0.78205,-1.059213 c 1.53105,-5.13268 5.7843,-7.889653 9.85548,-7.936758 z m 143.24111,-0.01982 c 15.51951,-0.297087 14.47177,29.654366 -1.78334,26.742732 -10.7934,-1.941165 -10.98623,-26.490445 1.78334,-26.742732 z"
       transform="matrix(2.7236767,0.00475372,-0.00475372,2.7236767,40.147041,410.80723)"
       style="fill:#6e6f73;fill-opacity:1" /><path
       id="open"
       d="m 105.36936,37.302459 c -4.72552,0.1875 -9.048457,2.416751 -12.969291,6.687584 -0.213333,0.226667 -0.340058,0.496979 -0.380058,0.810312 -0.05333,0.38 -0.203666,0.683321 -0.450332,0.909988 -0.38,0.34 -0.56937,0.256402 -0.56937,-0.250265 v -6.210002 c 0,-0.333333 -0.167196,-0.499811 -0.500529,-0.499811 h -4.249477 c -0.333333,0 -0.500529,0.166478 -0.500529,0.499811 v 57.999696 c 0,0.333333 0.167196,0.500529 0.500529,0.500529 h 4.499742 c 0.333333,0 0.499811,-0.167196 0.499811,-0.500529 V 75.019973 c 0,-0.36 0.103834,-0.389636 0.310501,-0.08964 8.23,11.92 25.999413,10.519959 31.629413,-2.750041 4.47,-10.54 2.90028,-27.900534 -8.87972,-33.010534 -3.125,-1.3575 -6.10537,-1.979803 -8.94069,-1.867303 z m -47.753188,0.198634 c -7.50875,0.19875 -14.951019,4.378973 -17.976019,12.338973 -5.01,13.17 -0.250264,32.209727 16.369736,33.169727 19.26,1.11 26.380286,-18.499961 19.980286,-33.959961 -3.29,-7.965 -10.865253,-11.747489 -18.374003,-11.548739 z m 137.940918,0.05091 c -5.60125,0.13375 -10.14691,2.703003 -13.63691,7.708003 -0.12,0.173333 -0.17999,0.15647 -0.17999,-0.0502 l 0.01,-5.709473 c 0.007,-0.5 -0.24341,-0.750076 -0.75007,-0.750076 h -3.99993 c -0.33334,0 -0.50053,0.166478 -0.50053,0.499811 V 81.12026 c 0,0.42 0.21032,0.629605 0.63032,0.629605 h 4.08024 c 0.39334,0 0.58608,-0.196832 0.57941,-0.590165 -0.10666,-8.166667 -0.0797,-16.316576 0.0803,-24.44991 0.34,-17.33 24.26036,-20.819954 24.20036,-2.179954 -0.0267,8.866667 -0.0604,17.749943 -0.10039,26.649943 0,0.38 0.18671,0.570086 0.56005,0.570086 h 4.45026 c 0.32,0 0.4831,-0.163106 0.48977,-0.489772 0.08,-9.233334 0.0631,-18.46643 -0.0502,-27.699763 -0.08,-7.1 -2.24018,-13.520673 -9.91018,-15.330673 -2.10167,-0.496667 -4.08549,-0.722234 -5.95257,-0.67765 z m -44.271,0.0079 c -27.18308,-0.444518 -27.58052,48.256121 2.34417,45.340183 8.19333,-0.8 13.43001,-5.703723 15.71001,-14.71039 0.11333,-0.46 -0.0666,-0.68984 -0.53997,-0.68984 h -4.25019 c -0.36667,0 -0.59651,0.179969 -0.68984,0.539969 -3.09,12.29 -18.71993,14.130256 -24.81993,3.170256 -1.32667,-2.386667 -2.06004,-5.386867 -2.20004,-9.0002 -0.007,-0.306667 0.13958,-0.459655 0.43958,-0.459655 h 31.94996 c 0.3,0 0.45708,-0.150333 0.47041,-0.450333 0.34,-10.05 -4.33998,-22.079922 -15.69998,-23.539922 -0.9325,-0.12 -1.83731,-0.185729 -2.71418,-0.200068 z m -93.324281,4.51982 A 14.92,18.21 0.1 0 1 72.850037,60.316037 14.92,18.21 0.1 0 1 57.897988,78.500012 14.92,18.21 0.1 0 1 43.00976,60.26369 14.92,18.21 0.1 0 1 57.961809,42.079715 Z M 105.715,42.191581 c 2.65513,-0.0058 5.31533,0.725578 7.5947,2.248078 11.19,7.46 8.69997,35.230324 -8.41003,33.870324 -14.84,-1.19 -17.629985,-24.380161 -8.579985,-32.550161 2.57625,-2.334375 5.981575,-3.560836 9.395315,-3.568241 z m 45.60623,0.114734 c 6.33625,0.17625 12.39862,5.188946 12.79862,14.523946 0.0133,0.28 -0.12013,0.419498 -0.40013,0.419498 h -26.44988 c -0.30667,0 -0.43676,-0.149615 -0.3901,-0.449615 1.495,-10.01 8.10524,-14.670079 14.44149,-14.493829 z"
       style="fill:#6e6f73;fill-opacity:1"
       transform="matrix(2.7236808,0,0,2.7236808,-79.013998,120.0543)" /></g><metadata
     id="metadata1"><rdf:RDF><cc:Work
         rdf:about=""><dc:title>Open Invention Network Community Member Logo</dc:title><dc:date>Tue, 20 May 2025 06:00:00 +0800</dc:date><dc:creator><cc:Agent><dc:title>(Holloway) Chew, Kean Ho via Open Invention Network</dc:title></cc:Agent></dc:creator><dc:rights><cc:Agent><dc:title>All Rights Reserved</dc:title></cc:Agent></dc:rights><dc:identifier>oin-community-badge</dc:identifier><dc:source>https://openinventionnetwork.com/our-members/oin-community-member-logos/</dc:source><dc:language>English</dc:language><dc:subject><rdf:Bag><rdf:li>logo</rdf:li><rdf:li>branding</rdf:li><rdf:li>oin</rdf:li><rdf:li>community member</rdf:li></rdf:Bag></dc:subject><dc:relation>oin, branding, community</dc:relation><dc:coverage>oin, branding, community</dc:coverage><dc:description>The official comunity member's OIN logo.</dc:description><cc:license
           rdf:resource="https://openinventionnetwork.com/our-members/oin-community-member-logos/" /><dc:contributor><cc:Agent><dc:title>(Holloway) Chew, Kean Ho - Re-drawn to SVG; Open Invention Network - Original Artist</dc:title></cc:Agent></dc:contributor><dc:publisher><cc:Agent><dc:title>Open Invention Network</dc:title></cc:Agent></dc:publisher></cc:Work></rdf:RDF></metadata></svg>
