<?xml version="1.0" encoding="UTF-8" standalone="no"?>
<!-- Created with Inkscape (http://www.inkscape.org/) -->

<svg
   width="150"
   height="150"
   viewBox="0 0 150 150"
   version="1.1"
   id="svg5"
   xml:space="preserve"
   sodipodi:docname="online_150x150.svg"
   inkscape:version="1.4.2 (ebf0e940d0, 2025-05-08)"
   xmlns:inkscape="http://www.inkscape.org/namespaces/inkscape"
   xmlns:sodipodi="http://sodipodi.sourceforge.net/DTD/sodipodi-0.dtd"
   xmlns="http://www.w3.org/2000/svg"
   xmlns:svg="http://www.w3.org/2000/svg"
   xmlns:rdf="http://www.w3.org/1999/02/22-rdf-syntax-ns#"
   xmlns:cc="http://creativecommons.org/ns#"
   xmlns:dc="http://purl.org/dc/elements/1.1/"><sodipodi:namedview
     id="namedview1"
     pagecolor="#ffffff"
     bordercolor="#000000"
     borderopacity="0.25"
     inkscape:showpageshadow="2"
     inkscape:pageopacity="0.0"
     inkscape:pagecheckerboard="0"
     inkscape:deskcolor="#d1d1d1"
     inkscape:zoom="2.6866667"
     inkscape:cx="59.553349"
     inkscape:cy="96.774192"
     inkscape:window-width="1920"
     inkscape:window-height="987"
     inkscape:window-x="0"
     inkscape:window-y="32"
     inkscape:window-maximized="1"
     inkscape:current-layer="svg5" /><title
     id="title1">Mastodon Online Member Logo</title><defs
     id="defs2" /><rect
     style="fill:#2f0c7a;fill-opacity:1;stroke-width:6.02504"
     id="background"
     width="150"
     height="150"
     x="0"
     y="0" /><metadata
     id="metadata1"><rdf:RDF><cc:Work
         rdf:about=""><dc:title>Mastodon Online Member Logo</dc:title><dc:date>Tue, 27 Oct 2025 06:00:00 +0800</dc:date><dc:creator><cc:Agent><dc:title>(Holloway) Chew, Kean Ho via Mastodon Online</dc:title></cc:Agent></dc:creator><dc:rights><cc:Agent><dc:title>All Rights Reserved</dc:title></cc:Agent></dc:rights><dc:source>https://mastodon.online/@hollowaykeanho</dc:source><dc:language>English</dc:language><dc:subject><rdf:Bag><rdf:li>logo</rdf:li><rdf:li>branding</rdf:li><rdf:li>online</rdf:li><rdf:li>mastodon</rdf:li><rdf:li>community member</rdf:li></rdf:Bag></dc:subject><dc:relation>online, mastodon, branding, community</dc:relation><dc:coverage>online, mastodon, branding, community</dc:coverage><dc:description>The official comunity member's mastodon online logo.</dc:description><dc:contributor><cc:Agent><dc:title>(Holloway) Chew, Kean Ho - Re-drawn to SVG; Mastodon - Original Artist</dc:title></cc:Agent></dc:contributor><dc:publisher><cc:Agent><dc:title>Mastodon</dc:title></cc:Agent></dc:publisher><cc:license
           rdf:resource="http://creativecommons.org/licenses/by-nd/4.0/" /><dc:identifier>mastodon-online-badge</dc:identifier></cc:Work><cc:License
         rdf:about="http://creativecommons.org/licenses/by-nd/4.0/"><cc:permits
           rdf:resource="http://creativecommons.org/ns#Reproduction" /><cc:permits
           rdf:resource="http://creativecommons.org/ns#Distribution" /><cc:requires
           rdf:resource="http://creativecommons.org/ns#Notice" /><cc:requires
           rdf:resource="http://creativecommons.org/ns#Attribution" /></cc:License></rdf:RDF></metadata><g
     id="foreground"
     inkscape:label="foreground"
     transform="matrix(0.38933818,0,0,0.38933818,14.068575,55.667538)"><path
       d="M 72.9455,17.5324 C 71.8169,9.03393 64.5038,2.32519 55.846,1.03459 54.3811,0.815429 48.8453,0.0118408 36.0206,0.0118408 H 35.9245 C 23.0879,0.0118408 20.338,0.815429 18.873,1.03459 10.4433,2.30085 2.75813,8.31558 0.884866,16.9237 c -0.88860151,4.2371 -0.9846665,8.9369 -0.8165528,13.247 0.2401618,6.1852 0.2881948,12.346 0.8405678,18.5069 0.384259,4.091 1.044709,8.1455 1.993349,12.139 1.7772,7.3784 8.95807,13.515 15.99487,16.0109 7.529,2.6056 15.6346,3.0439 23.3917,1.254 0.8526,-0.2069 1.6932,-0.4382 2.5338,-0.7061 1.8853,-0.6088 4.0947,-1.2906 5.7278,-2.4838 0.0241,-0.0122 0.0361,-0.0365 0.0481,-0.0609 0.012,-0.0243 0.024,-0.0487 0.024,-0.0852 v -5.9661 c 0,0 0,-0.0486 -0.024,-0.073 0,-0.0243 -0.024,-0.0487 -0.0481,-0.0609 -0.024,-0.0121 -0.048,-0.0244 -0.0719,-0.0365 -0.0242,0 -0.0481,0 -0.0721,0 -4.9715,1.2054 -10.0748,1.8142 -15.1783,1.802 -8.802,0 -11.1676,-4.2371 -11.84,-5.9904 -0.5404,-1.5219 -0.8886,-3.117 -1.0327,-4.7241 0,-0.0244 0,-0.0487 0.012,-0.0731 0,-0.0243 0.024,-0.0487 0.0481,-0.0609 0.0239,-0.0121 0.0479,-0.0243 0.0719,-0.0364 h 0.0841 c 4.8873,1.1931 9.9067,1.8019 14.9381,1.8019 1.2129,0 2.4136,0 3.6265,-0.0365 5.0554,-0.1462 10.3871,-0.4018 15.3704,-1.388 0.12,-0.0244 0.2522,-0.0487 0.3602,-0.0731 7.8534,-1.5341 15.3224,-6.3313 16.0788,-18.4825 0.0242,-0.4748 0.0962,-5.0163 0.0962,-5.5033 0,-1.6925 0.5403,-11.9686 -0.0841,-18.2877 z"
       fill="#000000"
       id="path1"
       style="fill:#6364ff;fill-opacity:1" /><path
       d="m 14.8143,22.2813 c 0,-2.4838 1.9574,-4.4805 4.383,-4.4805 2.4257,0 4.3829,2.0089 4.3829,4.4805 0,2.4717 -1.9572,4.4806 -4.3829,4.4806 -2.4256,0 -4.383,-2.0089 -4.383,-4.4806 z"
       fill="#ffffff"
       id="path2" /><path
       d="M 80.0185,26.141 V 46.742 H 72.0331 V 26.7498 c 0,-4.2128 -1.7291,-6.3436 -5.1995,-6.3436 -3.8306,0 -5.7639,2.5448 -5.7639,7.5489 V 38.9009 H 53.1444 V 27.9551 c 0,-5.0286 -1.9093,-7.5489 -5.764,-7.5489 -3.4582,0 -5.1995,2.1308 -5.1995,6.3436 V 46.7299 H 34.2075 V 26.141 c 0,-4.2006 1.0447,-7.5489 3.1461,-10.0327 2.1735,-2.4838 5.0194,-3.7379 8.5378,-3.7379 4.0828,0 7.1809,1.6071 9.2223,4.8215 l 1.9934,3.4092 1.9933,-3.4092 c 2.0413,-3.2021 5.1275,-4.8215 9.2222,-4.8215 3.5184,0 6.3643,1.2663 8.5378,3.7379 2.1014,2.4838 3.1461,5.8077 3.1461,10.0327 z m 27.4745,10.2396 c 1.657,-1.7899 2.438,-4.0058 2.438,-6.7088 0,-2.7029 -0.793,-4.9432 -2.438,-6.6478 -1.585,-1.7898 -3.602,-2.6421 -6.04,-2.6421 -2.4377,0 -4.443,0.8523 -6.04,2.6421 -1.5851,1.7046 -2.3776,3.9449 -2.3776,6.6478 0,2.703 0.7925,4.9433 2.3776,6.7088 1.585,1.7045 3.6023,2.5691 6.04,2.5691 2.438,0 4.443,-0.8523 6.04,-2.5691 z m 2.438,-23.1823 h 7.865 v 32.9472 h -7.865 v -3.8841 c -2.378,3.2265 -5.668,4.8216 -9.9429,4.8216 -4.2749,0 -7.5652,-1.6438 -10.4832,-5.0042 -2.8699,-3.3604 -4.3228,-7.5124 -4.3228,-12.3826 0,-4.8702 1.4649,-8.9613 4.3228,-12.3217 2.93,-3.3604 6.4124,-5.0649 10.4832,-5.0649 4.0709,0 7.5649,1.5828 9.9429,4.7971 v -3.884 z m 34.331,15.8527 c 2.318,1.7897 3.471,4.2858 3.411,7.4392 0,3.3604 -1.153,6.0026 -3.531,7.8289 -2.377,1.7898 -5.248,2.7029 -8.73,2.7029 -6.28,0 -10.543,-2.642 -12.801,-7.8288 l 6.822,-4.1519 c 0.911,2.8247 2.917,4.2858 5.979,4.2858 2.81,0 4.203,-0.9131 4.203,-2.8248 0,-1.3879 -1.826,-2.642 -5.548,-3.6161 -1.405,-0.3897 -2.569,-0.7914 -3.47,-1.1201 -1.286,-0.5235 -2.378,-1.1202 -3.291,-1.8507 -2.257,-1.7898 -3.409,-4.1519 -3.409,-7.1836 0,-3.2265 1.092,-5.7956 3.289,-7.6462 2.259,-1.9116 5.007,-2.8249 8.298,-2.8249 5.247,0 9.078,2.3012 11.588,6.9767 l -6.701,3.9448 c -0.972,-2.2403 -2.63,-3.3604 -4.887,-3.3604 -2.378,0 -3.531,0.9131 -3.531,2.703 0,1.388 1.826,2.6421 5.548,3.6162 2.87,0.6575 5.127,1.6436 6.761,2.91 h 0.012 z m 25.001,-7.6951 h -6.893 v 13.7098 c 0,1.6436 0.613,2.642 1.777,3.0926 0.853,0.3287 2.558,0.3895 5.128,0.2678 v 7.7071 c -5.296,0.6575 -9.138,0.1218 -11.395,-1.6437 -2.258,-1.7046 -3.351,-4.8823 -3.351,-9.4117 V 21.3559 h -5.296 v -8.1698 h 5.296 V 6.53829 l 7.865,-2.56906 v 9.22907 h 6.893 v 8.1699 h -0.012 z m 25.073,14.8299 c 1.585,-1.7045 2.377,-3.884 2.377,-6.5261 0,-2.6421 -0.792,-4.7971 -2.377,-6.5262 -1.598,-1.7045 -3.543,-2.569 -5.92,-2.569 -2.378,0 -4.323,0.8524 -5.921,2.569 -1.524,1.7899 -2.317,3.945 -2.317,6.5262 0,2.5812 0.793,4.7363 2.317,6.5261 1.586,1.7046 3.543,2.569 5.921,2.569 2.377,0 4.322,-0.8522 5.92,-2.569 z m -17.375,5.8564 c -3.111,-3.3604 -4.636,-7.4392 -4.636,-12.3825 0,-4.9433 1.525,-8.9612 4.636,-12.3216 3.109,-3.3606 6.952,-5.0651 11.455,-5.0651 4.502,0 8.358,1.7045 11.456,5.0651 3.098,3.3604 4.695,7.5122 4.695,12.3216 0,4.8093 -1.597,9.0221 -4.695,12.3825 -3.111,3.3605 -6.893,5.0042 -11.456,5.0042 -4.563,0 -8.358,-1.6437 -11.455,-5.0042 z m 53.903,-5.6737 c 1.585,-1.7899 2.378,-4.0058 2.378,-6.7088 0,-2.7029 -0.793,-4.9433 -2.378,-6.6479 -1.584,-1.7898 -3.601,-2.642 -6.04,-2.642 -2.437,0 -4.455,0.8522 -6.099,2.642 -1.586,1.7046 -2.378,3.945 -2.378,6.6479 0,2.703 0.792,4.9433 2.378,6.7088 1.656,1.7045 3.722,2.569 6.099,2.569 2.379,0 4.444,-0.8524 6.04,-2.569 z M 233.242,0 h 7.865 v 46.1332 h -7.865 v -3.884 c -2.317,3.2266 -5.608,4.8215 -9.882,4.8215 -4.275,0 -7.613,-1.6436 -10.556,-5.0042 -2.87,-3.3604 -4.322,-7.5122 -4.322,-12.3824 0,-4.8702 1.464,-8.9613 4.322,-12.3217 2.918,-3.3605 6.46,-5.0651 10.556,-5.0651 4.094,0 7.565,1.5828 9.882,4.7972 V 0.0121756 Z m 35.496,36.1492 c 1.585,-1.7045 2.378,-3.8839 2.378,-6.526 0,-2.6421 -0.793,-4.7972 -2.378,-6.5261 -1.585,-1.7046 -3.53,-2.569 -5.92,-2.569 -2.389,0 -4.322,0.8522 -5.92,2.569 -1.525,1.7898 -2.318,3.9448 -2.318,6.5261 0,2.5812 0.793,4.7362 2.318,6.526 1.586,1.7047 3.543,2.5692 5.92,2.5692 2.378,0 4.323,-0.8524 5.92,-2.5692 z m -17.376,5.8565 c -3.097,-3.3605 -4.635,-7.4393 -4.635,-12.3825 0,-4.9433 1.526,-8.9613 4.635,-12.3217 3.11,-3.3604 6.953,-5.0651 11.456,-5.0651 4.503,0 8.358,1.7047 11.456,5.0651 3.109,3.3604 4.695,7.5124 4.695,12.3217 0,4.8094 -1.586,9.022 -4.695,12.3825 -3.11,3.3605 -6.893,5.0042 -11.456,5.0042 -4.563,0 -8.358,-1.6437 -11.456,-5.0042 z M 313,25.861 v 20.2357 h -7.865 V 26.9202 c 0,-2.1795 -0.541,-3.8231 -1.657,-5.065 -1.033,-1.1203 -2.498,-1.7047 -4.384,-1.7047 -4.442,0 -6.7,2.703 -6.7,8.1699 v 17.7885 h -7.865 V 13.1861 h 7.865 v 3.7014 c 1.885,-3.0926 4.887,-4.6145 9.078,-4.6145 3.35,0 6.1,1.181 8.238,3.6161 2.198,2.4351 3.29,5.7348 3.29,10.0083"
       fill="#ffffff"
       id="path3" /><path
       style="font-weight:bold;font-size:22.3373px;font-family:'Noto Sans';-inkscape-font-specification:'Noto Sans Bold';direction:rtl;text-orientation:sideways;fill:#ffffff;stroke-width:10.0395;stroke-linecap:round;stroke-linejoin:round"
       d="m 78.829788,61.199139 q 0,2.47944 -0.82648,4.333436 -0.804143,1.831659 -2.479441,2.859175 -1.675297,1.027515 -4.288761,1.027515 -2.591127,0 -4.288762,-1.027515 -1.675297,-1.027516 -2.501777,-2.881512 -0.804143,-1.853996 -0.804143,-4.333436 0,-2.47944 0.804143,-4.311099 0.82648,-1.831658 2.501777,-2.836837 1.697635,-1.027516 4.311099,-1.027516 2.591127,0 4.266424,1.027516 1.675298,1.005179 2.479441,2.859174 0.82648,1.831659 0.82648,4.311099 z m -11.637733,0 q 0,2.501778 0.960504,3.953702 0.960503,1.429587 3.082547,1.429587 2.166718,0 3.104884,-1.429587 0.938167,-1.451924 0.938167,-3.953702 0,-2.524115 -0.938167,-3.953702 -0.938166,-1.429587 -3.082547,-1.429587 -2.144381,0 -3.104884,1.429587 -0.960504,1.429587 -0.960504,3.953702 z m 21.600157,-4.422785 q 1.965683,0 3.149559,1.07219 1.183877,1.049853 1.183877,3.39527 v 7.952078 h -3.328257 v -7.125598 q 0,-1.317901 -0.469084,-1.965683 -0.469083,-0.670118 -1.496599,-0.670118 -1.518936,0 -2.077368,1.049853 -0.558433,1.027515 -0.558433,2.97086 v 5.740686 H 81.867649 V 56.999727 h 2.546453 l 0.446746,1.563611 h 0.178698 q 0.58077,-0.938167 1.585948,-1.362575 1.027516,-0.424409 2.166718,-0.424409 z M 99.871505,69.195892 H 96.543248 V 52.219545 h 3.328257 z m 5.159925,-16.976347 q 0.73713,0 1.27322,0.357397 0.5361,0.335059 0.5361,1.273226 0,0.915829 -0.5361,1.273226 -0.53609,0.357397 -1.27322,0.357397 -0.75947,0 -1.29557,-0.357397 -0.51375,-0.357397 -0.51375,-1.273226 0,-0.938167 0.51375,-1.273226 0.5361,-0.357397 1.29557,-0.357397 z m 1.65296,4.780182 v 12.196165 h -3.32826 V 56.999727 Z m 10.40918,-0.223373 q 1.96569,0 3.14956,1.07219 1.18388,1.049853 1.18388,3.39527 v 7.952078 h -3.32826 v -7.125598 q 0,-1.317901 -0.46908,-1.965683 -0.46908,-0.670118 -1.4966,-0.670118 -1.51894,0 -2.07737,1.049853 -0.55843,1.027515 -0.55843,2.97086 v 5.740686 h -3.32826 V 56.999727 h 2.54645 l 0.44675,1.563611 h 0.1787 q 0.58077,-0.938167 1.58595,-1.362575 1.02751,-0.424409 2.16671,-0.424409 z m 12.77693,0 q 2.52412,0 3.99838,1.451924 1.47426,1.429588 1.47426,4.087726 v 1.608286 h -7.86273 q 0.0447,1.40725 0.82648,2.211392 0.80414,0.804143 2.21139,0.804143 1.18388,0 2.14438,-0.223373 0.96051,-0.24571 1.98802,-0.737131 v 2.56879 q -0.89349,0.446746 -1.89867,0.647781 -0.98284,0.223373 -2.39009,0.223373 -1.83166,0 -3.23891,-0.670119 -1.40725,-0.692456 -2.21139,-2.077368 -0.80414,-1.384913 -0.80414,-3.484619 0,-2.144381 0.71479,-3.551631 0.73713,-1.429587 2.0327,-2.144381 1.29556,-0.714793 3.01553,-0.714793 z m 0.0223,2.367754 q -0.96051,0 -1.60829,0.625444 -0.62544,0.625444 -0.73713,1.943345 h 4.6685 q -0.0223,-1.116865 -0.58077,-1.831658 -0.55843,-0.737131 -1.74231,-0.737131 z"
       id="text1"
       transform="matrix(2.5684612,0,0,2.5684612,-36.701684,-78.991333)"
       aria-label="Online" /></g></svg>
