<?xml version="1.0" encoding="UTF-8" standalone="no"?>
<!-- Created with Inkscape (http://www.inkscape.org/) -->

<svg
   width="150"
   height="150"
   viewBox="0 0 150 150"
   version="1.1"
   id="svg5"
   xml:space="preserve"
   sodipodi:docname="salsa_150x150.svg"
   inkscape:version="1.4.2 (ebf0e940d0, 2025-05-08)"
   xmlns:inkscape="http://www.inkscape.org/namespaces/inkscape"
   xmlns:sodipodi="http://sodipodi.sourceforge.net/DTD/sodipodi-0.dtd"
   xmlns="http://www.w3.org/2000/svg"
   xmlns:svg="http://www.w3.org/2000/svg"
   xmlns:rdf="http://www.w3.org/1999/02/22-rdf-syntax-ns#"
   xmlns:cc="http://creativecommons.org/ns#"
   xmlns:dc="http://purl.org/dc/elements/1.1/"
   xmlns:i="http://ns.adobe.com/AdobeIllustrator/10.0/"><sodipodi:namedview
     id="namedview1"
     pagecolor="#ffffff"
     bordercolor="#000000"
     borderopacity="0.25"
     inkscape:showpageshadow="2"
     inkscape:pageopacity="0.0"
     inkscape:pagecheckerboard="0"
     inkscape:deskcolor="#d1d1d1"
     inkscape:zoom="2.6866667"
     inkscape:cx="57.692308"
     inkscape:cy="80.397022"
     inkscape:window-width="1920"
     inkscape:window-height="987"
     inkscape:window-x="0"
     inkscape:window-y="32"
     inkscape:window-maximized="1"
     inkscape:current-layer="foreground" /><title
     id="title1">Debian Salsa Member Logo</title><defs
     id="defs2" /><rect
     style="fill:#ffffff;fill-opacity:1;stroke-width:6.02504"
     id="background"
     width="150"
     height="150"
     x="0"
     y="0" /><metadata
     id="metadata1"><rdf:RDF><cc:Work
         rdf:about=""><dc:title>Debian Salsa Member Logo</dc:title><dc:date>Tue, 27 Oct 2025 06:00:00 +0800</dc:date><dc:creator><cc:Agent><dc:title>(Holloway) Chew, Kean Ho via Debian Salsa</dc:title></cc:Agent></dc:creator><dc:rights><cc:Agent><dc:title>All Rights Reserved</dc:title></cc:Agent></dc:rights><dc:identifier>debian-salsa-badge</dc:identifier><dc:source>https://salsa.debian.org/chewkeanho-team</dc:source><dc:language>English</dc:language><dc:subject><rdf:Bag><rdf:li>logo</rdf:li><rdf:li>branding</rdf:li><rdf:li>salsa</rdf:li><rdf:li>debian</rdf:li><rdf:li>community member</rdf:li></rdf:Bag></dc:subject><dc:relation>salsa, debian, branding, community</dc:relation><dc:coverage>salsa, debian, branding, community</dc:coverage><dc:description>The official comunity member's debian salsa logo.</dc:description><dc:contributor><cc:Agent><dc:title>(Holloway) Chew, Kean Ho - Re-drawn to SVG; Debian - Original Artist</dc:title></cc:Agent></dc:contributor><dc:publisher><cc:Agent><dc:title>Debian Salsa</dc:title></cc:Agent></dc:publisher><cc:license
           rdf:resource="http://creativecommons.org/licenses/by-nd/4.0/" /></cc:Work><cc:License
         rdf:about="http://creativecommons.org/licenses/by-nd/4.0/"><cc:permits
           rdf:resource="http://creativecommons.org/ns#Reproduction" /><cc:permits
           rdf:resource="http://creativecommons.org/ns#Distribution" /><cc:requires
           rdf:resource="http://creativecommons.org/ns#Notice" /><cc:requires
           rdf:resource="http://creativecommons.org/ns#Attribution" /></cc:License></rdf:RDF></metadata><g
     id="foreground"
     i:layer="yes"
     i:dimmedPercent="50"
     i:rgbTrio="#4F008000FFFF"
     inkscape:label="foreground"
     transform="translate(15.505884,3.5622369)">
		<g
   id="logo"
   inkscape:label="logo"
   transform="matrix(0.67634038,0,0,0.67634038,-36.712365,40.942928)">
			<path
   i:knockout="Off"
   fill="#a80030"
   d="m 60.969,47.645 c -1.494,0.02 0.281,0.768 2.232,1.069 0.541,-0.422 1.027,-0.846 1.463,-1.26 -1.213,0.297 -2.449,0.304 -3.695,0.191"
   id="path1" />
			<path
   i:knockout="Off"
   fill="#a80030"
   d="m 68.986,45.646 c 0.893,-1.229 1.541,-2.573 1.77,-3.963 -0.201,0.99 -0.736,1.845 -1.244,2.749 -2.793,1.759 -0.264,-1.044 -0.002,-2.111 -3.002,3.783 -0.414,2.268 -0.524,3.325"
   id="path2" />
			<path
   i:knockout="Off"
   fill="#a80030"
   d="m 71.949,37.942 c 0.182,-2.691 -0.529,-1.839 -0.768,-0.814 0.278,0.146 0.499,1.898 0.768,0.814"
   id="path3" />
			<path
   i:knockout="Off"
   fill="#a80030"
   d="m 55.301,1.163 c 0.798,0.142 1.724,0.252 1.591,0.443 0.876,-0.193 1.073,-0.367 -1.591,-0.443"
   id="path4" />
			<path
   i:knockout="Off"
   fill="#a80030"
   d="M 56.893,1.606 56.332,1.723 56.855,1.675 56.893,1.606"
   id="path5" />
			<path
   i:knockout="Off"
   fill="#a80030"
   d="m 104.90725,38.962 c 0.09,2.416 -0.705,3.59 -1.424,5.666 l -1.293,0.643 c -1.057,2.054 0.105,1.304 -0.652,2.937 -1.652002,1.467 -5.006002,4.589 -6.080002,4.875 -0.785,-0.017 0.531,-0.926 0.703,-1.281 -2.209,1.516 -1.773,2.276 -5.152,3.199 l -0.098,-0.221 c -8.33,3.92 -19.902,-3.847 -19.75,-14.443 -0.088,0.672 -0.253,0.504 -0.437,0.774 -0.43,-5.451 2.518,-10.926 7.49,-13.165 4.863,-2.406 10.564,-1.42 14.045,1.829 -1.912,-2.506 -5.721,-5.163 -10.232,-4.917 -4.421,0.072 -8.558,2.881 -9.938,5.932 -2.264,1.425 -2.528,5.496 -3.514,6.242 -1.329,9.76 2.497,13.975 8.97,18.936 1.016,0.686 0.286,0.791 0.422,1.313 -2.15,-1.006 -4.118,-2.526 -5.738,-4.387 0.86,1.257 1.787,2.479 2.986,3.439 -2.029,-0.685 -4.738,-4.913 -5.527,-5.085 3.495,6.258 14.178,10.975 19.775,8.634 -2.59,0.096 -5.879,0.053 -8.787,-1.022 -1.225,-0.629 -2.884,-1.93 -2.587,-2.173 7.636,2.851 15.522,2.158 22.128002,-3.137 1.682,-1.31 3.518,-3.537 4.049,-3.567 -0.799,1.202 0.137,0.578 -0.477,1.639 1.672,-2.701 -0.729,-1.1 1.73,-4.664 l 0.908,1.25 c -0.34,-2.244 2.785,-4.966 2.467,-8.512 0.717,-1.084 0.799,1.168 0.039,3.662 1.055,-2.767 0.279,-3.212 0.549,-5.496 0.291,0.768 0.678,1.583 0.875,2.394 -0.688,-2.675 0.703,-4.503 1.049,-6.058 -0.342,-0.15 -1.061,1.182 -1.227,-1.976 0.025,-1.372 0.383,-0.719 0.52,-1.057 -0.268,-0.155 -0.975,-1.207 -1.404,-3.224 0.309,-0.475 0.832,1.229 1.256,1.298 -0.273,-1.603 -0.742,-2.826 -0.762,-4.057 -1.24,-2.59 -0.439,0.346 -1.443,-1.112 -1.32,-4.114 1.094,-0.955 1.258,-2.823 1.998,2.895 3.137,7.385 3.662,9.244 -0.4,-2.267 -1.045,-4.464 -1.834,-6.589 0.609,0.257 -0.979,-4.663 0.791,-1.405 -1.889,-6.945 -8.078,-13.435 -13.773002,-16.479 0.695,0.637 1.574002,1.437 1.26,1.563 -2.834,-1.685 -2.336,-1.818 -2.742,-2.53 -2.305,-0.939 -2.459,0.077 -3.984,0.002 -4.35,-2.308 -5.188,-2.063 -9.191,-3.507 l 0.182,0.852 c -2.881,-0.96 -3.357,0.362 -6.47,0.002 -0.189,-0.147 0.998,-0.536 1.976,-0.677 -2.786,0.368 -2.656,-0.55 -5.382,0.101 0.671,-0.471 1.383,-0.784 2.099,-1.184 -2.271,0.138 -5.424,1.322 -4.451,0.244 -3.705,1.654 -10.286,3.975 -13.979,7.438 l -0.116,-0.776 c -1.692,2.031 -7.379,6.066 -7.832,8.699 l -0.453,0.105 c -0.879,1.491 -1.45,3.18 -2.148,4.713 -1.151,1.963 -1.688,0.756 -1.524,1.064 -2.265,4.592 -3.392,8.45 -4.363,11.616 0.692,1.035 0.017,6.232 0.278,10.391 -1.136,20.544 14.418,40.489 31.42,45.093 2.492,0.893 6.197,0.861 9.349,0.949 -3.718,-1.064 -4.198,-0.563 -7.822,-1.826 -2.613,-1.232 -3.185,-2.637 -5.037,-4.244 l 0.733,1.295 c -3.63,-1.285 -2.111,-1.59 -5.065,-2.525 l 0.783,-1.021 c -1.177,-0.09 -3.117,-1.982 -3.647,-3.033 l -1.288,0.051 c -1.546,-1.906 -2.371,-3.283 -2.31,-4.35 l -0.416,0.742 c -0.471,-0.809 -5.691,-7.158 -2.983,-5.68 -0.503,-0.458 -1.172,-0.747 -1.897,-2.066 l 0.551,-0.629 c -1.301,-1.677 -2.398,-3.826 -2.314,-4.542 0.695,0.938 1.177,1.114 1.655,1.275 -3.291,-8.164 -3.476,-0.449 -5.967,-8.31 l 0.526,-0.042 c -0.403,-0.611 -0.65,-1.27 -0.974,-1.919 l 0.23,-2.285 c -2.368,-2.736 -0.662,-11.645 -0.319,-16.53 0.235,-1.986 1.977,-4.101 3.3,-7.418 l -0.806,-0.138 c 1.542,-2.688 8.802,-10.799 12.166,-10.383 1.629,-2.046 -0.324,-0.008 -0.643,-0.522 3.579,-3.703 4.704,-2.616 7.119,-3.283 2.603,-1.545 -2.235,0.604 -1.001,-0.589 4.503,-1.149 3.19,-2.614 9.063,-3.197 0.62,0.352 -1.437,0.544 -1.953,1.001 3.75,-1.836 11.869,-1.417 17.145,1.018 6.117,2.861 12.994002,11.314 13.266002,19.267 l 0.309,0.083 c -0.156,3.162 0.484,6.819 -0.627,10.177 l 0.751,-1.591"
   id="path6" />
			<path
   i:knockout="Off"
   fill="#a80030"
   d="m 44.658,49.695 -0.211,1.047 c 0.983,1.335 1.763,2.781 3.016,3.821 -0.902,-1.759 -1.571,-2.486 -2.805,-4.868"
   id="path7" />
			<path
   i:knockout="Off"
   fill="#a80030"
   d="m 46.979,49.605 c -0.52,-0.576 -0.826,-1.268 -1.172,-1.956 0.33,1.211 1.006,2.252 1.633,3.312 l -0.461,-1.356"
   id="path8" />
			<path
   i:knockout="Off"
   fill="#a80030"
   d="m 88.063,40.675 -0.219,0.552 c -0.402,2.858 -1.273,5.686 -2.605,8.309 1.472,-2.767 2.421,-5.794 2.824,-8.861"
   id="path9" />
			<path
   i:knockout="Off"
   fill="#a80030"
   d="M 55.598,0.446 C 56.607,0.077 58.08,0.243 59.154,0 57.756,0.117 56.365,0.187 54.992,0.362 l 0.606,0.084"
   id="path10" />
			
			
			
			
			
			
			
			
			
		</g>
	<g
   id="text"
   inkscape:label="text"
   transform="matrix(0.78548099,0,0,0.78548099,42.318587,-42.965603)"><path
     i:knockout="Off"
     d="m 13.437,125.506 c -0.045,0.047 -0.045,7.506 -0.138,9.453 -0.092,1.574 -0.232,4.957 -3.568,4.957 -3.429,0 -4.263,-3.939 -4.541,-5.652 -0.324,-1.9 -0.324,-3.477 -0.324,-4.17 0,-2.225 0.139,-8.436 5.375,-8.436 1.576,0 2.456,0.465 3.151,0.834 z M 0,130.975 c 0,13.066 6.951,13.066 7.97,13.066 2.873,0 4.727,-1.576 5.514,-4.309 l 0.093,4.123 c 0.881,-0.047 1.761,-0.139 3.197,-0.139 0.51,0 0.926,0 1.298,0.047 0.371,0 0.741,0.045 1.158,0.092 -0.741,-1.482 -1.297,-4.818 -1.297,-12.049 0,-7.043 0,-18.951 0.602,-22.566 -1.667,0.789 -3.105,1.299 -6.256,1.576 1.251,1.344 1.251,2.039 1.251,8.154 -0.879,-0.277 -1.992,-0.602 -3.892,-0.602 C 1.344,118.369 0,125.598 0,130.975"
     id="path13" /><path
     i:knockout="Off"
     d="m 25.13,128.609 c 0.047,-3.846 0.835,-7.275 4.124,-7.275 3.615,0 3.891,3.984 3.799,7.275 z m 12.51,0.465 c 0,-5.422 -1.065,-10.752 -7.923,-10.752 -9.452,0 -9.452,10.475 -9.452,12.697 0,9.406 4.216,13.113 11.306,13.113 3.149,0 4.68,-0.461 5.514,-0.695 -0.046,-1.668 0.185,-2.734 0.465,-4.17 -0.975,0.604 -2.226,1.391 -5.006,1.391 -7.229,0 -7.322,-6.582 -7.322,-8.852 H 37.55 l 0.09,-2.732"
     id="path14" /><path
     i:knockout="Off"
     d="m 52.715,131.066 c 0,4.309 -0.787,10.102 -6.162,10.102 -0.742,0 -1.668,-0.141 -2.27,-0.279 -0.093,-1.668 -0.093,-4.541 -0.093,-7.877 0,-3.986 0.416,-6.068 0.742,-7.09 0.972,-3.289 3.15,-3.334 3.566,-3.334 3.522,0 4.217,4.865 4.217,8.478 z m -13.298,5.051 c 0,3.43 0,5.375 -0.556,6.857 1.9,0.742 4.262,1.158 7.09,1.158 1.807,0 7.043,0 9.869,-5.791 1.344,-2.688 1.807,-6.303 1.807,-9.037 0,-1.668 -0.186,-5.328 -1.529,-7.646 -1.296,-2.176 -3.382,-3.289 -5.605,-3.289 -4.449,0 -5.746,3.707 -6.44,5.607 0,-2.363 0.045,-10.611 0.415,-14.828 -3.011,1.391 -4.866,1.621 -6.857,1.807 1.807,0.74 1.807,3.801 1.807,13.764 v 11.398"
     id="path15" /><path
     i:knockout="Off"
     d="m 66.535,143.855 c -0.928,-0.139 -1.578,-0.232 -2.922,-0.232 -1.48,0 -2.502,0.094 -3.566,0.232 0.463,-0.881 0.648,-1.299 0.787,-4.309 0.186,-4.125 0.232,-15.154 -0.092,-17.471 -0.232,-1.762 -0.648,-2.039 -1.297,-2.502 3.799,-0.371 4.865,-0.648 6.625,-1.482 -0.369,2.037 -0.418,3.059 -0.418,6.162 -0.091,15.989 -0.138,17.702 0.883,19.602"
     id="path16" /><path
     i:knockout="Off"
     d="m 81.373,130.74 c -0.092,2.92 -0.139,4.959 -0.928,6.58 -0.973,2.086 -2.594,2.688 -3.799,2.688 -2.783,0 -3.383,-2.316 -3.383,-4.586 0,-4.355 3.893,-4.682 5.652,-4.682 z m -12.744,5.701 c 0,2.92 0.881,5.838 3.477,7.09 1.158,0.51 2.316,0.51 2.688,0.51 4.264,0 5.699,-3.152 6.58,-5.098 -0.047,2.039 0,3.289 0.139,4.912 0.834,-0.047 1.668,-0.139 3.059,-0.139 0.787,0 1.529,0.092 2.316,0.139 -0.51,-0.787 -0.787,-1.252 -0.928,-3.059 -0.092,-1.76 -0.092,-3.521 -0.092,-5.977 l 0.047,-9.453 c 0,-3.523 -0.928,-6.998 -7.879,-6.998 -4.586,0 -7.273,1.391 -8.617,2.086 0.557,1.02 1.02,1.898 1.436,3.893 1.809,-1.576 4.172,-2.41 6.58,-2.41 3.848,0 3.848,2.549 3.848,6.162 -0.881,-0.045 -1.623,-0.137 -2.875,-0.137 -5.887,10e-4 -9.779,2.268 -9.779,8.479"
     id="path17" /><path
     i:knockout="Off"
     d="m 108.063,139.268 c 0.047,1.576 0.047,3.244 0.695,4.588 -1.021,-0.092 -1.623,-0.232 -3.521,-0.232 -1.113,0 -1.715,0.094 -2.596,0.232 0.184,-0.602 0.279,-0.834 0.371,-1.623 0.139,-1.064 0.232,-4.633 0.232,-5.885 v -5.004 c 0,-2.178 0,-5.33 -0.141,-6.441 -0.092,-0.787 -0.322,-2.918 -3.012,-2.918 -2.641,0 -3.521,1.945 -3.846,3.521 -0.369,1.621 -0.369,3.383 -0.369,10.24 0.045,5.932 0.045,6.486 0.508,8.109 -0.787,-0.092 -1.76,-0.184 -3.15,-0.184 -1.113,0 -1.854,0.045 -2.779,0.184 0.324,-0.742 0.51,-1.113 0.602,-3.707 0.094,-2.549 0.279,-15.061 -0.141,-18.025 -0.23,-1.809 -0.695,-2.225 -1.203,-2.688 3.754,-0.186 4.957,-0.789 6.117,-1.389 v 4.91 c 0.555,-1.438 1.713,-4.635 6.348,-4.635 5.793,0 5.838,4.217 5.885,6.996 v 13.951"
     id="path18" /><path
     i:knockout="Off"
     fill="#a80030"
     d="m 66.926,111.533 -3.838,3.836 -3.836,-3.836 3.836,-3.836 3.838,3.836"
     id="path19" /><path
     style="font-weight:600;font-size:33.7664px;font-family:'Noto Serif';-inkscape-font-specification:'Noto Serif Semi-Bold';direction:rtl;text-orientation:sideways;stroke-width:15.1764;stroke-linecap:round;stroke-linejoin:round"
     d="m 50.674943,97.807154 q -2.735078,0 -4.389632,-0.675328 -1.620787,-0.675328 -2.363648,-1.755853 -0.709094,-1.080524 -0.709094,-2.296115 0,-1.451955 0.945459,-2.127283 0.979226,-0.709094 2.329882,-0.709094 0.03377,2.600012 1.249357,4.153267 1.21559,1.519488 3.376639,1.519488 2.059751,0 3.241575,-1.046759 1.181824,-1.080524 1.181824,-2.836377 0,-1.755853 -1.31689,-2.802611 -1.283123,-1.080525 -4.187033,-2.262349 -3.37664,-1.384423 -4.828595,-3.106509 -1.451956,-1.722086 -1.451956,-4.322099 0,-1.992218 1.046759,-3.444173 1.046758,-1.485721 2.836377,-2.262349 1.789619,-0.810393 4.085735,-0.810393 3.444172,0 5.132492,1.148057 1.722087,1.148058 1.722087,2.701312 0,1.181824 -0.945459,1.890919 -0.911693,0.709094 -2.667546,0.709094 0,-0.979225 -0.37143,-2.025984 -0.337664,-1.080525 -1.148058,-1.789619 -0.776627,-0.709094 -2.127283,-0.709094 -1.587021,0 -2.633779,0.911692 -1.012992,0.877927 -1.012992,2.464948 0,1.114291 0.472729,1.958451 0.47273,0.84416 1.654554,1.620787 1.181824,0.776627 3.342873,1.654554 3.275341,1.316889 4.828596,2.937676 1.553254,1.620787 1.553254,4.153267 0,2.16105 -1.114291,3.781837 -1.080525,1.587021 -3.072743,2.498714 -1.958451,0.877926 -4.659763,0.877926 z m 17.389686,0 q -2.228582,0 -3.74807,-1.31689 -1.519488,-1.350656 -1.519488,-4.153267 0,-2.701312 1.890918,-4.018201 1.890918,-1.31689 5.706521,-1.451955 l 2.802612,-0.1013 v -1.924684 q 0,-1.148058 -0.168832,-2.025984 -0.168832,-0.911693 -0.709095,-1.418189 -0.506496,-0.506496 -1.620787,-0.506496 -1.553254,0 -2.05975,1.046758 -0.506496,1.046759 -0.506496,2.600013 -1.924685,0 -2.937677,-0.47273 -0.979226,-0.506495 -0.979226,-1.722086 0,-1.21559 0.877927,-1.958451 0.911693,-0.742861 2.397414,-1.080525 1.519488,-0.337664 3.342874,-0.337664 3.37664,0 5.06496,1.31689 1.68832,1.283123 1.68832,4.457164 v 8.677965 q 0,1.384422 0.438963,1.890918 0.472729,0.506496 1.620787,0.506496 h 0.101299 v 1.654554 h -5.605222 l -0.675328,-2.53248 h -0.270131 q -0.742861,0.911693 -1.418189,1.553254 -0.641562,0.641562 -1.519488,0.979226 -0.877927,0.337664 -2.194816,0.337664 z m 1.451955,-2.329882 q 1.68832,0 2.667546,-1.21559 1.012992,-1.21559 1.012992,-3.241574 v -2.600013 l -1.755853,0.101299 q -2.363648,0.101299 -3.275341,1.114291 -0.877926,0.979226 -0.877926,2.870144 0,2.971443 2.228582,2.971443 z m 11.953277,1.992218 v -1.654554 h 0.438963 q 0.574029,0 1.148058,-0.135065 0.607795,-0.168832 0.979225,-0.641562 0.405197,-0.506496 0.405197,-1.485721 V 75.588863 q 0,-0.911693 -0.405197,-1.350656 -0.37143,-0.472729 -0.979225,-0.607795 -0.574029,-0.168832 -1.148058,-0.168832 h -0.438963 v -1.654553 h 7.361075 v 21.745561 q 0,0.979225 0.37143,1.485721 0.405197,0.47273 0.979226,0.641562 0.607795,0.135065 1.181824,0.135065 h 0.438963 v 1.654554 z m 18.368935,0.337664 q -3.241575,0 -4.794829,-1.046758 -1.519488,-1.046759 -1.519488,-2.768845 0,-1.012992 0.47273,-1.553254 0.472729,-0.540263 1.114291,-0.709095 0.641561,-0.202598 1.148057,-0.202598 0,1.958451 0.911693,3.207808 0.945459,1.21559 2.735078,1.21559 1.789622,0 2.633782,-0.742861 0.84416,-0.74286 0.84416,-1.857152 0,-0.776627 -0.37143,-1.316889 -0.33767,-0.540263 -1.24936,-1.046759 -0.91169,-0.506496 -2.532479,-1.114291 -2.667546,-1.012992 -4.051968,-2.228582 -1.350656,-1.249357 -1.350656,-3.511706 0,-2.53248 1.890918,-3.815603 1.890918,-1.316889 4.997425,-1.316889 2.90391,0 4.2208,0.979225 1.31689,0.945459 1.31689,2.16105 0,1.046758 -0.74286,1.620787 -0.70909,0.574029 -2.29611,0.574029 0,-1.654554 -0.74287,-2.600013 -0.74286,-0.945459 -2.22858,-0.945459 -1.316887,0 -2.127281,0.607795 -0.776627,0.607795 -0.776627,1.722086 0,0.776627 0.405197,1.31689 0.405197,0.540262 1.384422,1.046758 0.979229,0.506496 2.667549,1.114291 2.43118,0.911693 3.74807,2.16105 1.35065,1.21559 1.35065,3.342874 0,2.735078 -1.89092,4.220799 -1.85715,1.485722 -5.166254,1.485722 z m 15.329974,0 q -2.22858,0 -3.74807,-1.31689 -1.51948,-1.350656 -1.51948,-4.153267 0,-2.701312 1.89091,-4.018201 1.89092,-1.31689 5.70653,-1.451955 l 2.80261,-0.1013 v -1.924684 q 0,-1.148058 -0.16884,-2.025984 -0.16883,-0.911693 -0.70909,-1.418189 -0.5065,-0.506496 -1.62079,-0.506496 -1.55325,0 -2.05975,1.046758 -0.50649,1.046759 -0.50649,2.600013 -1.92469,0 -2.93768,-0.47273 -0.97923,-0.506495 -0.97923,-1.722086 0,-1.21559 0.87793,-1.958451 0.91169,-0.742861 2.39742,-1.080525 1.51948,-0.337664 3.34287,-0.337664 3.37664,0 5.06496,1.31689 1.68832,1.283123 1.68832,4.457164 v 8.677965 q 0,1.384422 0.43896,1.890918 0.47273,0.506496 1.62079,0.506496 h 0.1013 v 1.654554 h -5.60522 l -0.67533,-2.53248 h -0.27013 q -0.74286,0.911693 -1.41819,1.553254 -0.64156,0.641562 -1.51949,0.979226 -0.87793,0.337664 -2.19482,0.337664 z m 1.45196,-2.329882 q 1.68832,0 2.66754,-1.21559 1.013,-1.21559 1.013,-3.241574 v -2.600013 l -1.75586,0.101299 q -2.36364,0.101299 -3.27534,1.114291 -0.87792,0.979226 -0.87792,2.870144 0,2.971443 2.22858,2.971443 z"
     id="text1"
     aria-label="Salsa"
     transform="matrix(1.2731053,0,0,1.2731053,-53.876017,59.079254)" /></g></g></svg>
