<svg width="50" height="50" version="1.1" viewBox="0 0 50 50" xmlns="http://www.w3.org/2000/svg" xmlns:xlink="http://www.w3.org/1999/xlink">
 <defs>
  <linearGradient id="linearGradient8534">
   <stop offset="0"/>
   <stop style="stop-opacity:0" offset="1"/>
  </linearGradient>
  <linearGradient id="linearGradient8524">
   <stop style="stop-color:#fff" offset="0"/>
   <stop style="stop-color:#fff;stop-opacity:0" offset="1"/>
  </linearGradient>
  <linearGradient id="linearGradient2452" x1="13.236" x2="7.7521" y1="37.752" y2="42.282" gradientTransform="matrix(.75516 .39514 -.39514 .75516 -25.912 6.5326)" gradientUnits="userSpaceOnUse" xlink:href="#linearGradient8524"/>
  <radialGradient id="radialGradient6969" cx="15.415" cy="35.357" r="7.5792" gradientTransform="matrix(1.5727,0,0,1.5326,-55.367,-21.358)" gradientUnits="userSpaceOnUse">
   <stop style="stop-color:#696969" offset="0"/>
   <stop offset="1"/>
  </radialGradient>
  <linearGradient id="linearGradient6945" x1="19.395" x2="23.109" y1="30.001" y2="33.439" gradientTransform="translate(-46.407,-1.8029)" gradientUnits="userSpaceOnUse">
   <stop style="stop-color:#bdbdbd" offset="0"/>
   <stop style="stop-color:#e2e2e2" offset=".33333"/>
   <stop style="stop-color:#a3a3a3" offset=".66667"/>
   <stop style="stop-color:#ddd" offset="1"/>
  </linearGradient>
  <linearGradient id="linearGradient6957" x1="37.018" x2="27.754" y1="19.24" y2="11.182" gradientTransform="translate(-49.305,1.8777)" gradientUnits="userSpaceOnUse">
   <stop style="stop-color:#6e3d09" offset="0"/>
   <stop style="stop-color:#ea8113" offset=".24242"/>
   <stop style="stop-color:#5c3307" offset=".62121"/>
   <stop style="stop-color:#e07c12" offset="1"/>
  </linearGradient>
  <linearGradient id="linearGradient6468">
   <stop style="stop-color:#fff" offset="0"/>
   <stop style="stop-color:#b9b9b0" offset="1"/>
  </linearGradient>
  <linearGradient id="linearGradient6458" x1="6.3052" x2="5.9846" y1="23.362" y2="31.57" gradientUnits="userSpaceOnUse" xlink:href="#linearGradient8524"/>
  <radialGradient id="radialGradient6474" cx="69.473" cy="19.598" r="3.5153" gradientTransform="matrix(1.3185,0,0,1.3185,-22.126,-6.2417)" gradientUnits="userSpaceOnUse" xlink:href="#linearGradient6468"/>
  <radialGradient id="radialGradient6498" cx="23" cy="33.938" r="18.25" gradientTransform="matrix(1 0 0 .28425 0 24.291)" gradientUnits="userSpaceOnUse" xlink:href="#linearGradient8534"/>
  <linearGradient id="linearGradient8530" x1="14.969" x2="39.525" y1="19.111" y2="46.986" gradientUnits="userSpaceOnUse" xlink:href="#linearGradient8524"/>
  <radialGradient id="radialGradient8548" cx="6.0242" cy="25.271" r="4.831" gradientTransform="matrix(.91616 .093187 -.10876 1.0693 3.2537 -3.0293)" gradientUnits="userSpaceOnUse">
   <stop style="stop-color:#5b676b" offset="0"/>
   <stop style="stop-color:#141718" offset="1"/>
  </radialGradient>
  <linearGradient id="linearGradient4330" x1="26.163" x2="24.329" y1="30.543" y2="30.985" gradientUnits="userSpaceOnUse" xlink:href="#linearGradient8534"/>
  <linearGradient id="linearGradient4351" x1="32.35" x2="21.213" y1="28.083" y2="30.293" gradientTransform="translate(-3.8365 .34597)" gradientUnits="userSpaceOnUse" xlink:href="#linearGradient8534"/>
  <radialGradient id="radialGradient4354" cx="18.558" cy="22.3" r="19.229" gradientTransform="matrix(1.7728,0,0,1.2967,-16.34,-6.616)" gradientUnits="userSpaceOnUse">
   <stop style="stop-color:#857c63" offset="0"/>
   <stop style="stop-color:#221f19" offset="1"/>
  </radialGradient>
 </defs>
 <style type="text/css">.specularity {opacity:0.5;}
	.low-specularity {opacity:0.25;}
	.full-specularity {opacity:1;}
	.black {fill:#000000;}
	.white {fill:#ffffff;}
	.outline-big {stroke-width:16;stroke:none;opacity:0.1;fill:none;}
	.outline-small {stroke-width:8;stroke:none;opacity:0.2;fill:none;}
	.stroke-highlight {fill:none;stroke:none;opacity:0.2;}
       	.base-shadow 	{fill:black;opacity:75;}</style>
 <g transform="matrix(.86948 0 0 .86948 4.4852 2.9636)">
  <path transform="matrix(1 0 0 1.5301 .125 -19.991)" d="m41.25 33.938a18.25 5.1875 0 1 1-36.5 0 18.25 5.1875 0 1 1 36.5 0z" style="color:#000000;fill-rule:evenodd;fill:url(#radialGradient6498)"/>
  <path d="m10.374 12.468s2.8745 5.9276 9.5992 5.7604c14.093-0.35355 16.564-7.705 16.917-8.7656 0.35355-1.0607 0.89453-0.9 1.0196 0.080267 4.5962 41.719-31.897 23.819-33.193 16.714 7.2478-2.1213 5.4801-6.1872 5.4801-6.1872z" style="color:#000000;fill-rule:evenodd;fill:url(#radialGradient4354);stroke-miterlimit:10;stroke:#2e3436"/>
  <path d="m15.738 30.066c6.7389 1.3478 10.171 0.09809 12.179-1.4528-0.53033-0.68501-1.4363-1.4363-1.4363-1.4363s2.3533 0.65394 3.182 1.7236c0.82629 1.0666 0.30681 1.7237 0.09056 3.0884-0.48141-1.1986-1.38-1.6481-1.5016-2.1243-1.8063 2.4969-6.3064 2.3932-12.514 0.20148z" style="color:#000000;fill-rule:evenodd;fill:url(#linearGradient4351)"/>
  <path d="m36.969 11.844c-0.56198 0.9269-1.4065 2.0332-2.6875 3.0938-2.6319 2.179-7.0506 4.1623-14.281 4.3438-4.2244 0.10505-6.9527-1.9341-8.625-3.75l-0.125 4.4688c0.13611 0.4188 0.41546 1.3905-0.0625 2.7188-0.51431 1.4293-2.1545 2.8914-4.9688 4 0.25033 0.52203 0.49548 1.0436 1.25 1.7812 1.028 1.0049 2.457 2.088 4.1562 3.0625 3.3984 1.9489 7.8016 3.4932 11.906 3.5625 4.1047 0.06929 7.8571-1.2346 10.438-5 2.3787-3.4712 3.6825-9.3479 3-18.281z" style="color:#000000;fill:none;opacity:.18539;stroke-miterlimit:10;stroke:url(#linearGradient8530)"/>
  <path transform="matrix(1.2778,0,0,1.2778,-75.127,-6.5078)" d="m72.655 21.837a3.182 3.182 0 1 1-6.364 0 3.182 3.182 0 1 1 6.364 0z" style="color:#000000;fill-rule:evenodd;fill:url(#radialGradient6474);stroke-miterlimit:10;stroke-width:.78261;stroke:#888a85"/>
  <path transform="rotate(-35.808,3.3629,26.345)" d="m10.43 27.229a4.331 6.0989 0 1 1-8.6621 0 4.331 6.0989 0 1 1 8.6621 0z" style="color:#000000;fill-rule:evenodd;fill:url(#radialGradient8548);stroke-miterlimit:10;stroke:#000"/>
  <path transform="matrix(.85185 0 0 .85185 -3.9268 3.3955)" d="m24.042 21.837a2.2981 2.2981 0 1 1-4.5962 0 2.2981 2.2981 0 1 1 4.5962 0z" style="color:#000000;fill-rule:evenodd;fill:#2e3436;stroke-miterlimit:10;stroke-width:1.1739;stroke:#000"/>
  <path transform="rotate(-36.833,3.3665,26.6)" d="m6.0938 22.156c-0.79825 0-1.5531 0.44617-2.1875 1.3438s-1.0938 2.2342-1.0938 3.7188 0.45938 2.8212 1.0938 3.7188 1.3893 1.3438 2.1875 1.3438c0.79825 0 1.5773-0.47639 2.2188-1.375s1.0938-2.2062 1.0938-3.6875-0.45228-2.7889-1.0938-3.6875-1.4205-1.375-2.2188-1.375z" style="color:#000000;fill:none;opacity:.2809;stroke-miterlimit:10;stroke:url(#linearGradient6458)"/>
  <path d="m5.8336 23.251a1.7678 2.1213 0 1 1-3.5355 0 1.7678 2.1213 0 1 1 3.5355 0z" style="color:#000000;fill-rule:evenodd;fill:#fff"/>
  <path transform="matrix(.76667 0 0 .76667 -2.5564 5.0298)" d="m23.158 20.953a1.7678 1.7678 0 1 1-3.5355 0 1.7678 1.7678 0 1 1 3.5355 0z" style="color:#000000;fill-rule:evenodd;fill:#fff"/>
  <path transform="matrix(1.5,0,0,1.5,-82.168,-10.919)" d="m72.655 21.837a3.182 3.182 0 1 1-6.364 0 3.182 3.182 0 1 1 6.364 0z" style="color:#000000;fill-rule:evenodd;fill:url(#radialGradient6474);stroke-miterlimit:10;stroke-width:.66667;stroke:#888a85"/>
  <path transform="translate(1.4142 .70711)" d="m24.042 21.837a2.2981 2.2981 0 1 1-4.5962 0 2.2981 2.2981 0 1 1 4.5962 0z" style="color:#000000;fill-rule:evenodd;fill:#2e3436;stroke-miterlimit:10;stroke:#000"/>
  <path transform="matrix(.9 0 0 .9 3.0229 2.6256)" d="m23.158 20.953a1.7678 1.7678 0 1 1-3.5355 0 1.7678 1.7678 0 1 1 3.5355 0z" style="color:#000000;fill-rule:evenodd;fill:#fff"/>
  <g transform="matrix(-.11485 -.38986 .38986 -.11485 24.715 29.689)">
   <path d="m-23.364 23.568 3.7101 3.4692c8.347-6.3808 17.094-20.099 17.094-20.099 1.9763-2.2424-0.11692-3.7505-2.1649-2.3979 0 0-12.97 10.115-18.639 19.028z" style="color:#000000;fill:url(#linearGradient6957);stroke-linecap:round;stroke-width:2.4604;stroke:#673907"/>
   <path d="m-30.45 32.814 2.2463 1.9338 8.4928-7.367 0.27506-0.70583 1.0944-0.01782c-0.4375-1.5625-2.9415-4.3835-4.8165-4.3835l0.08202 1.0901-0.66999 0.38003z" style="color:#000000;fill:url(#linearGradient6945);stroke-linecap:round;stroke-width:2.4604;stroke:#888a85"/>
   <path d="m-23.801 28.377-4.3649 5.2665" style="color:#000000;fill:none;stroke-linecap:round;stroke-linejoin:round;stroke-width:2.4604;stroke:#fff"/>
   <path d="m-45.341 42.77c10.444 0 18.37 1.2437 19.871-6.3547 1.2092-6.1233-7.2105-9.0574-11.383-3.5909-4.0193 5.266-8.4877 9.9456-8.4877 9.9456z" style="color:#000000;fill:url(#radialGradient6969)"/>
   <path transform="matrix(2.0699,0,0,2.0699,-44.75,-41.51)" d="m8.875 37.75a1.25 1.25 0 1 1-2.5 0 1.25 1.25 0 1 1 2.5 0z" style="color:#000000;fill:#fff;opacity:.52778"/>
   <path transform="matrix(1.3967,0,0,1.3967,-32.055,-25.877)" d="m8.875 37.75a1.25 1.25 0 1 1-2.5 0 1.25 1.25 0 1 1 2.5 0z" style="color:#000000;fill:#fff"/>
   <path d="m-38.544 40.909s3.7215 0.0943 6.1165-1.412c0.84735-0.53292 1.5158 0.64998 0.49382 1.0874-2.2074 0.94473-6.6104 0.32463-6.6104 0.32463z" style="color:#000000;fill:url(#linearGradient2452);opacity:.42778"/>
  </g>
  <path d="m23.003 31.737c1.4974 0.14309 2.8496-0.27221 3.4119-0.47405 0.09822-0.55539 0.53655-1.6213 2.0461-1.6915l-0.53033-0.92808s-1.9666 1.3479-4.0659 1.7457z" style="color:#000000;fill-rule:evenodd;fill:url(#linearGradient4330)"/>
 </g>
</svg>
