<svg width="50" height="50" version="1.1" viewBox="0 0 50 50" xmlns="http://www.w3.org/2000/svg">
 <g transform="matrix(.033332 0 0 .033332 5.0005 5.017)">
  <g transform="matrix(15.385,0,0,15.385,-10667,-16904)">
   <path d="m746.52 1098.7c-0.75464-0.019-1.4981 0.4529-1.7931 1.1382-0.29499 0.6853-0.12281 1.5407 0.4153 2.0629l16.196 16.248c0.52235 0.5232 1.3729 0.6967 2.0627 0.4206 0.68985-0.276 1.1775-0.985 1.1827-1.7192v-16.278c2e-3 -0.9808-0.90388-1.8741-1.8982-1.8724z" style="color:#000000;fill-rule:evenodd;text-decoration-line:none;text-indent:0;text-transform:none"/>
   <path d="m701.98 1098.7c-0.99608 0.014-1.8921 0.9251-1.8903 1.9213v74.157c-2e-3 0.9961 0.89428 1.9067 1.8903 1.9212h60.677c1.0064 0 1.9229-0.9148 1.9213-1.9212v-47.754c3e-3 -0.504-0.20246-1.0061-0.5578-1.3635l-26.248-26.372c-0.35229-0.3665-0.85519-0.5837-1.3635-0.5888z" style="color:#000000;fill-rule:evenodd;fill:#fff;text-decoration-line:none;text-indent:0;text-transform:none"/>
   <path d="m701.98 1098.7a1.9182 1.9182 0 0 0-1.8903 1.9213v74.157a1.9182 1.9182 0 0 0 1.8903 1.9212h60.677a1.9182 1.9182 0 0 0 1.9213-1.9212v-47.754a1.9182 1.9182 0 0 0-0.5578-1.3635l-26.248-26.372a1.9182 1.9182 0 0 0-1.3635-0.5888zm1.9213 3.8426h31.702l25.132 25.256v45.058h-56.834z" style="color:#000000;fill-rule:evenodd;text-decoration-line:none;text-indent:0;text-transform:none"/>
  </g>
  <g transform="matrix(.82909 0 0 .82909 69.527 78.587)">
   <g transform="matrix(2.96,0,0,2.96,-1723.5,-4747.9)">
    <path d="m643.41 1779.8v45.902h29.599v-6.9732h-20.564v-38.928h-9.0347" style="fill:#18a303"/>
    <path d="m678.47 1825.7h9.0347v-33.038h-9.0347v33.038m4.5174-35.882c2.8318 0 5.1916-2.3018 5.1916-5.213 0-2.8434-2.3598-5.213-5.1916-5.213-2.8992 0-5.1916 2.3696-5.1916 5.213 0 2.9112 2.2924 5.213 5.1916 5.213" style="fill:#18a303"/>
    <path d="m703.23 1796.5h-0.13485v-19.566h-9.0347v48.745h8.8325l0.20226-3.8589h0.13485c2.8318 3.182 5.6636 4.5359 10.316 4.5359 8.765 0 14.563-7.9211 14.563-17.806 0-9.5458-5.1916-16.587-14.159-16.587-4.7871 0-7.6188 1.4217-10.72 4.5359m-0.13485 11.916c0-5.6869 2.5621-9.4782 7.4166-9.4782 5.3939 0 8.0908 3.859 8.0908 10.155 0 6.2286-2.6295 10.291-7.956 10.291-4.6522 0-7.5514-3.6559-7.5514-9.4782v-1.4895" style="fill:#18a303"/>
    <path d="m752.36 1792c-4.3151 0.2707-8.4279 2.9112-10.316 6.567h-0.13484l-0.20227-5.89h-8.8325v33.038h9.0347v-12.457c0-6.6347 1.2136-9.0043 3.3037-10.494 1.8204-1.2863 3.978-1.8279 6.9446-1.9633l0.20227-8.8012" style="fill:#18a303"/>
    <path d="m785.6 1807.2c0-8.1918-4.9893-15.233-13.62-15.233-10.383 0-17.058 7.1764-17.058 18.076 0 10.629 6.8772 16.316 17.058 16.316 4.7871 0 8.1582-0.7447 11.327-2.1664l-0.94392-6.7701c-2.9666 1.2186-6.0007 1.9633-9.237 1.9633-5.4613 0-8.9673-2.505-9.3044-7.6502h21.373c0.2697-1.2187 0.40454-3.1143 0.40454-4.5361m-14.563-8.2596c3.9106 0 5.731 3.182 5.8658 6.567h-12.743c0.67423-3.7913 3.3038-6.567 6.8772-6.567" style="fill:#18a303"/>
    <path d="m813.02 1779.1c-12.136 0-22.115 8.869-22.115 23.628s9.9787 23.628 22.115 23.628c12.136 0 22.115-8.8688 22.115-23.628 0-14.759-9.9787-23.628-22.115-23.628m0 4.6038c9.0347 0 15.912 6.7701 15.912 19.024 0 12.254-6.8772 19.024-15.912 19.024-9.0347 0-15.912-6.7703-15.912-19.024 0-12.254 6.8772-19.024 15.912-19.024"/>
    <path d="m843.77 1790.8v2.0987h-5.3264v4.333h5.3264v28.435h5.6636v-28.435h8.3605v-4.333h-8.3605v-2.9788c0-5.89 2.4947-9.3428 7.012-9.3428 2.0901 0 3.4386 0.3385 4.7196 0.8124l0.53938-4.1975c-1.2136-0.4739-3.506-0.9478-5.3264-0.9478-8.0234 0-12.608 5.213-12.608 14.556"/>
    <path d="m862.6 1790.8v2.0987h-5.3264v4.333h5.3264v28.435h5.6636v-28.435h8.3605v-4.333h-8.3605v-2.9788c0-5.89 2.4947-9.3428 7.012-9.3428 2.0901 0 3.4386 0.3385 4.7196 0.8124l0.53939-4.1975c-1.2136-0.4739-3.506-0.9478-5.3264-0.9478-8.0234 0-12.608 5.213-12.608 14.556"/>
    <path d="m883.19 1825.7h5.6636v-32.768h-5.6636v32.768m2.8318-37.574c1.9553 0 3.506-1.5571 3.506-3.5205 0-1.9633-1.5507-3.5205-3.506-3.5205s-3.506 1.5572-3.506 3.5205c0 1.9634 1.5507 3.5205 3.506 3.5205"/>
    <path d="m900.63 1809.2c0-8.2596 4.9219-12.592 11.327-12.592 3.3712 0 6.3378 0.8124 8.765 1.9633l0.53939-4.3329c-2.0227-1.0155-5.259-1.9634-8.8325-1.9634-10.114 0-17.732 6.1609-17.732 17.67 0 10.832 6.8772 16.451 15.979 16.451 4.0454 0 6.9446-0.4738 10.248-1.8956l-0.53938-4.3329c-2.8318 1.2864-5.8658 1.8956-8.6976 1.8956-6.5401 0-11.057-4.1298-11.057-12.863"/>
    <path d="m953.2 1810.6c0.13484-1.2186 0.20227-2.2341 0.20227-3.2497 0-8.395-4.3825-15.098-12.81-15.098-9.1022 0-15.777 7.5826-15.777 17.67 0 11.103 6.6749 16.451 15.777 16.451 4.0454 0 7.0794-0.6092 10.248-1.8956l-0.53938-4.3329c-2.4947 1.2186-6.0681 1.8956-8.8999 1.8956-6.5401 0-10.788-3.9943-10.923-11.442h22.722m-13.08-14.014c4.9893 0 7.6863 4.1298 7.6863 9.5459h-17.058c0.80907-5.7546 3.978-9.5459 9.3718-9.5459"/>
   </g>
   <g transform="matrix(2.9031,0,0,3.018,-1723.5,-4747.9)">
    <path d="m669.8 1801.8h-13.791v1.9061h5.6903v17.099h2.3546v-17.099h5.7464v-1.9061"/>
    <path d="m674.35 1809.4v-8.8579h-2.3546v20.182h2.3546v-7.4563c0-2.8031 1.7099-4.485 3.8122-4.485 2.1864 0 2.719 1.2334 2.719 3.8403v8.101h2.3546v-8.8298c0-3.3077-1.5137-5.0176-4.4009-5.0176-2.0182 0-3.4759 1.1213-4.4289 2.5228h-0.0561"/>
    <path d="m698.2 1814.5c0.0561-0.5046 0.0841-0.9251 0.0841-1.3455 0-3.4759-1.822-6.251-5.3259-6.251-3.7842 0-6.5593 3.1395-6.5593 7.3162 0 4.5971 2.7751 6.8115 6.5593 6.8115 1.6819 0 2.9433-0.2522 4.2607-0.7848l-0.22425-1.794c-1.0372 0.5045-2.5228 0.7848-3.7001 0.7848-2.719 0-4.485-1.6538-4.5411-4.7372h9.4465m-5.4381-5.8025c2.0743 0 3.1956 1.7099 3.1956 3.9524h-7.0919c0.33637-2.3826 1.6538-3.9524 3.8963-3.9524"/>
    <path d="m707.96 1802v18.585c1.3735 0.1963 3.3918 0.3084 4.9055 0.3084 5.7464 0 11.156-3.3357 11.156-10.231 0-6.0548-4.1486-9.0541-11.1-9.0541-1.5417 0-3.3357 0.1121-4.9615 0.3924m2.3546 1.6819c0.86896-0.1401 1.822-0.1682 2.8592-0.1682 5.354 0 8.2692 2.8592 8.2692 7.4283 0 5.41-3.7562 8.045-8.2972 8.045-0.86897 0-1.8501-0.028-2.8312-0.1122v-15.193"/>
    <path d="m732.78 1806.9c-4.0926 0-6.5313 3.0834-6.5313 7.0639 0 3.9804 2.4387 7.0638 6.5313 7.0638s6.5313-3.0834 6.5313-7.0638c0-3.9805-2.4387-7.0639-6.5313-7.0639m0 12.334c-2.8312 0-4.0645-2.4387-4.0645-5.2698 0-2.8312 1.2334-5.2699 4.0645-5.2699s4.0645 2.4387 4.0645 5.2699c0 2.8311-1.2334 5.2698-4.0645 5.2698"/>
    <path d="m744.1 1813.9c0-3.4198 2.0463-5.2138 4.7092-5.2138 1.4016 0 2.6349 0.3364 3.6441 0.8129l0.22425-1.794c-0.84094-0.4205-2.1864-0.8129-3.6721-0.8129-4.2047 0-7.3722 2.5508-7.3722 7.3162 0 4.4849 2.8592 6.8115 6.6434 6.8115 1.6819 0 2.8872-0.1962 4.2608-0.7848l-0.22425-1.794c-1.1773 0.5326-2.4387 0.7848-3.616 0.7848-2.719 0-4.5971-1.7099-4.5971-5.3259"/>
    <path d="m764.39 1818.5 0.0841 2.2425h2.2705v-13.567h-2.3546v7.4563c0 2.8031-1.7099 4.485-3.8122 4.485-2.1864 0-2.719-1.2334-2.719-3.8403v-8.101h-2.3546v8.8299c0 3.3076 1.5137 5.0175 4.4009 5.0175 2.0182 0 3.4759-1.1212 4.4289-2.5228h0.0561"/>
    <path d="m787.57 1812.4v8.3813h2.3546v-9.1101c0-3.0274-1.4016-4.7373-4.0926-4.7373-1.9342 0-3.4759 1.2334-4.3729 3.0554h-0.0841c-0.5326-1.9061-1.6538-3.0554-3.8122-3.0554-1.9342 0-3.1675 1.0372-4.1206 2.5228h-0.0561l-0.0841-2.2425h-2.2705v13.567h2.3546v-6.8957c0-3.0554 1.3455-5.0456 3.4478-5.0456 1.766 0 2.4668 1.2334 2.4668 3.56v8.3813h2.3546v-6.8957c0-3.1114 1.3455-5.0456 3.4478-5.0456 1.766 0 2.4668 1.2334 2.4668 3.56"/>
    <path d="m804.85 1814.5c0.0561-0.5046 0.0841-0.9251 0.0841-1.3455 0-3.4759-1.822-6.251-5.3259-6.251-3.7842 0-6.5593 3.1395-6.5593 7.3162 0 4.5971 2.7751 6.8115 6.5593 6.8115 1.6819 0 2.9433-0.2522 4.2608-0.7848l-0.22425-1.794c-1.0372 0.5045-2.5228 0.7848-3.7001 0.7848-2.719 0-4.485-1.6538-4.541-4.7372h9.4465m-5.4381-5.8025c2.0743 0 3.1956 1.7099 3.1956 3.9524h-7.0919c0.33638-2.3826 1.6538-3.9524 3.8963-3.9524"/>
    <path d="m810.62 1809.4-0.0841-2.2425h-2.2705v13.567h2.3546v-7.4563c0-2.8031 1.7099-4.485 3.8122-4.485 2.1864 0 2.719 1.2334 2.719 3.8403v8.101h2.3546v-8.8298c0-3.3077-1.5137-5.0176-4.4009-5.0176-2.0182 0-3.4759 1.1213-4.4289 2.5228h-0.0561"/>
    <path d="m830.01 1807.2h-3.2516v-2.9993h-2.3546v2.9993h-2.1584v1.794h2.1584v8.4374c0 2.4668 1.3455 3.616 3.5319 3.616 1.1493 0 1.9061-0.1121 2.4948-0.3644l-0.25228-1.7099c-0.47653 0.1962-0.9811 0.2803-1.5137 0.2803-1.3735 0-1.9061-0.7848-1.9061-2.4106v-7.8488h3.2516v-1.794"/>
    <path d="m842.15 1820.8v-8.5775h6.8116v-1.9061h-6.8116v-6.6154h7.7646v-1.9061h-10.119v19.005h2.3546"/>
    <path d="m858.43 1806.9c-4.0926 0-6.5313 3.0834-6.5313 7.0639 0 3.9804 2.4387 7.0638 6.5313 7.0638s6.5313-3.0834 6.5313-7.0638c0-3.9805-2.4387-7.0639-6.5313-7.0639m0 12.334c-2.8312 0-4.0645-2.4387-4.0645-5.2698 0-2.8312 1.2334-5.2699 4.0645-5.2699s4.0645 2.4387 4.0645 5.2699c0 2.8311-1.2334 5.2698-4.0645 5.2698"/>
    <path d="m877.01 1818.5 0.0841 2.2425h2.2705v-13.567h-2.3546v7.4563c0 2.8031-1.7099 4.485-3.8122 4.485-2.1864 0-2.719-1.2334-2.719-3.8403v-8.101h-2.3546v8.8299c0 3.3076 1.5137 5.0175 4.4009 5.0175 2.0182 0 3.4759-1.1212 4.4289-2.5228h0.0561"/>
    <path d="m886.01 1809.4-0.0841-2.2425h-2.2705v13.567h2.3546v-7.4563c0-2.8031 1.7099-4.485 3.8122-4.485 2.1864 0 2.719 1.2334 2.719 3.8403v8.101h2.3546v-8.8298c0-3.3077-1.5137-5.0176-4.4009-5.0176-2.0182 0-3.4759 1.1213-4.4289 2.5228h-0.0561"/>
    <path d="m908.54 1809.3c-1.0091-1.6539-2.4668-2.3827-4.3729-2.3827-3.6441 0-6.1108 3.0274-6.1108 7.3162 0 4.0925 2.2145 6.8115 5.9426 6.8115 1.9622 0 3.4759-0.897 4.5411-2.3826h0.0561l0.0841 2.1023h2.2705v-20.182h-2.3546v8.7178h-0.0561m0.0561 5.4941c0 2.3546-1.4576 4.4569-3.8683 4.4569-2.719 0-4.2047-2.1303-4.2047-5.2418 0-3.1956 1.4296-5.2979 4.1486-5.2979 2.1584 0 3.9244 1.8501 3.9244 4.457v1.6258"/>
    <path d="m919.95 1806.9c-1.3735 0-2.7471 0.2243-4.2047 0.7849l0.22425 1.794c1.3735-0.5326 2.4948-0.7849 3.6441-0.7849 2.0743 0 2.9433 1.2053 2.9433 3.1115v0.3924c-0.64471-0.1121-1.2614-0.1682-2.2425-0.1682-3.4478 0-6.0548 1.7099-6.0548 4.6812 0 2.7751 2.0463 4.3168 4.2327 4.3168 1.794 0 3.2796-0.925 4.0085-2.3826h0.0561l0.0841 2.1023h2.2705v-9.1942c0-3.0554-1.822-4.6532-4.9615-4.6532m2.6069 8.0169c0 2.691-1.3735 4.3168-3.3637 4.3168-1.4296 0-2.4107-1.0371-2.4107-2.691 0-1.794 1.1493-2.9713 3.8963-2.9713 0.70078 0 1.3175 0.084 1.8781 0.1682v1.1773"/>
    <path d="m935.4 1807.2h-3.2516v-2.9993h-2.3546v2.9993h-2.1584v1.794h2.1584v8.4374c0 2.4668 1.3455 3.616 3.5319 3.616 1.1493 0 1.9061-0.1121 2.4948-0.3644l-0.25228-1.7099c-0.47653 0.1962-0.9811 0.2803-1.5137 0.2803-1.3735 0-1.9061-0.7848-1.9061-2.4106v-7.8488h3.2516v-1.794"/>
    <path d="m938.84 1820.8h2.3546v-13.567h-2.3546v13.567m1.1773-15.557c0.81291 0 1.4576-0.6447 1.4576-1.4576s-0.64471-1.4576-1.4576-1.4576c-0.8129 0-1.4576 0.6447-1.4576 1.4576s0.64472 1.4576 1.4576 1.4576"/>
    <path d="m951.01 1806.9c-4.0926 0-6.5313 3.0834-6.5313 7.0639 0 3.9804 2.4387 7.0638 6.5313 7.0638s6.5313-3.0834 6.5313-7.0638c0-3.9805-2.4387-7.0639-6.5313-7.0639m0 12.334c-2.8312 0-4.0645-2.4387-4.0645-5.2698 0-2.8312 1.2334-5.2699 4.0645-5.2699 2.8312 0 4.0645 2.4387 4.0645 5.2699 0 2.8311-1.2334 5.2698-4.0645 5.2698"/>
    <path d="m963.2 1809.4-0.0841-2.2425h-2.2705v13.567h2.3546v-7.4563c0-2.8031 1.7099-4.485 3.8122-4.485 2.1864 0 2.719 1.2334 2.719 3.8403v8.101h2.3546v-8.8298c0-3.3077-1.5137-5.0176-4.4009-5.0176-2.0182 0-3.4759 1.1213-4.4289 2.5228h-0.0561"/>
   </g>
  </g>
 </g>
</svg>
