<svg width="50" height="50" version="1.1" viewBox="0 0 50 50" xmlns="http://www.w3.org/2000/svg">
 <defs>
  <style>.cls-1{fill:#003545;}</style>
 </defs>
 <style type="text/css">.specularity {opacity:0.5;}
	.low-specularity {opacity:0.25;}
	.full-specularity {opacity:1;}
	.black {fill:#000000;}
	.white {fill:#ffffff;}
	.outline-big {stroke-width:16;stroke:none;opacity:0.1;fill:none;}
	.outline-small {stroke-width:8;stroke:none;opacity:0.2;fill:none;}
	.stroke-highlight {fill:none;stroke:none;opacity:0.2;}
       	.base-shadow 	{fill:black;opacity:75;}</style>
 <g transform="matrix(.12909 0 0 .12909 5 8.6843)">
  <path class="cls-1" transform="translate(-5.58,-6.4)" d="m61.74 214.91 11.26 43.55h-8.5l-7.5-31.37-14.14 31.37h-7.18l-14.06-31.19-7.72 31.19h-8.32l11.16-43.55h7.36l15.2 33.72 15.14-33.72z"/>
  <path class="cls-1" transform="translate(-5.58,-6.4)" d="m105.11 231.74v-5.07h8.21v31.79h-8.21v-5.12c-2.17 3.68-6.63 5.79-12.06 5.79-11.35 0-17.68-8-17.68-17.2 0-8.87 6-16 16.47-16 5.97 0.07 10.92 2.07 13.27 5.81zm-21 10.62c0 5.85 3.68 10.86 10.8 10.86 6.87 0 10.61-4.89 10.61-10.68s-3.86-10.74-11-10.74c-6.84 0-10.4 4.94-10.4 10.56z"/>
  <path class="cls-1" transform="translate(-5.58,-6.4)" d="m131.83 258.46h-8.2v-31.79h8.2v7.12a12.58 12.58 0 0 1 11.46-7.79 14.84 14.84 0 0 1 5.13 0.84l-1.75 6a18 18 0 0 0-4.34-0.6c-5.92 0-10.5 4.46-10.5 11z"/>
  <path class="cls-1" transform="translate(-5.58,-6.4)" d="m152.52 218.28a4.17 4.17 0 0 1 4.4-4.28 4.33 4.33 0 0 1 4.47 4.41 4.15 4.15 0 0 1-4.47 4.22 4.22 4.22 0 0 1-4.4-4.35zm0.36 8.39h8.21v23.23c0 1.44 0.3 2.47 1.5 2.47a8.85 8.85 0 0 0 1.57-0.18l1.27 6a14.36 14.36 0 0 1-5.43 1c-3.44 0-7.12-1-7.12-8.81z"/>
  <path class="cls-1" transform="translate(-5.58,-6.4)" d="m197.76 231.74v-5.07h8.24v31.79h-8.21v-5.12c-2.17 3.68-6.63 5.79-12.06 5.79-11.34 0-17.68-8-17.68-17.2 0-8.87 6-16 16.47-16 5.94 0.07 10.89 2.07 13.24 5.81zm-21 10.62c0 5.85 3.68 10.86 10.8 10.86 6.88 0 10.62-4.89 10.62-10.68s-3.87-10.74-11-10.74c-6.85 0-10.41 4.94-10.41 10.56z"/>
  <path class="cls-1" transform="translate(-5.58,-6.4)" d="m218.57 214.91h19.67c16.53 0 24.79 9.11 24.67 21.77 0.12 13.16-9 21.78-23.22 21.78h-21.12zm5.43 3.86v35.89h15c13.15 0 18.16-8.87 18.16-18.1 0-10.43-6.27-17.79-18.16-17.79z"/>
  <path class="cls-1" transform="translate(-5.58,-6.4)" d="m296.45 258.46h-25v-43.55h22.55c8.62 0 16.83 1.62 16.71 11.28 0 6.81-4.23 8.69-8.69 9.41 6.33 0.54 10.14 4.58 10.14 11.1 0.04 9.77-8.53 11.76-15.71 11.76zm-1.87-24.55c8.63 0 10.56-3.32 10.56-7.54 0-6.34-3.86-7.78-10.56-7.78h-17.92v15.32zm0.24 3.68h-18.16v17.19h18.94c5.31 0 10.92-1.75 10.92-8.44 0-7.72-6.45-8.75-11.7-8.75z"/>
  <path class="cls-1" transform="translate(-5.58,-6.4)" d="m314.08 7.35a4.18 4.18 0 0 0-2.84-0.95c-2.83 0-6.49 1.92-8.46 2.95l-0.78 0.4a26.86 26.86 0 0 1-10.57 2.66c-3.76 0.12-7 0.34-11.22 0.78-25 2.57-36.15 21.73-46.89 40.26-5.85 10.08-11.89 20.55-20.17 28.55a54.4 54.4 0 0 1-5.45 4.63c-8.57 6.37-19.33 10.92-27.7 14.14-8.06 3.08-16.86 5.85-25.36 8.53-7.79 2.45-15.14 4.77-21.9 7.28-3.05 1.13-5.64 2-7.93 2.76-6.16 2-10.6 3.53-17.09 8-2.53 1.73-5.07 3.6-6.79 5a71.62 71.62 0 0 0-13.55 14.27 84.25 84.25 0 0 1-11.38 13.66c-1.37 1.34-3.8 2-7.44 2-4.26 0-9.43-0.88-14.9-1.81-5.64-1-11.47-1.95-16.47-1.95-4.06 0-7.17 0.66-9.49 2 0 0-3.91 2.28-5.56 5.23l1.62 0.73a33.21 33.21 0 0 1 6.92 5 34.72 34.72 0 0 0 7.2 5.12 6.18 6.18 0 0 1 2.22 1.41c-0.68 1-1.68 2.29-2.73 3.67-5.77 7.55-9.14 12.32-7.21 14.92a6.07 6.07 0 0 0 3 0.68c12.58 0 19.34-3.27 27.89-7.41 2.48-1.2 5-2.43 8-3.7 5-2.17 10.38-5.63 16.09-9.29 7.47-4.87 15.28-9.87 22.86-12.28a62.3 62.3 0 0 1 19.23-2.7c8 0 16.42 1.07 24.54 2.11 6.05 0.78 12.32 1.58 18.47 1.95 2.39 0.14 4.6 0.21 6.75 0.21a78.21 78.21 0 0 0 8.61-0.45l0.69-0.24c4.31-2.65 6.33-8.34 8.29-13.84 1.26-3.54 2.32-6.72 4-8.74a2.55 2.55 0 0 1 0.32-0.27 0.4 0.4 0 0 1 0.49 0.08v0.16c-1 21.51-9.66 35.17-18.42 47.31l-5.85 6.27s8.19 0 12.85-1.8c17-5.08 29.83-16.28 39.17-34.14a145.7 145.7 0 0 0 6.17-14.09c0.16-0.4 1.63-1.14 1.49 0.93-0.05 0.61-0.09 1.29-0.14 2 0 0.42 0 0.85-0.08 1.28-0.24 3-0.95 9.34-0.95 9.34l5.25-2.81c12.66-8 22.42-24.14 29.82-49.25 3.08-10.46 5.34-20.85 7.33-30 2.38-11 4.43-20.43 6.78-24.09 3.69-5.74 9.32-9.62 14.77-13.39 0.74-0.51 1.49-1 2.22-1.54 6.85-4.81 13.66-10.36 15.16-20.71v-0.23c1.09-7.72 0.17-9.69-0.88-10.59z"/>
 </g>
</svg>
