<svg width="50" height="50" version="1.1" viewBox="0 0 50 50" xmlns="http://www.w3.org/2000/svg">
	<style type="text/css">.specularity {opacity:0.5;}
	.low-specularity {opacity:0.25;}
	.full-specularity {opacity:1;}
	.black {fill:#000000;}
	.white {fill:#ffffff;}
	.outline-big {stroke-width:16;stroke:none;opacity:0.1;fill:none;}
	.outline-small {stroke-width:8;stroke:none;opacity:0.2;fill:none;}
	.stroke-highlight {fill:none;stroke:none;opacity:0.2;}
       	.base-shadow 	{fill:black;opacity:75;}</style>
	<g transform="matrix(.92814 0 0 .92814 1.7965 2.4771)">
		<rect x="3.9515" y="5.3196" width="42.097" height="37.894" rx="5" ry="5" fill="#00002b" stroke="#000"/>
		<g transform="translate(-.75927)">
			<path d="m8.8727 13.932q-0.44-8e-3 -0.856-0.072-0.416-0.072-0.672-0.192v-0.68q0.272 0.128 0.696 0.224t0.832 0.104v-1.616q-0.792-0.216-1.16-0.544t-0.368-0.896q0-0.592 0.408-0.928 0.416-0.336 1.12-0.376v-0.704h0.512v0.696q0.424 8e-3 0.768 0.096 0.352 0.08 0.64 0.2l-0.216 0.592q-0.256-0.104-0.568-0.176-0.304-0.08-0.624-0.104v1.608q0.528 0.152 0.88 0.328 0.352 0.168 0.528 0.424 0.184 0.248 0.184 0.648 0 0.56-0.416 0.912-0.416 0.344-1.176 0.424v0.888h-0.512zm0-4.36q-0.432 0.032-0.64 0.2-0.2 0.168-0.2 0.432 0 0.32 0.176 0.496 0.184 0.168 0.664 0.288zm0.512 3.704q0.472-0.048 0.688-0.216 0.216-0.176 0.216-0.448 0-0.304-0.192-0.456-0.192-0.16-0.712-0.288z" fill="#fff" aria-label="$"/>
			<path d="m11.576 12.864 3.016-1.256-3.016-1.432v-0.624l3.768 1.88v0.4l-3.768 1.656z" fill="#0f0" aria-label="&gt;"/>
		</g>
		<path d="m8.4334 20.247q1.84 0 2.68 0.8 0.85333 0.78666 0.85333 2.1733 0 0.82666-0.34667 1.56-0.34667 0.72-1.16 1.16-0.8 0.44-2.1867 0.44h-0.86666v3.3867h-2.0133v-9.52zm-0.10667 1.6533h-0.92v2.8267h0.66666q0.85333 0 1.3467-0.33333 0.50667-0.34667 0.50667-1.1067 0-1.3867-1.6-1.3867zm14.08 3.0933q0 1.48-0.49333 2.5867-0.48 1.0933-1.48 1.7067-1 0.61333-2.56 0.61333-1.5467 0-2.56-0.61333-1-0.61333-1.4933-1.72-0.48-1.1067-0.48-2.5867 0-1.48 0.48-2.5733 0.49333-1.0933 1.4933-1.6933 1.0133-0.61333 2.5733-0.61333 1.5467 0 2.5467 0.61333 1 0.6 1.48 1.7067 0.49333 1.0933 0.49333 2.5733zm-6.9466 0q0 1.4933 0.57333 2.36 0.57333 0.85333 1.84 0.85333 1.2933 0 1.8533-0.85333 0.56-0.86666 0.56-2.36 0-1.5067-0.56-2.36-0.56-0.85333-1.84-0.85333-1.28 0-1.8533 0.85333-0.57333 0.85333-0.57333 2.36zm14.533 2.1333q0 1.2667-0.92 2.0267-0.90666 0.74666-2.5867 0.74666-1.5067 0-2.6933-0.57333v-1.88q0.68 0.29333 1.4 0.54666 0.73333 0.24 1.4533 0.24 0.74666 0 1.0533-0.28 0.32-0.29333 0.32-0.73333 0-0.36-0.25333-0.61333-0.24-0.25333-0.65333-0.46667-0.41333-0.22667-0.94666-0.48-0.33333-0.16-0.72-0.37333-0.38667-0.22667-0.74666-0.54666-0.34667-0.33333-0.57333-0.8-0.22667-0.46666-0.22667-1.12 0-1.28 0.86666-1.9867 0.86666-0.72 2.36-0.72 0.74666 0 1.4133 0.17333 0.68 0.17333 1.4133 0.49333l-0.65333 1.5733q-0.65333-0.26667-1.1733-0.41333-0.52-0.14667-1.0667-0.14667-0.57333 0-0.88 0.26667-0.30666 0.26667-0.30666 0.69333 0 0.50667 0.45333 0.8 0.45333 0.29333 1.3467 0.72 0.73333 0.34666 1.24 0.72 0.52 0.37333 0.8 0.88 0.28 0.50667 0.28 1.2533zm5.2933 2.64h-4.3333v-1.1467l1.16-0.53333v-6.16l-1.16-0.53333v-1.1467h4.3333v1.1467l-1.16 0.53333v6.16l1.16 0.53333zm9.32 0h-2.3067l-2.2133-3.6-2.2133 3.6h-2.16l3.16-4.9067-2.96-4.6133h2.2267l2.0533 3.4267 2.0133-3.4267h2.1733l-2.9867 4.72z" fill="#fff" aria-label="POSIX"/>
	</g>
</svg>
