<svg width="50" height="50" version="1.1" viewBox="0 0 50 50" xmlns="http://www.w3.org/2000/svg">
 <style type="text/css">.specularity {opacity:0.5;}
	.low-specularity {opacity:0.25;}
	.full-specularity {opacity:1;}
	.black {fill:#000000;}
	.white {fill:#ffffff;}
	.outline-big {stroke-width:16;stroke:none;opacity:0.1;fill:none;}
	.outline-small {stroke-width:8;stroke:none;opacity:0.2;fill:none;}
	.stroke-highlight {fill:none;stroke:none;opacity:0.2;}
       	.base-shadow 	{fill:black;opacity:75;}</style>
 <g transform="matrix(.74074 0 0 .74074 -146.11 -207.12)">
  <rect x="205" y="287.36" width="13" height="52" style="fill:#115c77;stroke-width:2;stroke:#000"/>
  <rect x="222" y="287.36" width="35" height="52" style="fill:#115c77;stroke-width:2;stroke:#000"/>
  <path d="m255 288.36v50h3v-50z" style="fill:#115c77"/>
  <path d="m204 288.36v50h3v-50z" style="fill:#115c77"/>
  <g style="fill:#fff;stroke-width:1px" aria-label="Shotcut">
   <path d="m229.21 295.06q0 0.82333-0.598 1.2827-0.598 0.45934-1.612 0.45934-0.52 0-0.962-0.078t-0.73667-0.21667v-0.74533q0.312 0.13866 0.77134 0.25133 0.468 0.11267 0.962 0.11267 0.69333 0 1.04-0.26867 0.35533-0.26867 0.35533-0.728 0-0.30333-0.13-0.51133t-0.45067-0.38134q-0.312-0.182-0.87533-0.38133-0.78867-0.286-1.196-0.702-0.39867-0.416-0.39867-1.1353 0-0.494 0.25134-0.84066 0.25133-0.35534 0.69333-0.546 0.45067-0.19067 1.0313-0.19067 0.51134 0 0.936 0.0953 0.42467 0.0953 0.77134 0.25134l-0.24267 0.66733q-0.32067-0.13867-0.702-0.234-0.37267-0.0953-0.78-0.0953-0.58067 0-0.87533 0.25133-0.29467 0.24267-0.29467 0.65 0 0.312 0.13 0.52t0.42467 0.37267q0.29466 0.16467 0.79733 0.35533 0.546 0.19934 0.91867 0.43334 0.38133 0.22533 0.572 0.546 0.19933 0.32066 0.19933 0.806z"/>
   <path d="m231.12 292.06q0 0.34667-0.0433 0.65h0.052q0.22534-0.35533 0.60667-0.53733 0.39-0.18201 0.84067-0.18201 0.84933 0 1.274 0.40734 0.42467 0.39867 0.42467 1.2913v3.0247h-0.75401v-2.9727q0-1.118-1.04-1.118-0.78 0-1.0747 0.442-0.286 0.43334-0.286 1.248v2.4007h-0.76267v-6.5867h0.76267z"/>
   <path d="m239.75 294.39q0 1.1527-0.58933 1.7853-0.58067 0.63267-1.5773 0.63267-0.61534 0-1.1007-0.27734-0.47667-0.286-0.754-0.82333-0.27733-0.546-0.27733-1.3173 0-1.1527 0.58066-1.7767 0.58067-0.624 1.5773-0.624 0.63266 0 1.1093 0.286 0.48533 0.27733 0.754 0.81467 0.27733 0.52866 0.27733 1.3zm-3.51 0q0 0.82333 0.32067 1.3087 0.32933 0.47667 1.04 0.47667 0.702 0 1.0313-0.47667 0.32934-0.48533 0.32934-1.3087 0-0.82334-0.32934-1.2913-0.32933-0.468-1.04-0.468-0.71066 0-1.0313 0.468t-0.32067 1.2913z"/>
   <path d="m242.51 296.18q0.17333 0 0.35533-0.026 0.182-0.0347 0.29467-0.0693v0.58067q-0.12133 0.0607-0.34667 0.0953-0.22533 0.0433-0.43333 0.0433-0.364 0-0.676-0.12134-0.30333-0.13-0.494-0.442t-0.19067-0.87533v-2.704h-0.65866v-0.364l0.66733-0.30334 0.30333-0.988h0.45067v1.066h1.3433v0.58934h-1.3433v2.6867q0 0.42466 0.19933 0.63266 0.208 0.19934 0.52867 0.19934z"/>
   <path d="m245.95 296.81q-0.61533 0-1.1007-0.25134-0.47667-0.25133-0.754-0.78-0.26867-0.52866-0.26867-1.352 0-0.858 0.286-1.3953t0.77133-0.78867q0.494-0.25133 1.118-0.25133 0.35534 0 0.68467 0.078 0.32933 0.0693 0.53733 0.17333l-0.234 0.63267q-0.208-0.078-0.48533-0.14733-0.27733-0.0693-0.52-0.0693-1.3693 0-1.3693 1.7593 0 0.84066 0.32933 1.2913 0.338 0.442 0.99667 0.442 0.38133 0 0.66733-0.078 0.29467-0.078 0.53733-0.19067v0.676q-0.234 0.12134-0.52 0.182-0.27733 0.0693-0.676 0.0693z"/>
   <path d="m252.13 292.07v4.6453h-0.624l-0.11266-0.61533h-0.0347q-0.22533 0.364-0.624 0.53733-0.39867 0.16467-0.84933 0.16467-0.84067 0-1.2653-0.39867-0.42466-0.40733-0.42466-1.2913v-3.042h0.77133v2.99q0 1.1093 1.0313 1.1093 0.77134 0 1.066-0.43333 0.30334-0.43334 0.30334-1.248v-2.418z"/>
   <path d="m255.15 296.18q0.17333 0 0.35533-0.026 0.182-0.0347 0.29467-0.0693v0.58067q-0.12134 0.0607-0.34667 0.0953-0.22533 0.0433-0.43333 0.0433-0.364 0-0.676-0.12134-0.30334-0.13-0.494-0.442-0.19067-0.312-0.19067-0.87533v-2.704h-0.65867v-0.364l0.66734-0.30334 0.30333-0.988h0.45067v1.066h1.3433v0.58934h-1.3433v2.6867q0 0.42466 0.19933 0.63266 0.208 0.19934 0.52867 0.19934z"/>
  </g>
 </g>
</svg>
