<svg width="250" height="50" version="1.1" viewBox="0 0 250 50" xmlns="http://www.w3.org/2000/svg">
 <rect id="background" x="20.495" y=".494" width="209.01" height="49.012" rx="4.9765" ry="4.9012" style="fill:#fff;stroke-linecap:round;stroke-linejoin:round;stroke-width:.98774;stroke:#000"/>
 <g transform="translate(51.603 .0004086)">
  <g id="foreground">
   <g style="font-variant-ligatures:none;stroke-width:.8269" aria-label="DISCUSS">
    <path d="m54.467 24.815q0 4.7894-2.6196 7.2238-2.5932 2.4079-7.2503 2.4079h-5.2657v-18.893h5.8214q2.8578 0 4.9482 1.0584t3.2282 3.1224q1.1378 2.0375 1.1378 5.0805zm-2.5138 0.07938q0-3.7839-1.8787-5.5303-1.8523-1.7729-5.2657-1.7729h-3.0959v14.818h2.5667q7.6736 0 7.6736-7.5149z"/>
    <path d="m63.966 34.446h-6.8269v-1.376l2.2227-0.50276v-15.109l-2.2227-0.52922v-1.376h6.8269v1.376l-2.2227 0.52922v15.109l2.2227 0.50276z"/>
    <path d="m78.334 29.392q0 2.5138-1.8258 3.9162t-4.9217 1.4024q-1.5876 0-2.9371-0.23815t-2.2492-0.66152v-2.2756q0.95259 0.42337 2.355 0.76736 1.4289 0.34399 2.9371 0.34399 2.1169 0 3.1753-0.82028 1.0849-0.82028 1.0849-2.2227 0-0.92613-0.39691-1.5612t-1.376-1.1643q-0.95259-0.55568-2.6725-1.1643-2.4079-0.87321-3.6516-2.1433-1.2172-1.2701-1.2172-3.4664 0-1.5083 0.76736-2.5667 0.76736-1.0849 2.1169-1.667 1.376-0.58214 3.1488-0.58214 1.5612 0 2.8578 0.29107t2.355 0.76736l-0.7409 2.0375q-0.97905-0.42337-2.1433-0.71444-1.1378-0.29107-2.3815-0.29107-1.7729 0-2.6725 0.76736-0.89967 0.7409-0.89967 1.9846 0 0.95259 0.39691 1.5876 0.39691 0.63506 1.2966 1.1378 0.89967 0.50276 2.4344 1.0849 1.667 0.6086 2.8048 1.323 1.1643 0.68798 1.7464 1.667 0.6086 0.97905 0.6086 2.4609z"/>
    <path d="m90.242 17.379q-3.043 0-4.7894 2.0375t-1.7464 5.5832q0 3.5193 1.6141 5.5832 1.6406 2.0375 4.8952 2.0375 1.2437 0 2.355-0.21169 1.1114-0.21169 2.1698-0.52922v2.0639q-1.0584 0.39691-2.1962 0.58214-1.1114 0.18522-2.6725 0.18522-2.8842 0-4.8159-1.1907-1.9316-1.1907-2.9107-3.387-0.95259-2.1962-0.95259-5.1599 0-2.8578 1.032-5.0276 1.0584-2.1962 3.0959-3.4134 2.0375-1.2437 4.9482-1.2437 2.9901 0 5.2128 1.1114l-0.95259 2.011q-0.87321-0.39691-1.9581-0.71444-1.0584-0.31753-2.3286-0.31753z"/>
    <path d="m113.24 27.778q0 1.9581-0.79382 3.5457-0.79383 1.5612-2.4344 2.4873-1.6141 0.89967-4.1279 0.89967-3.5193 0-5.3715-1.9052-1.8258-1.9316-1.8258-5.0805v-12.172h2.3815v12.251q0 2.3021 1.2172 3.5722 1.2437 1.2701 3.731 1.2701 2.5667 0 3.7045-1.3495 1.1643-1.376 1.1643-3.5193v-12.225h2.355z"/>
    <path d="m128.93 29.392q0 2.5138-1.8258 3.9162t-4.9217 1.4024q-1.5876 0-2.9372-0.23815t-2.2492-0.66152v-2.2756q0.95259 0.42337 2.355 0.76736 1.4289 0.34399 2.9372 0.34399 2.1169 0 3.1753-0.82028 1.0849-0.82028 1.0849-2.2227 0-0.92613-0.39691-1.5612-0.39692-0.63506-1.376-1.1643-0.95258-0.55568-2.6725-1.1643-2.4079-0.87321-3.6516-2.1433-1.2172-1.2701-1.2172-3.4664 0-1.5083 0.76736-2.5667 0.76736-1.0849 2.1169-1.667 1.376-0.58214 3.1488-0.58214 1.5612 0 2.8578 0.29107t2.355 0.76736l-0.74091 2.0375q-0.97905-0.42337-2.1433-0.71444-1.1378-0.29107-2.3815-0.29107-1.7729 0-2.6725 0.76736-0.89967 0.7409-0.89967 1.9846 0 0.95259 0.39691 1.5876 0.39691 0.63506 1.2966 1.1378t2.4344 1.0849q1.667 0.6086 2.8048 1.323 1.1643 0.68798 1.7464 1.667 0.6086 0.97905 0.6086 2.4609z"/>
    <path d="m143.45 29.392q0 2.5138-1.8258 3.9162t-4.9217 1.4024q-1.5876 0-2.9372-0.23815t-2.2492-0.66152v-2.2756q0.95259 0.42337 2.355 0.76736 1.4289 0.34399 2.9372 0.34399 2.1169 0 3.1753-0.82028 1.0849-0.82028 1.0849-2.2227 0-0.92613-0.39691-1.5612-0.39692-0.63506-1.376-1.1643-0.95258-0.55568-2.6725-1.1643-2.4079-0.87321-3.6516-2.1433-1.2172-1.2701-1.2172-3.4664 0-1.5083 0.76736-2.5667 0.76736-1.0849 2.1169-1.667 1.376-0.58214 3.1488-0.58214 1.5612 0 2.8578 0.29107t2.355 0.76736l-0.74091 2.0375q-0.97905-0.42337-2.1433-0.71444-1.1378-0.29107-2.3815-0.29107-1.7729 0-2.6725 0.76736-0.89967 0.7409-0.89967 1.9846 0 0.95259 0.39691 1.5876 0.39691 0.63506 1.2966 1.1378t2.4344 1.0849q1.667 0.6086 2.8048 1.323 1.1643 0.68798 1.7464 1.667 0.6086 0.97905 0.6086 2.4609z"/>
   </g>
   <path id="logo-context-background" d="m30.347 10.721c-0.67556 0.01086-2.1257 0.2799-4.4893 1.8865-1.4381-0.40446-2.966-0.60622-4.494-0.60622s-3.0559 0.20175-4.494 0.60622c-3.4379-2.3144-4.9433-1.8421-4.9433-1.8421-0.98869 2.4717-0.35999 4.3137-0.18023 4.7631-1.146 1.2583-1.8421 2.8761-1.8421 4.831 0 6.8759 4.1807 8.4262 8.1804 8.8756-0.51682 0.4494-0.9896 1.2353-1.1469 2.4038-1.0336 0.47188-3.6181 1.2373-5.2359-1.4816-0.33705-0.53928-1.3486-1.8669-2.7642-1.8444-1.5055 0.02247-0.60576 0.85431 0.023406 1.1914 0.76399 0.42693 1.6398 2.0227 1.8421 2.5395 0.35952 1.0112 1.5293 2.9426 6.0458 2.1112 0 1.4806 0.02034 2.8554 0.02107 3.3073a17.976 17.71 0 0 0 4.4495 1.8163 17.976 17.71 0 0 0 4.494-1.835c7.36e-4 -0.64031 0.02341-2.5189 0.02341-4.8825 0-1.6853-0.56314-2.7642-1.2148-3.326 3.9997-0.4494 8.2015-1.9772 8.2015-8.8756 0-1.9774-0.69607-3.5727-1.8421-4.831 0.17976-0.4494 0.80846-2.2914-0.18023-4.7631 0 0-0.147-0.04941-0.45408-0.04447zm8.9434 10.821c-2.5e-4 0.01329 2.5e-4 0.02651 0 0.03979a17.976 17.71 0 0 0 0.0047-0.0117 17.976 17.71 0 0 0-0.0047-0.02809zm-35.942 0.01638a17.976 17.71 0 0 0-0.00468 0.0117 17.976 17.71 0 0 0 0.00468 0.0117c-1.25e-4 -0.0078 1.25e-4 -0.01559 0-0.02341zm5.2008 12.396a17.976 17.71 0 0 0 0.19895 0.19427c-0.066387-0.064886-0.13358-0.12836-0.19895-0.19427zm25.531 0.01872c-0.05749 0.05803-0.11728 0.11362-0.17554 0.17087a17.976 17.71 0 0 0 0.17554-0.17087z" style="stroke-width:.02996"/>
  </g>
 </g>
</svg>
