<?xml version="1.0" encoding="UTF-8" standalone="no"?>
<svg
   width="250"
   height="50"
   version="1.1"
   viewBox="0 0 250 50"
   id="svg8"
   sodipodi:docname="github-discuss-210x50.svg"
   inkscape:version="1.3.2 (091e20ef0f, 2023-11-25)"
   xmlns:inkscape="http://www.inkscape.org/namespaces/inkscape"
   xmlns:sodipodi="http://sodipodi.sourceforge.net/DTD/sodipodi-0.dtd"
   xmlns="http://www.w3.org/2000/svg"
   xmlns:svg="http://www.w3.org/2000/svg">
  <defs
     id="defs8" />
  <sodipodi:namedview
     id="namedview8"
     pagecolor="#505050"
     bordercolor="#ffffff"
     borderopacity="1"
     inkscape:showpageshadow="0"
     inkscape:pageopacity="0"
     inkscape:pagecheckerboard="1"
     inkscape:deskcolor="#505050"
     inkscape:zoom="3.352"
     inkscape:cx="124.70167"
     inkscape:cy="25.357995"
     inkscape:window-width="1920"
     inkscape:window-height="971"
     inkscape:window-x="0"
     inkscape:window-y="40"
     inkscape:window-maximized="1"
     inkscape:current-layer="foreground" />
  <g
     id="foreground"
     transform="translate(51.603,4.086e-4)">
    <rect
       id="background"
       x="-33.214642"
       y="-0.0004086"
       width="213.22328"
       height="50"
       rx="5.076818"
       ry="4.9999995"
       style="fill:#f2f2f2;stroke:none;stroke-width:1.00765;stroke-linecap:round;stroke-linejoin:round"
       inkscape:label="background" />
    <g
       id="content"
       inkscape:label="content"
       transform="translate(8.8677108,0.65926)"
       style="fill:#1a1a1a">
      <path
         d="M 39.965642,32.223656 V 16.157004 h 3.599997 q 2.799997,0 4.866662,0.866666 2.066664,0.866666 3.199997,2.633331 1.133332,1.766665 1.133332,4.499996 0,2.466664 -0.633333,4.066663 -0.633333,1.566665 -1.866665,2.466664 -1.233332,0.866666 -2.93333,1.199999 -1.699999,0.333333 -3.766663,0.333333 -0.4,0 -1.233333,0 -0.833332,0 -2.366664,0 z m 14.43332,-8.066659 q 0,-3.133331 -1.399999,-5.199995 -1.366665,-2.066665 -3.866663,-3.099997 -2.466664,-1.066666 -5.833328,-1.066666 -0.433333,0 -1.533332,0 -1.099999,0 -3.33333,0 v 18.766649 q 2.099998,0 3.23333,0 1.133333,0 1.633332,0 3.366664,0 5.833328,-0.799999 2.499998,-0.8 3.866663,-2.833331 1.399999,-2.066665 1.399999,-5.766661 z m 2.799967,9.399991 V 20.023667 h 1.533332 v 13.533321 z m 0.8,-15.699985 q -0.666666,0 -0.933333,-0.333333 -0.233333,-0.366667 -0.233333,-0.833333 0,-0.466666 0.233333,-0.799999 0.266667,-0.333333 0.933333,-0.333333 0.699999,0 0.899999,0.333333 0.233333,0.333333 0.233333,0.799999 0,0.466666 -0.233333,0.833333 -0.2,0.333333 -0.899999,0.333333 z m 9.199986,16.033318 q -1.366665,0 -2.333331,-0.366667 -0.966665,-0.399999 -1.599998,-0.999999 -0.633333,-0.599999 -0.999999,-1.233332 -0.366666,-0.633332 -0.533333,-1.166665 -0.133333,-0.533333 -0.133333,-0.8 h 1.499998 q 0,0.03333 0.06667,0.566667 0.1,0.499999 0.466666,1.166665 0.4,0.666666 1.233332,1.166666 0.833333,0.466666 2.333331,0.466666 1.099999,0 1.999999,-0.233333 0.899999,-0.266667 1.433332,-0.799999 0.533332,-0.566667 0.533332,-1.466666 0,-1.066665 -0.699999,-1.633331 -0.666666,-0.6 -1.733332,-0.866666 -1.066665,-0.3 -2.233331,-0.533333 -1.166665,-0.266667 -2.233331,-0.666666 -1.033332,-0.4 -1.699998,-1.166666 -0.633333,-0.766666 -0.633333,-2.099998 0.03333,-1.599998 1.499998,-2.566664 1.466666,-0.999999 3.766663,-0.999999 0.866666,0 1.833332,0.2 0.966666,0.2 1.766665,0.699999 0.833333,0.5 1.333332,1.366666 0.533333,0.866665 0.433333,2.266664 h -1.466665 q 0.03333,-1.033332 -0.366667,-1.666665 -0.366666,-0.633333 -1.033332,-0.966666 -0.633333,-0.366666 -1.333332,-0.466666 -0.699999,-0.1 -1.266665,-0.1 -1.566666,0 -2.666665,0.566666 -1.066665,0.566666 -1.066665,1.733332 0,0.966666 0.666666,1.499998 0.666666,0.533333 1.733332,0.833333 1.066665,0.266666 2.233331,0.5 1.166665,0.233333 2.233331,0.666666 1.066666,0.433332 1.733332,1.233332 0.666666,0.799999 0.666666,2.233331 0,1.299999 -0.733333,2.099998 -0.699999,0.799999 -1.933331,1.166665 -1.233333,0.366667 -2.766665,0.366667 z m 13.86665,0 q -1.899998,0 -3.366663,-0.799999 -1.433332,-0.8 -2.266665,-2.333332 -0.833332,-1.533331 -0.833332,-3.633329 0.06667,-2.133332 0.866665,-3.73333 0.833333,-1.599999 2.299998,-2.466665 1.466666,-0.899999 3.399997,-0.899999 1.666665,0 2.933331,0.633333 1.266665,0.599999 2.066664,1.666665 0.833333,1.066666 1.066666,2.433331 h -1.433332 q -0.333333,-1.566665 -1.566665,-2.433331 -1.233332,-0.899999 -3.033331,-0.899999 -1.533332,0 -2.666664,0.733333 -1.133332,0.699999 -1.766665,1.966664 -0.633333,1.266666 -0.666666,2.933331 0,2.466664 1.333332,3.966663 1.366666,1.466665 3.666663,1.466665 1.799999,0 3.066664,-0.899999 1.299999,-0.899999 1.633332,-2.466664 h 1.433332 q -0.233333,1.366665 -1.099999,2.433331 -0.833333,1.066665 -2.133331,1.699998 -1.266666,0.633333 -2.933331,0.633333 z m 13.93333,0 q -1.266666,0 -2.199998,-0.366667 -0.899999,-0.366666 -1.499999,-0.999999 -0.599999,-0.666666 -0.933332,-1.499998 -0.333333,-0.866666 -0.466666,-1.866665 -0.133334,-0.999999 -0.133334,-2.066665 v -7.06666 h 1.499999 v 7.06666 q 0,1.499999 0.3,2.733331 0.333333,1.233332 1.233332,1.966665 0.899999,0.699999 2.566664,0.699999 1.599998,0 2.533331,-0.733333 0.966666,-0.766665 1.433332,-1.933331 0.466666,-1.199999 0.533333,-2.533331 v -7.26666 h 1.566663 v 13.533321 h -1.26666 l -0.26667,-3.23333 h -0.06667 q -0.166666,0.533332 -0.533332,1.133332 -0.366667,0.599999 -0.966666,1.166665 -0.566666,0.566666 -1.399999,0.933333 -0.833332,0.333333 -1.933331,0.333333 z m 14.799975,0 q -1.36666,0 -2.33333,-0.366667 -0.96666,-0.399999 -1.6,-0.999999 -0.63333,-0.599999 -0.99999,-1.233332 -0.36667,-0.633332 -0.53334,-1.166665 -0.13333,-0.533333 -0.13333,-0.8 h 1.5 q 0,0.03333 0.0667,0.566667 0.1,0.499999 0.46667,1.166665 0.4,0.666666 1.23333,1.166666 0.83334,0.466666 2.33333,0.466666 1.1,0 2,-0.233333 0.9,-0.266667 1.43333,-0.799999 0.53334,-0.566667 0.53334,-1.466666 0,-1.066665 -0.7,-1.633331 -0.66667,-0.6 -1.73333,-0.866666 -1.06667,-0.3 -2.23334,-0.533333 -1.16666,-0.266667 -2.23333,-0.666666 -1.03333,-0.4 -1.7,-1.166666 -0.63333,-0.766666 -0.63333,-2.099998 0.0333,-1.599998 1.5,-2.566664 1.46667,-0.999999 3.76666,-0.999999 0.86667,0 1.83334,0.2 0.96666,0.2 1.76666,0.699999 0.83333,0.5 1.33333,1.366666 0.53334,0.866665 0.43334,2.266664 h -1.46667 q 0.0333,-1.033332 -0.36667,-1.666665 -0.36666,-0.633333 -1.03333,-0.966666 -0.63333,-0.366666 -1.33333,-0.466666 -0.7,-0.1 -1.26667,-0.1 -1.56666,0 -2.66666,0.566666 -1.06667,0.566666 -1.06667,1.733332 0,0.966666 0.66667,1.499998 0.66667,0.533333 1.73333,0.833333 1.06667,0.266666 2.23333,0.5 1.16667,0.233333 2.23333,0.666666 1.06667,0.433332 1.73334,1.233332 0.66666,0.799999 0.66666,2.233331 0,1.299999 -0.73333,2.099998 -0.7,0.799999 -1.93333,1.166665 -1.23333,0.366667 -2.76667,0.366667 z m 13.09998,0 q -1.36667,0 -2.33333,-0.366667 -0.96667,-0.399999 -1.6,-0.999999 -0.63333,-0.599999 -1,-1.233332 -0.36667,-0.633332 -0.53333,-1.166665 -0.13334,-0.533333 -0.13334,-0.8 h 1.5 q 0,0.03333 0.0667,0.566667 0.1,0.499999 0.46667,1.166665 0.4,0.666666 1.23333,1.166666 0.83333,0.466666 2.33333,0.466666 1.1,0 2,-0.233333 0.9,-0.266667 1.43333,-0.799999 0.53333,-0.566667 0.53333,-1.466666 0,-1.066665 -0.7,-1.633331 -0.66666,-0.6 -1.73333,-0.866666 -1.06666,-0.3 -2.23333,-0.533333 -1.16667,-0.266667 -2.23333,-0.666666 -1.03333,-0.4 -1.7,-1.166666 -0.63333,-0.766666 -0.63333,-2.099998 0.0333,-1.599998 1.5,-2.566664 1.46666,-0.999999 3.76666,-0.999999 0.86667,0 1.83333,0.2 0.96667,0.2 1.76667,0.699999 0.83333,0.5 1.33333,1.366666 0.53333,0.866665 0.43333,2.266664 h -1.46666 q 0.0333,-1.033332 -0.36667,-1.666665 -0.36667,-0.633333 -1.03333,-0.966666 -0.63334,-0.366666 -1.33333,-0.466666 -0.7,-0.1 -1.26667,-0.1 -1.56667,0 -2.66666,0.566666 -1.06667,0.566666 -1.06667,1.733332 0,0.966666 0.66667,1.499998 0.66666,0.533333 1.73333,0.833333 1.06666,0.266666 2.23333,0.5 1.16666,0.233333 2.23333,0.666666 1.06667,0.433332 1.73333,1.233332 0.66667,0.799999 0.66667,2.233331 0,1.299999 -0.73333,2.099998 -0.7,0.799999 -1.93334,1.166665 -1.23333,0.366667 -2.76666,0.366667 z"
         id="wording"
         style="font-size:33.3333px;line-height:0.7;font-family:'Darker Grotesque';-inkscape-font-specification:'Darker Grotesque';letter-spacing:0px;word-spacing:0px;stroke-width:0;stroke-linecap:square;stroke-linejoin:round"
         inkscape:label="wording"
         aria-label="Discuss" />
      <path
         id="logo"
         d="m 27.729681,10.06174 c -0.67556,0.01086 -2.1257,0.2799 -4.4893,1.8865 -1.4381,-0.40446 -2.966,-0.60622 -4.494,-0.60622 -1.528,0 -3.0559,0.20175 -4.494,0.60622 -3.4379,-2.3143998 -4.9433003,-1.8421 -4.9433003,-1.8421 -0.98869,2.4717 -0.35999,4.3137 -0.18023,4.7631 -1.146,1.2583 -1.8421,2.8761 -1.8421,4.831 0,6.8759 4.1807003,8.4262 8.1804003,8.8756 -0.51682,0.4494 -0.9896,1.2353 -1.1469,2.4038 -1.0336,0.47188 -3.6181,1.2373 -5.2359003,-1.4816 -0.33705,-0.53928 -1.3486,-1.8669 -2.7642,-1.8444 -1.5055,0.02247 -0.60576,0.85431 0.023406,1.1914 0.76399,0.42693 1.6398,2.0227 1.8421,2.5395 0.35952,1.0112 1.5293,2.9426 6.0458003,2.1112 0,1.4806 0.02034,2.8554 0.02107,3.3073 a 17.976,17.71 0 0 0 4.4495,1.8163 17.976,17.71 0 0 0 4.494,-1.835 c 7.36e-4,-0.64031 0.02341,-2.5189 0.02341,-4.8825 0,-1.6853 -0.56314,-2.7642 -1.2148,-3.326 3.9997,-0.4494 8.2015,-1.9772 8.2015,-8.8756 0,-1.9774 -0.69607,-3.5727 -1.8421,-4.831 0.17976,-0.4494 0.80846,-2.2914 -0.18023,-4.7631 0,0 -0.147,-0.04941 -0.45408,-0.04447 z m 8.9434,10.821 c -2.5e-4,0.01329 2.5e-4,0.02651 0,0.03979 a 17.976,17.71 0 0 0 0.0047,-0.0117 17.976,17.71 0 0 0 -0.0047,-0.02809 z M 0.73108071,20.89912 a 17.976,17.71 0 0 0 -0.00468,0.0117 17.976,17.71 0 0 0 0.00468,0.0117 c -1.25e-4,-0.0078 1.25e-4,-0.01559 0,-0.02341 z m 5.20079999,12.396 a 17.976,17.71 0 0 0 0.19895,0.19427 c -0.066387,-0.06489 -0.13358,-0.12836 -0.19895,-0.19427 z m 25.5310003,0.01872 c -0.05749,0.05803 -0.11728,0.11362 -0.17554,0.17087 a 17.976,17.71 0 0 0 0.17554,-0.17087 z"
         style="fill:#1a1a1a;stroke-width:0.02996"
         inkscape:label="logo" />
    </g>
  </g>
</svg>
