<?xml version="1.0" encoding="UTF-8" standalone="no"?>
<svg
   width="50"
   height="50"
   version="1.1"
   viewBox="0 0 50 50"
   id="svg107"
   sodipodi:docname="gnucash-50x50.svg"
   xml:space="preserve"
   inkscape:version="1.2.2 (b0a8486541, 2022-12-01)"
   xmlns:inkscape="http://www.inkscape.org/namespaces/inkscape"
   xmlns:sodipodi="http://sodipodi.sourceforge.net/DTD/sodipodi-0.dtd"
   xmlns:xlink="http://www.w3.org/1999/xlink"
   xmlns="http://www.w3.org/2000/svg"
   xmlns:svg="http://www.w3.org/2000/svg"><sodipodi:namedview
     id="namedview109"
     pagecolor="#ffffff"
     bordercolor="#666666"
     borderopacity="1.0"
     inkscape:showpageshadow="2"
     inkscape:pageopacity="0.0"
     inkscape:pagecheckerboard="0"
     inkscape:deskcolor="#d1d1d1"
     showgrid="false"
     inkscape:zoom="6.675088"
     inkscape:cx="35.804771"
     inkscape:cy="31.460259"
     inkscape:window-width="1920"
     inkscape:window-height="1005"
     inkscape:window-x="0"
     inkscape:window-y="0"
     inkscape:window-maximized="1"
     inkscape:current-layer="svg107" /><defs
     id="defs57"><linearGradient
       id="linearGradient8534"><stop
         offset="0"
         id="stop2" /><stop
         style="stop-opacity:0"
         offset="1"
         id="stop4" /></linearGradient><linearGradient
       id="linearGradient8524"><stop
         style="stop-color:#fff"
         offset="0"
         id="stop7" /><stop
         style="stop-color:#fff;stop-opacity:0"
         offset="1"
         id="stop9" /></linearGradient><linearGradient
       id="linearGradient2452"
       x1="13.236"
       x2="7.7521"
       y1="37.752"
       y2="42.282"
       gradientTransform="matrix(.75516 .39514 -.39514 .75516 -25.912 6.5326)"
       gradientUnits="userSpaceOnUse"
       xlink:href="#linearGradient8524" /><radialGradient
       id="radialGradient6969"
       cx="15.415"
       cy="35.357"
       r="7.5792"
       gradientTransform="matrix(1.5727,0,0,1.5326,-55.367,-21.358)"
       gradientUnits="userSpaceOnUse"><stop
         style="stop-color:#696969"
         offset="0"
         id="stop13" /><stop
         offset="1"
         id="stop15" /></radialGradient><linearGradient
       id="linearGradient6945"
       x1="19.395"
       x2="23.109"
       y1="30.001"
       y2="33.439"
       gradientTransform="translate(-46.407,-1.8029)"
       gradientUnits="userSpaceOnUse"><stop
         style="stop-color:#bdbdbd"
         offset="0"
         id="stop18" /><stop
         style="stop-color:#e2e2e2"
         offset=".33333"
         id="stop20" /><stop
         style="stop-color:#a3a3a3"
         offset=".66667"
         id="stop22" /><stop
         style="stop-color:#ddd"
         offset="1"
         id="stop24" /></linearGradient><linearGradient
       id="linearGradient6957"
       x1="37.018"
       x2="27.754"
       y1="19.24"
       y2="11.182"
       gradientTransform="translate(-49.305,1.8777)"
       gradientUnits="userSpaceOnUse"><stop
         style="stop-color:#6e3d09"
         offset="0"
         id="stop27" /><stop
         style="stop-color:#ea8113"
         offset=".24242"
         id="stop29" /><stop
         style="stop-color:#5c3307"
         offset=".62121"
         id="stop31" /><stop
         style="stop-color:#e07c12"
         offset="1"
         id="stop33" /></linearGradient><linearGradient
       id="linearGradient6468"><stop
         style="stop-color:#fff"
         offset="0"
         id="stop36" /><stop
         style="stop-color:#b9b9b0"
         offset="1"
         id="stop38" /></linearGradient><linearGradient
       id="linearGradient6458"
       x1="6.3052"
       x2="5.9846"
       y1="23.362"
       y2="31.57"
       gradientUnits="userSpaceOnUse"
       xlink:href="#linearGradient8524" /><radialGradient
       id="radialGradient6474"
       cx="69.473"
       cy="19.598"
       r="3.5153"
       gradientTransform="matrix(1.3185,0,0,1.3185,-22.126,-6.2417)"
       gradientUnits="userSpaceOnUse"
       xlink:href="#linearGradient6468" /><radialGradient
       id="radialGradient6498"
       cx="23"
       cy="33.938"
       r="18.25"
       gradientTransform="matrix(1 0 0 .28425 0 24.291)"
       gradientUnits="userSpaceOnUse"
       xlink:href="#linearGradient8534" /><linearGradient
       id="linearGradient8530"
       x1="14.969"
       x2="39.525"
       y1="19.111"
       y2="46.986"
       gradientUnits="userSpaceOnUse"
       xlink:href="#linearGradient8524" /><radialGradient
       id="radialGradient8548"
       cx="6.0242"
       cy="25.271"
       r="4.831"
       gradientTransform="matrix(.91616 .093187 -.10876 1.0693 3.2537 -3.0293)"
       gradientUnits="userSpaceOnUse"><stop
         style="stop-color:#5b676b"
         offset="0"
         id="stop45" /><stop
         style="stop-color:#141718"
         offset="1"
         id="stop47" /></radialGradient><linearGradient
       id="linearGradient4330"
       x1="26.163"
       x2="24.329"
       y1="30.543"
       y2="30.985"
       gradientUnits="userSpaceOnUse"
       xlink:href="#linearGradient8534" /><linearGradient
       id="linearGradient4351"
       x1="32.35"
       x2="21.213"
       y1="28.083"
       y2="30.293"
       gradientTransform="translate(-3.8365 .34597)"
       gradientUnits="userSpaceOnUse"
       xlink:href="#linearGradient8534" /><radialGradient
       id="radialGradient4354"
       cx="18.558"
       cy="22.3"
       r="19.229"
       gradientTransform="matrix(1.7728,0,0,1.2967,-16.34,-6.616)"
       gradientUnits="userSpaceOnUse"><stop
         style="stop-color:#857c63"
         offset="0"
         id="stop52" /><stop
         style="stop-color:#221f19"
         offset="1"
         id="stop54" /></radialGradient><radialGradient
       id="radialGradient2596"
       cx="17.984"
       cy="40.604"
       r="21.031"
       gradientTransform="matrix(1.1138,0,0,0.53935,-2.1241,18.941)"
       gradientUnits="userSpaceOnUse"><stop
         style="stop-color:#555753"
         offset="0"
         id="stop392" /><stop
         style="stop-color:#555753;stop-opacity:0"
         offset="1"
         id="stop394" /></radialGradient><radialGradient
       id="radialGradient2629"
       cx="24.5"
       cy="18.593"
       r="14.5"
       gradientTransform="matrix(2.9403,0,0,2.4333,-47.537,-23.367)"
       gradientUnits="userSpaceOnUse"><stop
         style="stop-color:#babdb6"
         offset="0"
         id="stop397" /><stop
         style="stop-color:#babdb6;stop-opacity:0"
         offset="1"
         id="stop399" /></radialGradient><linearGradient
       id="linearGradient2639"
       x1="24.613"
       x2="29.182"
       y1="20.16"
       y2="12.246"
       gradientTransform="translate(9.5367e-7,1)"
       gradientUnits="userSpaceOnUse"><stop
         style="stop-color:#204a87"
         offset="0"
         id="stop402" /><stop
         style="stop-color:#204a87;stop-opacity:0"
         offset="1"
         id="stop404" /></linearGradient><radialGradient
       id="radialGradient2655"
       cx="24.013"
       cy="31.644"
       r="14.987"
       gradientTransform="matrix(3.3235,0,0,2.7721,-55.796,-48.866)"
       gradientUnits="userSpaceOnUse"><stop
         style="stop-color:#d3d7cf"
         offset="0"
         id="stop407" /><stop
         style="stop-color:#d3d7cf;stop-opacity:0"
         offset="1"
         id="stop409" /></radialGradient><linearGradient
       id="linearGradient2713"
       x1="18"
       x2="18"
       y1="39"
       y2="45.78"
       gradientTransform="matrix(1,0,0,0.83333,0,7.5)"
       gradientUnits="userSpaceOnUse"><stop
         style="stop-color:#eeeeec"
         offset="0"
         id="stop412" /><stop
         style="stop-color:#eeeeec;stop-opacity:0"
         offset="1"
         id="stop414" /></linearGradient></defs><style
     type="text/css"
     id="style59">.specularity {opacity:0.5;}
	.low-specularity {opacity:0.25;}
	.full-specularity {opacity:1;}
	.black {fill:#000000;}
	.white {fill:#ffffff;}
	.outline-big {stroke-width:16;stroke:none;opacity:0.1;fill:none;}
	.outline-small {stroke-width:8;stroke:none;opacity:0.2;fill:none;}
	.stroke-highlight {fill:none;stroke:none;opacity:0.2;}
       	.base-shadow 	{fill:black;opacity:75;}</style><g
     transform="matrix(0.83331329,0,0,0.83331329,5.0001935,4.1419242)"
     id="g545"><path
       transform="matrix(1.1412,0,0,0.83467,2.7027,4.9314)"
       d="m 39.693,41.416 a 21.031,10.184 0 1 1 -42.061,0 21.031,10.184 0 1 1 42.061,0 z"
       style="opacity:0.5;fill:url(#radialGradient2596);fill-rule:evenodd"
       id="path419" /><path
       transform="matrix(0.7904,0,0,1.1476,20.586,17.32)"
       d="m 32.823,18.895 a 6.3302,2.177 0 1 1 -12.66,0 6.3302,2.177 0 1 1 12.66,0 z"
       style="fill:#edd400;fill-rule:evenodd;stroke:#786100;stroke-width:1.05"
       id="path421" /><path
       transform="matrix(0.63251,0,0,0.68753,24.766,26.013)"
       d="m 32.823,18.895 a 6.3302,2.177 0 1 1 -12.66,0 6.3302,2.177 0 1 1 12.66,0 z"
       style="opacity:0.6;fill:none"
       id="path423" /><path
       transform="matrix(0.7904,0,0,1.1476,20.595,15.327)"
       d="m 32.823,18.895 a 6.3302,2.177 0 1 1 -12.66,0 6.3302,2.177 0 1 1 12.66,0 z"
       style="fill:#edd400;fill-rule:evenodd;stroke:#8c7200;stroke-width:1.05"
       id="path425" /><path
       transform="matrix(0.63251,0,0,0.68753,24.776,24.019)"
       d="m 32.823,18.895 a 6.3302,2.177 0 1 1 -12.66,0 6.3302,2.177 0 1 1 12.66,0 z"
       style="opacity:0.6;fill:none"
       id="path427" /><rect
       x="6.4727001"
       y="2.5016"
       width="35.041"
       height="34.995998"
       rx="2"
       ry="2"
       style="fill:#eeeeec;fill-rule:evenodd;stroke:#555753"
       id="rect429" /><path
       transform="matrix(0.7904,0,0,1.1476,20.595,13.327)"
       d="m 32.823,18.895 a 6.3302,2.177 0 1 1 -12.66,0 6.3302,2.177 0 1 1 12.66,0 z"
       style="fill:#edd400;fill-rule:evenodd;stroke:#8c7200;stroke-width:1.05"
       id="path431" /><rect
       x="9.0263004"
       y="6"
       width="29.974001"
       height="25"
       rx="1.625"
       ry="1.625"
       style="fill:url(#radialGradient2655);fill-rule:evenodd"
       id="rect433" /><path
       transform="matrix(0.63251,0,0,0.68753,24.776,22.019)"
       d="m 32.823,18.895 a 6.3302,2.177 0 1 1 -12.66,0 6.3302,2.177 0 1 1 12.66,0 z"
       style="opacity:0.6;fill:none"
       id="path435" /><path
       d="m 14.031,6 v 4 H 9.9998 v 1 h 4.0312 v 4 H 9.9998 v 1 h 4.0312 v 4 H 9.9998 v 1 h 4.0312 v 4 H 9.9998 v 1 h 4.0312 v 4 h 1 v -4 h 4 v 4 h 1 v -4 h 4 v 4 h 1 v -4 h 4 v 4 h 1 v -4 h 4 v 4 h 1 v -4 h 3.9688 V 25 H 35.031 v -4 h 3.9688 V 20 H 35.031 v -4 h 3.9688 V 15 H 35.031 v -4 h 3.9688 V 10 H 35.031 V 6 h -1 v 4 h -4 V 6 h -1 v 4 h -4 V 6 h -1 v 4 h -4 V 6 h -1 v 4 h -4 V 6 Z m 1,5 h 4 v 4 h -4 z m 5,0 h 4 v 4 h -4 z m 5,0 h 4 v 4 h -4 z m 5,0 h 4 v 4 h -4 z m -15,5 h 4 v 4 h -4 z m 5,0 h 4 v 4 h -4 z m 5,0 h 4 v 4 h -4 z m 5,0 h 4 v 4 h -4 z m -15,5 h 4 v 4 h -4 z m 5,0 h 4 v 4 h -4 z m 5,0 h 4 v 4 h -4 z m 5,0 h 4 v 4 h -4 z"
       style="fill:url(#radialGradient2629);fill-rule:evenodd"
       id="path437" /><path
       transform="matrix(0.7904,0,0,1.1476,20.583,11.322)"
       d="m 32.823,18.895 a 6.3302,2.177 0 1 1 -12.66,0 6.3302,2.177 0 1 1 12.66,0 z"
       style="fill:#edd400;fill-rule:evenodd;stroke:#8c7200;stroke-width:1.05"
       id="path439" /><path
       d="m 28.531,13 -4.883,8.8171 -8.6098,-4.7973 -6.0072,9.4801 0.875,0.5 5.4122,-8.7268 8.7014,4.7812 5.3864,-9.5545 z"
       style="fill:url(#linearGradient2639);fill-rule:evenodd"
       id="path441" /><rect
       transform="rotate(90)"
       x="30"
       y="-39"
       width="1"
       height="30"
       style="fill:#888a85;fill-rule:evenodd"
       id="rect443" /><path
       transform="matrix(0.63251,0,0,0.68753,24.776,20.013)"
       d="m 32.823,18.895 a 6.3302,2.177 0 1 1 -12.66,0 6.3302,2.177 0 1 1 12.66,0 z"
       style="opacity:0.6;fill:none"
       id="path445" /><rect
       x="9.0263004"
       y="6"
       width="1"
       height="25"
       style="fill:#888a85;fill-rule:evenodd"
       id="rect447" /><path
       d="m 1.4998,34.489 h 24 v 6.0252 h -24 z"
       style="fill:#4e9a06;fill-rule:evenodd;stroke:#2e5c02"
       id="path449" /><path
       d="m 4.3259,28.501 h 20.272 l 0.90243,6.0095 h -24 z"
       style="fill:#59af05;fill-rule:evenodd;stroke:#2e5c02"
       id="path451" /><rect
       x="2.0000999"
       y="38.036999"
       width="23"
       height="1"
       style="fill:#2e5c02;fill-rule:evenodd"
       id="rect453" /><rect
       x="2.0000999"
       y="36.036999"
       width="23"
       height="1"
       style="fill:#2e5c02;fill-rule:evenodd"
       id="rect455" /><path
       transform="translate(-3.9687,-4.9791)"
       d="m 8.9062,34.531 -1.9688,3.9375 h 21.344 L 27.68765,34.531 Z"
       style="opacity:0.25;fill:none;stroke:#ffffff"
       id="path457" /><rect
       x="11.531"
       y="34.473999"
       width="4.9373002"
       height="6.1093998"
       style="fill:#eeeeec;fill-rule:evenodd;stroke:#555753"
       id="rect459" /><path
       transform="matrix(0.70711,0,0,0.41392,5.125,31.681)"
       d="m 19.622,-0.43681 a 7.0711,3.6239 0 1 1 -14.142,0 7.0711,3.6239 0 1 1 14.142,0 z"
       style="fill:#2e5c02;fill-rule:evenodd"
       id="path461" /><path
       d="m 12.5,28.496 -1,5.6372 v 6.3714 h 5 V 34.0792 L 15.4062,28.496 Z"
       style="fill:#d3d7cf;fill-rule:evenodd;stroke:#555753"
       id="path463" /><path
       d="m 5.4915,39.471 h 24.009 v 6.0391 H 5.4915 Z"
       style="fill:#4e9a06;fill-rule:evenodd;stroke:#2e5c02"
       id="path465" /><path
       d="m 7.4508,33.505 h 20.209 l 1.8399,5.994 H 5.5007 Z"
       style="fill:#57ae06;fill-rule:evenodd;stroke:#2e5c02"
       id="path467" /><path
       transform="matrix(0.7904,0,0,1.1476,15.576,20.314)"
       d="m 32.823,18.895 a 6.3302,2.177 0 1 1 -12.66,0 6.3302,2.177 0 1 1 12.66,0 z"
       style="fill:#ecd300;fill-rule:evenodd;stroke:#786100;stroke-width:1.05"
       id="path469" /><path
       transform="matrix(0.7904,0,0,1.1476,20.595,9.3204)"
       d="m 32.823,18.895 a 6.3302,2.177 0 1 1 -12.66,0 6.3302,2.177 0 1 1 12.66,0 z"
       style="fill:#edd400;fill-rule:evenodd;stroke:#8c7200;stroke-width:1.05"
       id="path471" /><rect
       x="6"
       y="43"
       width="23"
       height="1"
       style="fill:#2e5c02;fill-rule:evenodd"
       id="rect473" /><path
       transform="matrix(0.63251,0,0,0.68753,19.756,29.006)"
       d="m 32.823,18.895 a 6.3302,2.177 0 1 1 -12.66,0 6.3302,2.177 0 1 1 12.66,0 z"
       style="opacity:0.6;fill:none"
       id="path475" /><rect
       x="6"
       y="41"
       width="23"
       height="1"
       style="fill:#2e5c02;fill-rule:evenodd"
       id="rect477" /><path
       transform="matrix(0.7904,0,0,1.1476,15.586,18.32)"
       d="m 32.823,18.895 a 6.3302,2.177 0 1 1 -12.66,0 6.3302,2.177 0 1 1 12.66,0 z"
       style="fill:#ecd300;fill-rule:evenodd;stroke:#8c7200;stroke-width:1.05"
       id="path479" /><path
       transform="matrix(0.63251,0,0,0.68753,24.776,18.013)"
       d="m 32.823,18.895 a 6.3302,2.177 0 1 1 -12.66,0 6.3302,2.177 0 1 1 12.66,0 z"
       style="opacity:0.6;fill:none"
       id="path481" /><path
       transform="matrix(0.63251,0,0,0.68753,19.766,27.013)"
       d="m 32.823,18.895 a 6.3302,2.177 0 1 1 -12.66,0 6.3302,2.177 0 1 1 12.66,0 z"
       style="opacity:0.6;fill:none"
       id="path483" /><path
       transform="matrix(0.7904,0,0,1.1476,15.586,16.32)"
       d="m 32.823,18.895 a 6.3302,2.177 0 1 1 -12.66,0 6.3302,2.177 0 1 1 12.66,0 z"
       style="fill:#ecd300;fill-rule:evenodd;stroke:#8c7200;stroke-width:1.05"
       id="path485" /><path
       transform="matrix(0.7904,0,0,1.1476,20.595,7.3254)"
       d="m 32.823,18.895 a 6.3302,2.177 0 1 1 -12.66,0 6.3302,2.177 0 1 1 12.66,0 z"
       style="fill:#edd400;fill-rule:evenodd;stroke:#8c7200;stroke-width:1.05"
       id="path487" /><path
       d="m 8.2188,34.531 -1.2812,3.9375 h 21.156 L 26.8748,34.531 Z"
       style="opacity:0.25;fill:none;stroke:#ffffff"
       id="path489" /><path
       transform="matrix(0.63251,0,0,0.68753,19.766,25.013)"
       d="m 32.823,18.895 a 6.3302,2.177 0 1 1 -12.66,0 6.3302,2.177 0 1 1 12.66,0 z"
       style="opacity:0.6;fill:none"
       id="path491" /><path
       transform="matrix(0.7904,0,0,1.1476,15.573,14.316)"
       d="m 32.823,18.895 a 6.3302,2.177 0 1 1 -12.66,0 6.3302,2.177 0 1 1 12.66,0 z"
       style="fill:#ecd300;fill-rule:evenodd;stroke:#8c7200;stroke-width:1.05"
       id="path493" /><path
       transform="matrix(0.63251,0,0,0.68753,19.766,23.006)"
       d="m 32.823,18.895 a 6.3302,2.177 0 1 1 -12.66,0 6.3302,2.177 0 1 1 12.66,0 z"
       style="opacity:0.6;fill:none"
       id="path495" /><path
       transform="matrix(0.7904,0,0,1.1476,20.583,5.3204)"
       d="m 32.823,18.895 a 6.3302,2.177 0 1 1 -12.66,0 6.3302,2.177 0 1 1 12.66,0 z"
       style="fill:#edd400;fill-rule:evenodd;stroke:#8c7200;stroke-width:1.05"
       id="path497" /><path
       transform="matrix(0.7904,0,0,1.1476,15.586,12.314)"
       d="m 32.823,18.895 a 6.3302,2.177 0 1 1 -12.66,0 6.3302,2.177 0 1 1 12.66,0 z"
       style="fill:#ecd300;fill-rule:evenodd;stroke:#8c7200;stroke-width:1.05"
       id="path499" /><path
       transform="matrix(0.63251,0,0,0.68753,19.766,21.006)"
       d="m 32.823,18.895 a 6.3302,2.177 0 1 1 -12.66,0 6.3302,2.177 0 1 1 12.66,0 z"
       style="opacity:0.6;fill:none"
       id="path501" /><path
       transform="matrix(0.14142,0,0,0.13797,8.1938,33.545)"
       d="m 19.622,-0.43681 a 7.0711,3.6239 0 1 1 -14.142,0 7.0711,3.6239 0 1 1 14.142,0 z"
       style="fill:#2e5c02;fill-rule:evenodd"
       id="path503" /><path
       transform="matrix(0.14142,0,0,0.13797,23.194,33.545)"
       d="m 19.622,-0.43681 a 7.0711,3.6239 0 1 1 -14.142,0 7.0711,3.6239 0 1 1 14.142,0 z"
       style="fill:#2e5c02;fill-rule:evenodd"
       id="path505" /><path
       transform="matrix(0.70711,0,0,0.41392,9.125,36.681)"
       d="m 19.622,-0.43681 a 7.0711,3.6239 0 1 1 -14.142,0 7.0711,3.6239 0 1 1 14.142,0 z"
       style="fill:#2e5c02;fill-rule:evenodd"
       id="path507" /><path
       transform="matrix(0.21434,0,0,0.13797,6.7942,37.545)"
       d="m 19.622,-0.43681 a 7.0711,3.6239 0 1 1 -14.142,0 7.0711,3.6239 0 1 1 14.142,0 z"
       style="fill:#2e5c02;fill-rule:evenodd"
       id="path509" /><path
       transform="matrix(0.21213,0,0,0.13797,22.838,37.56)"
       d="m 19.622,-0.43681 a 7.0711,3.6239 0 1 1 -14.142,0 7.0711,3.6239 0 1 1 14.142,0 z"
       style="fill:#2e5c02;fill-rule:evenodd"
       id="path511" /><path
       d="m 16.5,33.521 -1,5.6252 v 6.3579 h 5 v -6.4118 l -1.0938,-5.5714 z"
       style="fill:#d3d7cf;fill-rule:evenodd;stroke:#555753"
       id="path513" /><rect
       x="16"
       y="40"
       width="4"
       height="5"
       style="fill:#888a85;fill-rule:evenodd"
       id="rect515" /><rect
       x="16"
       y="40"
       width="4"
       height="5"
       style="fill:url(#linearGradient2713);fill-rule:evenodd"
       id="rect517" /><path
       transform="matrix(0.21213,0,0,0.13797,21.838,35.56)"
       d="m 19.622,-0.43681 a 7.0711,3.6239 0 1 1 -14.142,0 7.0711,3.6239 0 1 1 14.142,0 z"
       style="fill:#2e5c02;fill-rule:evenodd"
       id="path519" /><path
       transform="matrix(0.21213,0,0,0.13797,7.8375,35.56)"
       d="m 19.622,-0.43681 a 7.0711,3.6239 0 1 1 -14.142,0 7.0711,3.6239 0 1 1 14.142,0 z"
       style="fill:#2e5c02;fill-rule:evenodd"
       id="path521" /><path
       d="M 9,6 H 39 C 26.839,9.9101 27.662,24 9,24 Z"
       style="opacity:0.2;fill:#ffffff;fill-rule:evenodd"
       id="path523" /><path
       transform="matrix(0.21434,0,0,0.13797,2.7942,32.56)"
       d="m 19.622,-0.43681 a 7.0711,3.6239 0 1 1 -14.142,0 7.0711,3.6239 0 1 1 14.142,0 z"
       style="fill:#2e5c02;fill-rule:evenodd"
       id="path525" /><path
       transform="matrix(0.21213,0,0,0.13797,19.838,32.56)"
       d="m 19.622,-0.43681 a 7.0711,3.6239 0 1 1 -14.142,0 7.0711,3.6239 0 1 1 14.142,0 z"
       style="fill:#2e5c02;fill-rule:evenodd"
       id="path527" /><path
       transform="matrix(0.21213,0,0,0.13797,18.838,30.56)"
       d="m 19.622,-0.43681 a 7.0711,3.6239 0 1 1 -14.142,0 7.0711,3.6239 0 1 1 14.142,0 z"
       style="fill:#2e5c02;fill-rule:evenodd"
       id="path529" /><path
       transform="matrix(0.21213,0,0,0.13797,3.8375,30.56)"
       d="m 19.622,-0.43681 a 7.0711,3.6239 0 1 1 -14.142,0 7.0711,3.6239 0 1 1 14.142,0 z"
       style="fill:#2e5c02;fill-rule:evenodd"
       id="path531" /><path
       transform="matrix(0.7904,0,0,1.1476,20.595,3.3189)"
       d="m 32.823,18.895 a 6.3302,2.177 0 1 1 -12.66,0 6.3302,2.177 0 1 1 12.66,0 z"
       style="fill:#edd400;fill-rule:evenodd;stroke:#8c7200;stroke-width:1.05"
       id="path533" /><path
       transform="matrix(0.7904,0,0,1.1476,20.595,1.3189)"
       d="m 32.823,18.895 a 6.3302,2.177 0 1 1 -12.66,0 6.3302,2.177 0 1 1 12.66,0 z"
       style="fill:#edd400;fill-rule:evenodd;stroke:#8c7200;stroke-width:1.05"
       id="path535" /><path
       transform="matrix(0.7904,0,0,1.1476,20.576,-0.6845)"
       d="m 32.823,18.895 a 6.3302,2.177 0 1 1 -12.66,0 6.3302,2.177 0 1 1 12.66,0 z"
       style="fill:#fce94f;fill-rule:evenodd;stroke:#8c7200;stroke-width:1.05"
       id="path537" /><path
       transform="matrix(0.7904,0,0,1.1476,15.566,10.314)"
       d="m 32.823,18.895 a 6.3302,2.177 0 1 1 -12.66,0 6.3302,2.177 0 1 1 12.66,0 z"
       style="fill:#fce94f;fill-rule:evenodd;stroke:#8c7200;stroke-width:1.05"
       id="path539" /><path
       transform="matrix(0.63251,0,0,0.68753,19.747,19.006)"
       d="m 32.823,18.895 a 6.3302,2.177 0 1 1 -12.66,0 6.3302,2.177 0 1 1 12.66,0 z"
       style="opacity:0.5;fill:none;stroke:#ffffff;stroke-width:1.5164"
       id="path541" /><path
       transform="matrix(0.63251,0,0,0.68753,24.749,8.0061)"
       d="m 32.823,18.895 a 6.3302,2.177 0 1 1 -12.66,0 6.3302,2.177 0 1 1 12.66,0 z"
       style="opacity:0.5;fill:none;stroke:#ffffff;stroke-width:1.5164"
       id="path543" /></g></svg>
