<svg width="50" height="50" version="1.1" viewBox="0 0 50 50" xmlns="http://www.w3.org/2000/svg">
 <style type="text/css">.specularity {opacity:0.5;}
	.low-specularity {opacity:0.25;}
	.full-specularity {opacity:1;}
	.black {fill:#000000;}
	.white {fill:#ffffff;}
	.outline-big {stroke-width:16;stroke:none;opacity:0.1;fill:none;}
	.outline-small {stroke-width:8;stroke:none;opacity:0.2;fill:none;}
	.stroke-highlight {fill:none;stroke:none;opacity:0.2;}
       	.base-shadow 	{fill:black;opacity:75;}</style>
 <path d="m25 5c-11.023 0-20 8.977-20 20s8.977 20 20 20c11.023 0 20-8.977 20-20s-8.977-20-20-20zm0 3.8252c8.9557 0 16.175 7.2191 16.175 16.175 0 5.2228-2.4586 9.8512-6.2817 12.805-0.31292-0.60161-0.71678-1.3662-1.3538-2.5387-2.0576-3.7872-6.2278-11.264-14.295-25.39 1.7874-0.67774 3.7261-1.0519 5.7557-1.0519zm-9.2163 2.8719c8.1093 14.198 12.284 21.683 14.322 25.434 0.72147 1.328 1.1262 2.0993 1.4225 2.6746-1.9955 0.87774-4.2024 1.3687-6.5282 1.3687-8.9557 0-16.175-7.2191-16.175-16.175 0-5.5255 2.7501-10.387 6.9585-13.303z" style="-inkscape-stroke:none;color:#000000;fill:#ff8080;stroke-linecap:round;stroke-linejoin:round;stroke-width:.76504"/>
 <g transform="matrix(1.7799 0 0 1.7799 61.303 14.155)" style="font-variant-ligatures:none" aria-label="DB">
  <path d="m-21.076 5.9811q0 2.896-1.584 4.368-1.568 1.456-4.384 1.456h-3.184v-11.424h3.52q1.728 0 2.992 0.64 1.264 0.64 1.952 1.888 0.688 1.232 0.688 3.072zm-1.52 0.048q0-2.288-1.136-3.344-1.12-1.072-3.184-1.072h-1.872v8.96h1.552q4.64 0 4.64-4.544z"/>
  <path d="m-15.284 0.3811q2.144 0 3.232 0.64 1.104 0.624 1.104 2.192 0 1.008-0.56 1.68-0.56 0.656-1.616 0.848v0.08q0.72 0.112 1.296 0.416 0.592 0.304 0.928 0.864t0.336 1.456q0 1.552-1.072 2.4-1.056 0.848-2.896 0.848h-4.016v-11.424zm0.288 4.864q1.472 0 2.016-0.464 0.544-0.48 0.544-1.408 0-0.944-0.672-1.344-0.656-0.416-2.112-0.416h-1.888v3.632zm-2.112 1.2v4.144h2.304q1.52 0 2.112-0.592 0.592-0.592 0.592-1.552 0-0.896-0.624-1.44-0.608-0.56-2.192-0.56z"/>
 </g>
</svg>
