<svg width="50" height="50" version="1.1" viewBox="0 0 50 50" xmlns="http://www.w3.org/2000/svg">
	<style type="text/css">.specularity {opacity:0.5;}
	.low-specularity {opacity:0.25;}
	.full-specularity {opacity:1;}
	.black {fill:#000000;}
	.white {fill:#ffffff;}
	.outline-big {stroke-width:16;stroke:none;opacity:0.1;fill:none;}
	.outline-small {stroke-width:8;stroke:none;opacity:0.2;fill:none;}
	.stroke-highlight {fill:none;stroke:none;opacity:0.2;}
       	.base-shadow 	{fill:black;opacity:75;}</style>
	<g transform="matrix(.92814 0 0 .92814 1.7965 2.4771)">
		<rect x="3.9515" y="5.3196" width="42.097" height="37.894" rx="5" ry="5" fill="#00002b" stroke="#000"/>
		<g transform="translate(-.75927)">
			<path d="m8.8727 13.932q-0.44-8e-3 -0.856-0.072-0.416-0.072-0.672-0.192v-0.68q0.272 0.128 0.696 0.224t0.832 0.104v-1.616q-0.792-0.216-1.16-0.544t-0.368-0.896q0-0.592 0.408-0.928 0.416-0.336 1.12-0.376v-0.704h0.512v0.696q0.424 8e-3 0.768 0.096 0.352 0.08 0.64 0.2l-0.216 0.592q-0.256-0.104-0.568-0.176-0.304-0.08-0.624-0.104v1.608q0.528 0.152 0.88 0.328 0.352 0.168 0.528 0.424 0.184 0.248 0.184 0.648 0 0.56-0.416 0.912-0.416 0.344-1.176 0.424v0.888h-0.512zm0-4.36q-0.432 0.032-0.64 0.2-0.2 0.168-0.2 0.432 0 0.32 0.176 0.496 0.184 0.168 0.664 0.288zm0.512 3.704q0.472-0.048 0.688-0.216 0.216-0.176 0.216-0.448 0-0.304-0.192-0.456-0.192-0.16-0.712-0.288z" fill="#ff0" aria-label="$"/>
			<path d="m11.576 12.864 3.016-1.256-3.016-1.432v-0.624l3.768 1.88v0.4l-3.768 1.656z" fill="#0f0" aria-label="&gt;"/>
		</g>
		<g transform="translate(.77221)" fill="#ff0" stroke-width="1.0774" aria-label="POWER
SHELL">
			<path d="m9.0885 17.919q1.3877 0 2.0213 0.60336 0.64358 0.5933 0.64358 1.6391 0 0.62347-0.26146 1.1766-0.26146 0.54302-0.87487 0.87487-0.60336 0.33185-1.6492 0.33185h-0.65364v2.5542h-1.5185v-7.18zm-0.080448 1.2469h-0.69386v2.1319h0.5028q0.64358 0 1.0157-0.2514 0.38213-0.26146 0.38213-0.83465 0-1.0458-1.2067-1.0458zm10.619 2.333q0 1.1162-0.37207 1.9509-0.36202 0.82459-1.1162 1.2872t-1.9308 0.46258q-1.1665 0-1.9308-0.46258-0.7542-0.46258-1.1263-1.2972-0.36202-0.83465-0.36202-1.9509t0.36202-1.9408q0.37207-0.82459 1.1263-1.2771 0.76426-0.46258 1.9408-0.46258 1.1665 0 1.9207 0.46258 0.7542 0.45252 1.1162 1.2872 0.37207 0.82459 0.37207 1.9408zm-5.2392 0q0 1.1263 0.43241 1.7799 0.43241 0.64358 1.3877 0.64358 0.97543 0 1.3978-0.64358 0.42235-0.65364 0.42235-1.7799 0-1.1363-0.42235-1.7799t-1.3877-0.64358-1.3978 0.64358-0.43241 1.7799zm15.446-3.5799-1.8302 7.18h-1.7296l-0.97543-3.771q-0.03017-0.11062-0.08045-0.33185-0.04022-0.22123-0.10056-0.48269-0.05028-0.26146-0.0905-0.49274-0.04022-0.24134-0.06034-0.37207-0.01006 0.13073-0.06034 0.37207-0.04022 0.23129-0.0905 0.49274-0.05028 0.2514-0.10056 0.48269-0.05028 0.22123-0.08045 0.3419l-0.96538 3.7609h-1.7296l-1.8302-7.18h1.4983l0.9151 3.9218q0.06034 0.23129 0.13073 0.58325 0.07039 0.35196 0.13073 0.70392 0.06034 0.35196 0.0905 0.5933 0.03017-0.2514 0.0905-0.5933 0.06034-0.35196 0.12067-0.67375 0.07039-0.33185 0.12067-0.51286l1.0458-4.0224h1.438l1.0458 4.0224q0.05028 0.17095 0.11062 0.5028 0.07039 0.33185 0.13073 0.68381 0.06034 0.35196 0.0905 0.5933 0.03017-0.2514 0.0905-0.5933 0.06034-0.35196 0.13073-0.70392 0.08045-0.35196 0.13073-0.58325l0.9151-3.9218zm5.0381 7.18h-4.133v-7.18h4.133v1.2469h-2.6146v1.5788h2.4336v1.2469h-2.4336v1.8503h2.6146zm3.59-7.18q1.4682 0 2.162 0.53297 0.70392 0.53297 0.70392 1.619 0 0.49274-0.19106 0.86482-0.18101 0.36202-0.49274 0.62347-0.30168 0.2514-0.65364 0.4123l2.1118 3.1274h-1.6894l-1.7095-2.7553h-0.81454v2.7553h-1.5185v-7.18zm-0.11062 1.2469h-0.46258v1.9408h0.49274q0.7542 0 1.076-0.2514 0.33185-0.2514 0.33185-0.74414 0-0.51286-0.35196-0.72403-0.3419-0.22123-1.086-0.22123z"/>
			<path d="m11.029 35.678q0 0.95532-0.69386 1.5285-0.68381 0.56314-1.9509 0.56314-1.1363 0-2.0313-0.43241v-1.4179q0.51286 0.22123 1.0559 0.4123 0.55308 0.18101 1.0961 0.18101 0.56314 0 0.79442-0.21118 0.24134-0.22123 0.24134-0.55308 0-0.27151-0.19106-0.46258-0.18101-0.19106-0.49274-0.35196-0.31174-0.17095-0.71398-0.36202-0.2514-0.12067-0.54302-0.28157-0.29162-0.17095-0.56314-0.4123-0.26146-0.2514-0.43241-0.60336t-0.17095-0.8447q0-0.96538 0.65364-1.4983 0.65364-0.54302 1.7799-0.54302 0.56314 0 1.0659 0.13073 0.51286 0.13073 1.0659 0.37207l-0.49274 1.1866q-0.49274-0.20112-0.88493-0.31174-0.39218-0.11062-0.80448-0.11062-0.43241 0-0.6637 0.20112t-0.23129 0.52291q0 0.38213 0.3419 0.60336t1.0157 0.54302q0.55308 0.26146 0.93521 0.54302 0.39218 0.28157 0.60336 0.6637t0.21118 0.94526zm7.19 1.9911h-1.5185v-3.0972h-2.8458v3.0972h-1.5185v-7.18h1.5185v2.8157h2.8458v-2.8157h1.5185zm5.9431 0h-4.133v-7.18h4.133v1.2469h-2.6146v1.5788h2.4336v1.2469h-2.4336v1.8503h2.6146zm1.4983 0v-7.18h1.5185v5.923h2.9162v1.257zm5.6816 0v-7.18h1.5185v5.923h2.9162v1.257z"/>
		</g>
	</g>
</svg>
