<?xml version="1.0" encoding="UTF-8" standalone="no"?>
<svg
   width="250"
   height="50"
   version="1.1"
   viewBox="0 0 250 50"
   id="svg11"
   sodipodi:docname="sponsor-210x50.svg"
   inkscape:version="1.3.2 (091e20ef0f, 2023-11-25)"
   xmlns:inkscape="http://www.inkscape.org/namespaces/inkscape"
   xmlns:sodipodi="http://sodipodi.sourceforge.net/DTD/sodipodi-0.dtd"
   xmlns="http://www.w3.org/2000/svg"
   xmlns:svg="http://www.w3.org/2000/svg">
  <defs
     id="defs11" />
  <sodipodi:namedview
     id="namedview11"
     pagecolor="#505050"
     bordercolor="#ffffff"
     borderopacity="1"
     inkscape:showpageshadow="0"
     inkscape:pageopacity="0"
     inkscape:pagecheckerboard="1"
     inkscape:deskcolor="#505050"
     inkscape:zoom="3.352"
     inkscape:cx="132.45823"
     inkscape:cy="25.357995"
     inkscape:window-width="1920"
     inkscape:window-height="971"
     inkscape:window-x="0"
     inkscape:window-y="40"
     inkscape:window-maximized="1"
     inkscape:current-layer="foreground" />
  <g
     id="foreground"
     transform="translate(36.773)">
    <rect
       id="background"
       x="-18.384642"
       y="0"
       width="213.22328"
       height="50"
       rx="5.076818"
       ry="4.9999995"
       style="fill:#ffeeaa;stroke:none;stroke-width:1.00765;stroke-linecap:round;stroke-linejoin:round" />
    <path
       style="font-size:33.3333px;line-height:0.7;font-family:'Darker Grotesque';-inkscape-font-specification:'Darker Grotesque';letter-spacing:0px;word-spacing:0px;fill:#333333;stroke-width:0;stroke-linecap:square;stroke-linejoin:round"
       d="m 33.877079,34.749992 q -1.466665,0 -2.833331,-0.366667 -1.366665,-0.333333 -2.499998,-1.066665 -1.133332,-0.766666 -1.799998,-1.899999 -0.666666,-1.166665 -0.699999,-2.799997 h 1.533332 q 0,0.1 0.06667,0.6 0.06667,0.499999 0.333333,1.199998 0.3,0.7 0.966666,1.366666 0.699999,0.666667 1.899998,1.133332 1.233332,0.433333 3.13333,0.433333 1.733332,0 2.766664,-0.399999 1.066666,-0.433334 1.599999,-1.033333 0.533333,-0.633333 0.699999,-1.199999 0.2,-0.566666 0.2,-0.866666 0.03333,-1.266665 -0.633333,-2.033331 -0.666666,-0.799999 -1.799998,-1.266666 -1.133332,-0.499999 -2.466664,-0.833332 -1.333332,-0.333333 -2.699998,-0.699998 -1.333332,-0.4 -2.466664,-0.966666 -1.133332,-0.600001 -1.799998,-1.566666 -0.633333,-0.999998 -0.566666,-2.566665 0.06667,-1.466664 0.999999,-2.499997 0.966665,-1.066666 2.533331,-1.633331 1.599998,-0.566666 3.499996,-0.566666 1.899998,0 3.43333,0.699999 1.566665,0.666665 2.466665,1.999998 0.933332,1.299999 0.866665,3.299997 h -1.499998 q 0.06667,-1.399999 -0.5,-2.299998 -0.566666,-0.899999 -1.433332,-1.399998 -0.866665,-0.5 -1.799998,-0.666666 -0.933332,-0.2 -1.666665,-0.2 -2.299998,0 -3.799996,0.966666 -1.466666,0.933332 -1.533332,2.399997 -0.03333,1.266666 0.633333,2.033332 0.666666,0.766666 1.799998,1.233332 1.133332,0.433333 2.466664,0.766666 1.366665,0.333333 2.699998,0.699999 1.333332,0.366666 2.433331,0.966666 1.133332,0.599999 1.766665,1.633332 0.666666,0.999999 0.633332,2.599997 -0.06667,1.533332 -0.999999,2.599998 -0.933332,1.066665 -2.466664,1.633331 -1.533332,0.566667 -3.466663,0.566667 z M 45.777056,34.316659 H 44.277058 V 15.55001 h 1.499998 z M 45.51039,15.55001 h 5.699995 q 3.066664,0 4.633329,1.466665 1.566665,1.433332 1.566665,4.366663 0,2.73333 -1.633331,4.233329 -1.599999,1.466665 -4.566663,1.466665 h -5.733327 v -1.299999 h 5.599994 q 2.399998,0 3.666663,-1.099998 1.266666,-1.099999 1.266666,-3.333331 0,-2.266664 -1.233332,-3.366663 -1.233332,-1.099999 -3.699997,-1.099999 h -5.566661 z m 22.433288,19.233315 q -4.399996,0 -6.699994,-2.633331 -2.299997,-2.666664 -2.299997,-7.16666 0,-2.966664 0.999999,-5.133328 0.999999,-2.199998 2.999997,-3.399997 1.999998,-1.233332 4.999995,-1.233332 4.399996,0 6.66666,2.666664 2.299998,2.633331 2.299998,7.099994 0,2.899996 -1.033332,5.133329 -0.999999,2.199998 -2.999997,3.433329 -1.966665,1.233332 -4.933329,1.233332 z m 0,-1.433332 q 2.499998,0 4.133329,-1.033332 1.666665,-1.066666 2.499998,-2.933331 0.866666,-1.899998 0.866666,-4.399996 0,-2.533331 -0.833333,-4.399996 -0.799999,-1.866664 -2.499997,-2.899997 -1.666665,-1.033332 -4.166663,-1.033332 -3.699996,0 -5.599995,2.199998 -1.899998,2.199998 -1.899998,6.133327 0,2.466665 0.799999,4.366663 0.8,1.866665 2.466665,2.93333 1.699998,1.066666 4.233329,1.066666 z M 93.710312,15.55001 h 1.499999 v 18.766649 h -2.799998 l -10.79999,-18.06665 h -0.06667 v 18.06665 H 80.043657 V 15.55001 h 2.633331 l 10.966656,18.066649 h 0.06667 z m 12.333338,19.199982 q -1.46667,0 -2.83333,-0.366667 -1.36667,-0.333333 -2.5,-1.066665 -1.133333,-0.766666 -1.800003,-1.899999 -0.66667,-1.166665 -0.7,-2.799997 h 1.53333 q 0,0.1 0.0667,0.6 0.0667,0.499999 0.333333,1.199998 0.3,0.7 0.96667,1.366666 0.7,0.666666 1.9,1.133332 1.23333,0.433333 3.13333,0.433333 1.73333,0 2.76666,-0.4 1.06667,-0.433333 1.6,-1.033332 0.53333,-0.633333 0.7,-1.199999 0.2,-0.566666 0.2,-0.866666 0.0333,-1.266665 -0.63333,-2.033331 -0.66667,-0.799999 -1.8,-1.266666 -1.13333,-0.499999 -2.46667,-0.833332 -1.33333,-0.333333 -2.69999,-0.699998 -1.33334,-0.4 -2.46667,-0.966666 -1.13333,-0.600001 -1.800003,-1.566666 -0.63333,-0.999998 -0.56666,-2.566665 0.0667,-1.466664 1,-2.499997 0.966663,-1.066666 2.533333,-1.633331 1.6,-0.566666 3.49999,-0.566666 1.9,0 3.43333,0.699999 1.56667,0.666665 2.46667,1.999998 0.93333,1.299999 0.86666,3.299997 h -1.49999 q 0.0667,-1.399999 -0.5,-2.299998 -0.56667,-0.899999 -1.43334,-1.399998 -0.86666,-0.5 -1.79999,-0.666666 -0.93334,-0.2 -1.66667,-0.2 -2.3,0 -3.8,0.966666 -1.46666,0.933332 -1.53333,2.399997 -0.0333,1.266666 0.63334,2.033332 0.66666,0.766666 1.79999,1.233332 1.13334,0.433333 2.46667,0.766666 1.36666,0.333333 2.7,0.699999 1.33333,0.366666 2.43333,0.966666 1.13333,0.599999 1.76666,1.633332 0.66667,0.999999 0.63333,2.599997 -0.0667,1.533332 -0.99999,2.599998 -0.93334,1.066665 -2.46667,1.633331 -1.53333,0.566667 -3.46666,0.566667 z m 17.93331,0.03333 q -4.4,0 -6.7,-2.633331 -2.29999,-2.666664 -2.29999,-7.16666 0,-2.966664 0.99999,-5.133328 1,-2.199998 3,-3.399997 2,-1.233331 5,-1.233331 4.39999,0 6.66666,2.666663 2.29999,2.633331 2.29999,7.099994 0,2.899996 -1.03333,5.133329 -1,2.199998 -2.99999,3.433329 -1.96667,1.233332 -4.93333,1.233332 z m 0,-1.433332 q 2.49999,0 4.13333,-1.033332 1.66666,-1.066666 2.49999,-2.933331 0.86667,-1.899998 0.86667,-4.399996 0,-2.533331 -0.83333,-4.399996 -0.8,-1.866664 -2.5,-2.899997 -1.66667,-1.033332 -4.16666,-1.033332 -3.7,0 -5.6,2.199998 -1.9,2.199998 -1.9,6.133327 0,2.466665 0.8,4.366663 0.8,1.866665 2.46667,2.93333 1.7,1.066667 4.23333,1.066666 z m 12.43331,0.966666 V 15.55001 h 5.83332 q 2.36667,0 4,0.466666 1.63333,0.466666 2.46666,1.599999 0.86667,1.133332 0.86667,3.199997 0,1.266665 -0.46667,2.366664 -0.46666,1.099999 -1.46666,1.799998 -0.96667,0.666666 -2.53333,0.666666 1.3,0 2.03333,0.5 0.73333,0.466666 1.03333,1.233332 0.33333,0.766666 0.4,1.666665 0.1,0.899999 0.1,1.766665 0,0.866666 0.1,1.533332 0.1,0.666666 0.46667,0.933332 0.36666,0.266667 1.16666,0 v 1.099999 q -0.16666,0.133333 -0.66666,0.233333 -0.46667,0.1 -1.03334,-0.06667 -0.56666,-0.166667 -0.96666,-0.766666 -0.4,-0.6 -0.4,-1.833332 0,-1.933331 -0.16667,-3.099997 -0.13333,-1.166665 -0.63333,-1.766665 -0.46667,-0.599999 -1.5,-0.833332 -1.03333,-0.233333 -2.76666,-0.233333 -1.7,0 -4.33333,0.03333 v 8.266659 z m 1.53333,-9.499991 h 4.89999 q 1.83333,0 3,-0.333333 1.2,-0.366667 1.76667,-1.199999 0.59999,-0.866666 0.59999,-2.399998 0,-1.766665 -0.73333,-2.599997 -0.73333,-0.866666 -2.1,-1.133333 -1.36666,-0.266666 -3.33333,-0.266666 h -4.09999 z"
       id="text1"
       aria-label="SPONSOR" />
  </g>
</svg>
