<svg width="50" height="50" version="1.1" viewBox="0 0 50 50" xmlns="http://www.w3.org/2000/svg">
 <defs>
  <style>.cls-1{fill:#003545;}</style>
  <linearGradient id="linearGradient2995" x1="-15.615" x2="-6.741" y1="-9.1083" y2="-9.1083" gradientTransform="matrix(-5.025e-7,11.486,-11.486,-5.025e-7,-30.84,202.19)" gradientUnits="userSpaceOnUse">
   <stop style="stop-color:#97d9f6" offset="0"/>
   <stop style="stop-color:#0f80cc" offset=".92024"/>
   <stop style="stop-color:#0f80cc" offset="1"/>
  </linearGradient>
 </defs>
 <style type="text/css">.specularity {opacity:0.5;}
	.low-specularity {opacity:0.25;}
	.full-specularity {opacity:1;}
	.black {fill:#000000;}
	.white {fill:#ffffff;}
	.outline-big {stroke-width:16;stroke:none;opacity:0.1;fill:none;}
	.outline-small {stroke-width:8;stroke:none;opacity:0.2;fill:none;}
	.stroke-highlight {fill:none;stroke:none;opacity:0.2;}
       	.base-shadow 	{fill:black;opacity:75;}</style>
 <g transform="matrix(.11054 0 0 .11054 3.8948 15.018)">
  <path id="SQLite" d="m147.53 89.219c-4.8225 0-8.7438 1.4275-11.75 4.2812-3.0062 2.8562-4.5312 6.6001-4.5312 11.188 0 2.3774 0.37875 4.545 1.125 6.5312 0.74625 1.9902 1.9075 3.834 3.4688 5.5 1.5612 1.6675 4.6862 3.9326 9.3438 6.8125 5.715 3.4889 9.455 6.3204 11.25 8.5312 1.7962 2.209 2.6875 4.524 2.6875 6.9375 0 3.2315-1.0638 5.811-3.25 7.75-2.19 1.9399-5.1188 2.9062-8.75 2.9062-3.83 0-7.1662-1.3501-10.031-4.0312-2.865-2.685-4.3112-6.2364-4.3438-10.688h-1.7812v16.156h1.7812c0.54375-1.5299 1.2962-2.3125 2.2812-2.3125 0.47375 0 1.5838 0.32675 3.3125 0.9375 4.2062 1.4966 7.66 2.2188 10.375 2.2188 4.6788 0 8.6725-1.6386 12-4.9688 3.3225-3.3286 5-7.3438 5-12.031 0-3.6348-1.1075-6.8686-3.2812-9.6875-2.1738-2.8222-6.4012-6.105-12.719-9.875-5.4362-3.2661-8.965-5.9262-10.594-8-1.6312-2.0708-2.4688-4.3614-2.4688-6.875 0-2.7188 0.99875-4.9025 2.9688-6.5313 1.97-1.63 4.5512-2.4375 7.7812-2.4375 3.635 0 6.665 1.0788 9.0625 3.25 2.395 2.175 3.78 5.189 4.1875 9.0625h1.7812v-14h-1.6562c-0.2025 0.71375-0.39 1.17-0.5625 1.375-0.1675 0.20375-0.49 0.3125-0.96875 0.3125-0.57625 0-1.6038-0.2425-3.0625-0.71875-3.125-1.0525-6.0062-1.5938-8.6562-1.5938zm58.219 0c-5.8762 0-11.211 1.385-16.031 4.1562-4.8275 2.7662-8.6488 6.6075-11.469 11.5-2.8188 4.8921-4.2188 10.088-4.2188 15.625 0 7.439 2.435 14.066 7.3438 19.875 4.9112 5.8051 10.796 9.4224 17.625 10.812 1.5612 0.8135 3.795 2.9135 6.7188 6.3125 3.295 3.8359 6.0825 6.6025 8.375 8.25 2.29 1.6484 4.7625 2.8565 7.375 3.6562 2.615 0.79638 5.4425 1.1875 8.5 1.1875 3.7025 0 7.0175-0.6435 9.9375-1.9688l-0.65625-1.625c-1.695 0.61138-3.5025 0.90625-5.4062 0.90625-2.5838 0-5.195-0.852-7.8125-2.5625-2.6138-1.7148-5.8825-4.9864-9.7812-9.8125-1.8325-2.3125-3.0975-3.7715-3.8125-4.3438 7.4712-1.459 13.615-5.08 18.406-10.875 4.79-5.7925 7.1875-12.403 7.1875-19.812 0-8.7974-3.13-16.191-9.3438-22.219-6.2188-6.0285-13.866-9.0625-22.938-9.0625zm36.344 0 0.0937 1.9062c3.9125 0 6.1038 1.1525 6.5938 3.4688 0.1825 0.82875 0.26625 2.359 0.28125 4.5625l-0.0312 42.156c-0.0325 3.1485-0.48125 5.1588-1.3438 6.0312-0.86375 0.86625-2.3238 1.4088-4.4375 1.625l-0.0937 1.9062h39l1-9.5625h-1.7812c-0.50875 2.605-1.675 4.4711-3.5312 5.5312-1.8612 1.0679-5.1525 1.5938-9.9062 1.5938h-3.6875c-4.2775 0-6.7525-1.5464-7.4062-4.6562-0.135-0.61525-0.18125-1.2749-0.1875-2l0.15625-42.625c-1e-3 -3.1435 0.39625-5.25 1.2188-6.2812 0.83125-1.0275 2.33-1.6025 4.5-1.75l-0.0937-1.9062h-20.344zm-35.719 2.3125c6.6275 0 12.039 2.6102 16.219 7.875 4.1788 5.2666 6.25 12.485 6.25 21.625 0 8.6611-2.1012 15.596-6.3125 20.812-4.2112 5.2148-9.8162 7.8125-16.781 7.8125-6.6912 0-12.118-2.6788-16.281-8.0625-4.16-5.3838-6.2188-12.374-6.2188-20.969 0-8.8325 2.0838-15.903 6.2812-21.188 4.195-5.279 9.8125-7.9062 16.844-7.9062zm89.688 9.0625c-0.95125 0-1.6762 0.32125-2.2188 0.96875-0.555 0.64499-0.725 1.4262-0.53125 2.375 0.1875 0.92037 0.70625 1.727 1.5312 2.4062 0.82 0.67861 1.705 1.0312 2.6562 1.0312 0.92 0 1.6212-0.35262 2.125-1.0312 0.50375-0.67925 0.6575-1.4859 0.46875-2.4062-0.19375-0.94876-0.695-1.73-1.4688-2.375-0.7825-0.6475-1.6425-0.96875-2.5625-0.96875zm25.719 6.4688c-1.6162 6.2177-5.12 9.5825-10.5 10.125l0.0625 1.7812h6.2812l-0.125 21.062c0.01 3.601 0.12 5.9985 0.375 7.2188 0.61875 2.9214 2.5262 4.4062 5.7188 4.4062 4.6188 0 9.4638-2.8135 14.531-8.4375l-1.5312-1.3125c-3.6588 3.7036-6.8938 5.5625-9.7188 5.5625-1.7362 0-2.8125-0.9985-3.2188-2.9688-0.11125-0.4785-0.15625-1.0376-0.15625-1.6875l0.0625-23.844h9.5938l-0.0937-2.8438h-9.4688v-9.0625h-1.8125zm37.094 7.9375c-5.3662 0-9.7312 2.605-13.125 7.7812-3.3762 5.185-4.4212 10.93-3.0938 17.25 0.78125 3.7021 2.3375 6.5714 4.7188 8.5938 2.3775 2.0215 5.3938 3.0312 9 3.0312 3.3575 0 8.0325-0.85012 10-2.5625 1.9725-1.7114 3.79-4.4839 5.4688-8.2812l-1.3438-1.4062c-2.6775 4.9262-8.0812 7.4062-12.156 7.4062-5.6025 0-9.0338-3.0738-10.312-9.1875-0.16625-0.78038-0.29-1.6188-0.375-2.5 6.665-1.0552 11.716-2.9239 15.125-5.625 3.4062-2.7026 6.8262-5.5674 6.1875-8.5937-0.38-1.7984-1.3138-3.2124-2.75-4.2812-1.455-1.0684-5.2325-1.625-7.3438-1.625zm-58.656 0.21875-11.562 2.6562v2.0625l4-0.5c1.9375 0 3.0775 0.87738 3.4375 2.625 0.12125 0.58488 0.1975 1.4062 0.21875 2.4375l-0.125 18.906c-0.0325 2.6162-0.3225 4.1371-0.90625 4.5938-0.58875 0.4575-2.1412 0.6875-4.6562 0.6875l-0.0625 1.7812h18.344l-0.0312-1.7812c-2.5488 0-4.2012-0.20112-4.9375-0.59375-0.72375-0.39012-1.2225-1.1001-1.4375-2.1875-0.16625-0.78363-0.23875-2.1339-0.25-4l0.0625-26.687h-2.0938zm55.719 3.5c1.1162 0 2.195 0.43112 3.2812 1.2812 1.0712 0.84713 1.7238 1.7891 1.9375 2.8125 1.0462 5.0264-3.41 8.5014-13.438 10.437-0.28625-3.6651 0.34875-6.9922 1.9688-10 1.6075-3.0049 3.7012-4.5312 6.25-4.5312z" style="fill:#003b57"/>
  <path id="solid-background" d="m121.63 17.036h-99.506c-6.669 0-12.126 5.4575-12.126 12.126v109.74c0 6.6684 5.4565 12.125 12.126 12.125h65.537c-0.74387-32.609 10.392-95.894 33.969-133.99z" style="fill:#0f80cc"/>
  <path id="gradient-background" d="m118.02 20.574h-95.891c-4.7354 0-8.5889 3.8525-8.5889 8.5888v101.73c21.717-8.335 54.312-15.527 76.85-15.2 4.5289-23.681 17.839-70.09 27.63-95.119z" style="fill:url(#linearGradient2995)"/>
  <path id="feather" d="m144.84 13.445c-6.815-6.0775-15.066-3.6362-23.21 3.5912-1.2088 1.0738-2.415 2.265-3.615 3.5375-13.931 14.779-26.862 42.154-30.88 63.06 1.565 3.1738 2.7875 7.2238 3.5925 10.318 0.20625 0.79375 0.3925 1.5388 0.54125 2.1725 0.35375 1.4999 0.54375 2.4725 0.54375 2.4725s-0.125-0.47262-0.6375-1.9588c-0.0975-0.285-0.20625-0.59625-0.335-0.9625-0.055-0.15125-0.13125-0.335-0.215-0.53125-0.90875-2.1125-3.4225-6.5712-4.5288-8.5125-0.94625 2.7912-1.7825 5.4025-2.4825 7.765 3.1938 5.8435 5.14 15.858 5.14 15.858s-0.16875-0.649-0.97125-2.9141c-0.7125-2.0034-4.2612-8.2211-5.1019-9.6748-1.438 5.3085-2.0094 8.8925-1.4941 9.7651 1.0004 1.6909 1.9531 4.6084 2.7898 7.8349 1.89 7.2686 3.2038 16.117 3.2038 16.117s0.0425 0.58637 0.11375 1.4888c-0.2625 6.104-0.105 12.433 0.3675 18.153 0.62625 7.5722 1.805 14.077 3.3075 17.558l1.02-0.55612c-2.2062-6.8589-3.1025-15.848-2.71-26.214 0.59375-15.845 4.24-34.954 10.978-54.87 11.382-30.065 27.175-54.188 41.629-65.708-13.174 11.898-31.004 50.409-36.341 64.67-5.9762 15.97-10.211 30.956-12.764 45.315 4.4038-13.461 18.642-19.247 18.642-19.247s6.9838-8.6129 15.145-20.918c-4.8888 1.115-12.916 3.0238-15.605 4.1538-3.9662 1.6638-5.035 2.2312-5.035 2.2312s12.848-7.8238 23.87-11.366c15.159-23.875 31.674-57.792 15.042-72.629" style="fill:#003b57"/>
 </g>
</svg>
