<?xml version="1.0" encoding="UTF-8" standalone="no"?>
<svg
   width="250"
   height="50"
   version="1.1"
   viewBox="0 0 250 50"
   id="svg19"
   sodipodi:docname="website-210x50.svg"
   inkscape:version="1.3.2 (091e20ef0f, 2023-11-25)"
   xmlns:inkscape="http://www.inkscape.org/namespaces/inkscape"
   xmlns:sodipodi="http://sodipodi.sourceforge.net/DTD/sodipodi-0.dtd"
   xmlns="http://www.w3.org/2000/svg"
   xmlns:svg="http://www.w3.org/2000/svg">
  <defs
     id="defs19" />
  <sodipodi:namedview
     id="namedview19"
     pagecolor="#505050"
     bordercolor="#ffffff"
     borderopacity="1"
     inkscape:showpageshadow="0"
     inkscape:pageopacity="0"
     inkscape:pagecheckerboard="1"
     inkscape:deskcolor="#505050"
     inkscape:zoom="3.352"
     inkscape:cx="124.40334"
     inkscape:cy="1.7899761"
     inkscape:window-width="1920"
     inkscape:window-height="971"
     inkscape:window-x="0"
     inkscape:window-y="40"
     inkscape:window-maximized="1"
     inkscape:current-layer="foreground" />
  <g
     id="foreground"
     transform="translate(36.773)">
    <rect
       id="background"
       x="-18.384642"
       y="0"
       width="213.22328"
       height="50"
       rx="5.076818"
       ry="4.9999995"
       style="fill:#f9f9f9;stroke:none;stroke-width:1.00765;stroke-linecap:round;stroke-linejoin:round" />
    <g
       id="content"
       inkscape:label="content"
       transform="translate(5.6420233)">
      <g
         id="logo"
         transform="matrix(0.3079747,0,0,0.3079747,6.243345,0.55450819)"
         inkscape:label="logo">
        <g
           fill="#ffffff"
           shape-rendering="auto"
           id="g7"
           style="fill:#1a1a1a;fill-opacity:1">
          <path
             d="m 79.375,25.258 c -29.857,0 -54.117,24.261 -54.117,54.117 1e-6,29.857 24.261,54.117 54.117,54.117 29.856,0 54.117,-24.261 54.117,-54.117 0,-29.857 -24.261,-54.117 -54.117,-54.117 z m 0,5.291 c 26.997,0 48.826,21.829 48.826,48.826 0,26.997 -21.829,48.826 -48.826,48.826 -26.997,0 -48.826,-21.829 -48.826,-48.826 0,-26.997 21.829,-48.826 48.826,-48.826 z"
             color="#000000"
             color-rendering="auto"
             dominant-baseline="auto"
             image-rendering="auto"
             solid-color="#000000"
             stop-color="#000000"
             style="font-variant-ligatures:normal;font-variant-position:normal;font-variant-caps:normal;font-variant-numeric:normal;font-variant-alternates:normal;font-variant-east-asian:normal;font-feature-settings:normal;font-variation-settings:normal;text-indent:0;text-decoration-line:none;text-decoration-style:solid;text-decoration-color:#000000;text-transform:none;text-orientation:mixed;white-space:normal;shape-padding:0;shape-margin:0;inline-size:0;isolation:auto;mix-blend-mode:normal;fill:#1a1a1a;fill-opacity:1"
             id="path1" />
          <path
             d="m 79.375,25.275 c -10.859,0 -20.537,6.3818 -27.334,16.211 -6.7966,9.8291 -10.891,23.186 -10.891,37.889 0,14.703 4.0941,28.06 10.891,37.889 6.7966,9.8291 16.475,16.211 27.334,16.211 10.859,0 20.537,-6.3818 27.334,-16.211 6.7966,-9.8291 10.891,-23.186 10.891,-37.889 0,-14.703 -4.0941,-28.06 -10.891,-37.889 C 99.9124,31.6569 90.234,25.275 79.375,25.275 Z m 0,5.291 c 8.7909,0 16.902,5.1362 22.982,13.93 6.0804,8.7935 9.9512,21.165 9.9512,34.879 0,13.714 -3.8707,26.085 -9.9512,34.879 -6.0804,8.7935 -14.192,13.93 -22.982,13.93 -8.79,0 -16.902,-5.1362 -22.982,-13.93 -6.0804,-8.7935 -9.9512,-21.165 -9.9512,-34.879 0,-13.714 3.8707,-26.085 9.9512,-34.879 6.0805,-8.794 14.192,-13.93 22.982,-13.93 z"
             color="#000000"
             color-rendering="auto"
             dominant-baseline="auto"
             image-rendering="auto"
             solid-color="#000000"
             stop-color="#000000"
             style="font-variant-ligatures:normal;font-variant-position:normal;font-variant-caps:normal;font-variant-numeric:normal;font-variant-alternates:normal;font-variant-east-asian:normal;font-feature-settings:normal;font-variation-settings:normal;text-indent:0;text-decoration-line:none;text-decoration-style:solid;text-decoration-color:#000000;text-transform:none;text-orientation:mixed;white-space:normal;shape-padding:0;shape-margin:0;inline-size:0;isolation:auto;mix-blend-mode:normal;fill:#1a1a1a;fill-opacity:1"
             id="path2" />
          <path
             d="m 79.375,25.275 c -10.859,0 -20.537,6.3818 -27.334,16.211 -6.7966,9.8291 -10.891,23.186 -10.891,37.889 0,14.703 4.0941,28.06 10.891,37.889 6.7966,9.8291 16.475,16.211 27.334,16.211 10.859,0 20.537,-6.3818 27.334,-16.211 6.7966,-9.8291 10.891,-23.186 10.891,-37.889 0,-14.703 -4.0941,-28.06 -10.891,-37.889 C 99.9124,31.6569 90.234,25.275 79.375,25.275 Z m 0,5.291 c 8.7909,0 16.902,5.1362 22.982,13.93 6.0804,8.7935 9.9512,21.165 9.9512,34.879 0,13.714 -3.8707,26.085 -9.9512,34.879 -6.0804,8.7935 -14.192,13.93 -22.982,13.93 -8.79,0 -16.902,-5.1362 -22.982,-13.93 -6.0804,-8.7935 -9.9512,-21.165 -9.9512,-34.879 0,-13.714 3.8707,-26.085 9.9512,-34.879 6.0805,-8.794 14.192,-13.93 22.982,-13.93 z"
             color="#000000"
             color-rendering="auto"
             dominant-baseline="auto"
             image-rendering="auto"
             solid-color="#000000"
             stop-color="#000000"
             style="font-variant-ligatures:normal;font-variant-position:normal;font-variant-caps:normal;font-variant-numeric:normal;font-variant-alternates:normal;font-variant-east-asian:normal;font-feature-settings:normal;font-variation-settings:normal;text-indent:0;text-decoration-line:none;text-decoration-style:solid;text-decoration-color:#000000;text-transform:none;text-orientation:mixed;white-space:normal;shape-padding:0;shape-margin:0;inline-size:0;isolation:auto;mix-blend-mode:normal;fill:#1a1a1a;fill-opacity:1"
             id="path3" />
          <path
             d="m 79.375,25.275 c -3.2662,0 -5.8472,2.2548 -7.8164,5.2285 -1.9692,2.9737 -3.5707,6.9495 -4.9219,11.773 -2.7024,9.6479 -4.3203,22.689 -4.3203,37.098 0,14.409 1.618,27.45 4.3203,37.098 1.3512,4.8239 2.9526,8.7998 4.9219,11.773 1.9692,2.9737 4.5502,5.2285 7.8164,5.2285 3.2662,0 5.8472,-2.2548 7.8164,-5.2285 1.9692,-2.9737 3.5707,-6.9495 4.9219,-11.773 2.7024,-9.6479 4.3203,-22.689 4.3203,-37.098 0,-14.409 -1.618,-27.45 -4.3203,-37.098 C 90.7621,37.4526 89.1607,33.4767 87.1914,30.5035 85.2221,27.5303 82.6412,25.275 79.375,25.275 Z m 0,5.291 c 0.71364,0 1.925,0.62563 3.4043,2.8594 1.4793,2.23377 2.9814,5.7919 4.2383,10.279 2.5138,8.9747 4.123,21.662 4.123,35.67 0,14.008 -1.6092,26.695 -4.123,35.67 -1.2569,4.4874 -2.759,8.0456 -4.2383,10.279 -1.4792,2.2337 -2.6907,2.8594 -3.4043,2.8594 -0.7136,0 -1.925,-0.62563 -3.4043,-2.8594 -1.4792,-2.2338 -2.9814,-5.7919 -4.2383,-10.279 -2.5138,-8.9747 -4.123,-21.662 -4.123,-35.67 0,-14.008 1.6092,-26.695 4.123,-35.67 1.2569,-4.4874 2.759,-8.0456 4.2383,-10.279 C 77.45,31.192 78.6614,30.566 79.375,30.566 Z"
             color="#000000"
             color-rendering="auto"
             dominant-baseline="auto"
             image-rendering="auto"
             solid-color="#000000"
             stop-color="#000000"
             style="font-variant-ligatures:normal;font-variant-position:normal;font-variant-caps:normal;font-variant-numeric:normal;font-variant-alternates:normal;font-variant-east-asian:normal;font-feature-settings:normal;font-variation-settings:normal;text-indent:0;text-decoration-line:none;text-decoration-style:solid;text-decoration-color:#000000;text-transform:none;text-orientation:mixed;white-space:normal;shape-padding:0;shape-margin:0;inline-size:0;isolation:auto;mix-blend-mode:normal;fill:#1a1a1a;fill-opacity:1"
             id="path4" />
          <path
             d="m 27.959,78.053 a 2.6461,2.6461 0 0 0 -0.27148,0.01758 2.6461,2.6461 0 0 0 -0.13672,0.01953 2.6461,2.6461 0 0 0 -0.39648,0.09961 2.6461,2.6461 0 0 0 -0.12891,0.04687 2.6461,2.6461 0 0 0 -0.125,0.05469 2.6461,2.6461 0 0 0 -0.12305,0.05859 2.6461,2.6461 0 0 0 -0.23633,0.13867 2.6461,2.6461 0 0 0 -0.2207,0.16211 2.6461,2.6461 0 0 0 -0.10352,0.08984 2.6461,2.6461 0 0 0 -0.28125,0.29883 2.6461,2.6461 0 0 0 -0.08203,0.10742 2.6461,2.6461 0 0 0 -0.14844,0.23047 2.6461,2.6461 0 0 0 -0.125,0.24414 2.6461,2.6461 0 0 0 -0.05273,0.125 2.6461,2.6461 0 0 0 -0.11719,0.39258 2.6461,2.6461 0 0 0 -0.02539,0.13477 2.6461,2.6461 0 0 0 -0.01758,0.13672 2.6461,2.6461 0 0 0 -0.01172,0.13477 2.6461,2.6461 0 0 0 -0.0039,0.13672 2.6461,2.6461 0 0 0 0.002,0.13672 2.6461,2.6461 0 0 0 0.16406,0.80274 2.6461,2.6461 0 0 0 0.05078,0.12695 2.6461,2.6461 0 0 0 0.05664,0.12305 2.6461,2.6461 0 0 0 0.06445,0.12109 2.6461,2.6461 0 0 0 0.07031,0.11719 2.6461,2.6461 0 0 0 0.24414,0.33008 2.6461,2.6461 0 0 0 0.0918,0.09961 2.6461,2.6461 0 0 0 0.20117,0.18555 2.6461,2.6461 0 0 0 0.69922,0.42383 2.6461,2.6461 0 0 0 0.39062,0.125 2.6461,2.6461 0 0 0 0.26953,0.04883 2.6461,2.6461 0 0 0 0.13672,0.01367 2.6461,2.6461 0 0 0 0.16602,0.0078 h 102.83 a 2.6461,2.6461 0 0 0 0.13671,-0.0059 2.6461,2.6461 0 0 0 0.13477,-0.01172 2.6461,2.6461 0 0 0 0.5332,-0.11914 2.6461,2.6461 0 0 0 0.25391,-0.10156 2.6461,2.6461 0 0 0 0.12305,-0.06055 2.6461,2.6461 0 0 0 0.12109,-0.06445 2.6461,2.6461 0 0 0 0.11523,-0.07227 2.6461,2.6461 0 0 0 0.11329,-0.08008 2.6461,2.6461 0 0 0 0.10742,-0.08203 2.6461,2.6461 0 0 0 0.46679,-0.49805 2.6461,2.6461 0 0 0 0.41016,-0.85938 2.6461,2.6461 0 0 0 0.0332,-0.13281 2.6461,2.6461 0 0 0 0.0254,-0.13476 2.6461,2.6461 0 0 0 0.0293,-0.27148 2.6461,2.6461 0 0 0 0.002,-0.27344 2.6461,2.6461 0 0 0 -0.0273,-0.27148 2.6461,2.6461 0 0 0 -0.0918,-0.40039 2.6461,2.6461 0 0 0 -0.0449,-0.12891 2.6461,2.6461 0 0 0 -0.24219,-0.49024 2.6461,2.6461 0 0 0 -0.0742,-0.11328 2.6461,2.6461 0 0 0 -0.082,-0.10938 2.6461,2.6461 0 0 0 -0.0879,-0.10547 2.6461,2.6461 0 0 0 -0.0918,-0.09961 2.6461,2.6461 0 0 0 -0.0977,-0.0957 2.6461,2.6461 0 0 0 -0.55675,-0.39642 2.6461,2.6461 0 0 0 -0.63672,-0.24219 2.6461,2.6461 0 0 0 -0.13476,-0.02734 2.6461,2.6461 0 0 0 -0.40625,-0.04297 2.6461,2.6461 0 0 0 -0.0312,0 z"
             color="#000000"
             color-rendering="auto"
             dominant-baseline="auto"
             image-rendering="auto"
             solid-color="#000000"
             stop-color="#000000"
             style="font-variant-ligatures:normal;font-variant-position:normal;font-variant-caps:normal;font-variant-numeric:normal;font-variant-alternates:normal;font-variant-east-asian:normal;font-feature-settings:normal;font-variation-settings:normal;text-indent:0;text-decoration-line:none;text-decoration-style:solid;text-decoration-color:#000000;text-transform:none;text-orientation:mixed;white-space:normal;shape-padding:0;shape-margin:0;inline-size:0;isolation:auto;mix-blend-mode:normal;fill:#1a1a1a;fill-opacity:1"
             id="path5" />
          <path
             d="m 41.133,111.17 a 2.6461,2.6461 0 0 0 -0.27344,0.0176 2.6461,2.6461 0 0 0 -0.13477,0.0215 2.6461,2.6461 0 0 0 -0.39648,0.0996 2.6461,2.6461 0 0 0 -0.12891,0.0469 2.6461,2.6461 0 0 0 -0.12695,0.0527 2.6461,2.6461 0 0 0 -0.12305,0.0606 2.6461,2.6461 0 0 0 -0.23438,0.13867 2.6461,2.6461 0 0 0 -0.2207,0.16211 2.6461,2.6461 0 0 0 -0.10352,0.0898 2.6461,2.6461 0 0 0 -0.28125,0.29688 2.6461,2.6461 0 0 0 -0.08398,0.10937 2.6461,2.6461 0 0 0 -0.14844,0.23047 2.6461,2.6461 0 0 0 -0.12305,0.24219 2.6461,2.6461 0 0 0 -0.05273,0.12695 2.6461,2.6461 0 0 0 -0.11719,0.39258 2.6461,2.6461 0 0 0 -0.02539,0.13476 2.6461,2.6461 0 0 0 -0.01758,0.13477 2.6461,2.6461 0 0 0 -0.01172,0.13672 2.6461,2.6461 0 0 0 -0.0059,0.13672 2.6461,2.6461 0 0 0 0.0039,0.13672 2.6461,2.6461 0 0 0 0.16211,0.80078 2.6461,2.6461 0 0 0 0.05273,0.12695 2.6461,2.6461 0 0 0 0.05664,0.125 2.6461,2.6461 0 0 0 0.06445,0.12109 2.6461,2.6461 0 0 0 0.06836,0.11719 2.6461,2.6461 0 0 0 0.24609,0.32813 2.6461,2.6461 0 0 0 0.0918,0.10156 2.6461,2.6461 0 0 0 0.20117,0.18555 2.6461,2.6461 0 0 0 0.69922,0.42187 2.6461,2.6461 0 0 0 0.39062,0.125 2.6461,2.6461 0 0 0 0.26953,0.0488 2.6461,2.6461 0 0 0 0.13477,0.0156 2.6461,2.6461 0 0 0 0.13672,0.006 2.6461,2.6461 0 0 0 0.03125,0.002 h 76.559 a 2.6461,2.6461 0 0 0 0.13671,-0.006 2.6461,2.6461 0 0 0 0.13672,-0.0137 2.6461,2.6461 0 0 0 0.53125,-0.11915 2.6461,2.6461 0 0 0 0.25586,-0.0996 2.6461,2.6461 0 0 0 0.12305,-0.0606 2.6461,2.6461 0 0 0 0.11914,-0.0664 2.6461,2.6461 0 0 0 0.11524,-0.0723 2.6461,2.6461 0 0 0 0.11328,-0.0781 2.6461,2.6461 0 0 0 0.10742,-0.084 2.6461,2.6461 0 0 0 0.4668,-0.4961 2.6461,2.6461 0 0 0 0.41015,-0.85937 2.6461,2.6461 0 0 0 0.0332,-0.13281 2.6461,2.6461 0 0 0 0.0254,-0.13477 2.6461,2.6461 0 0 0 0.0293,-0.27148 2.6461,2.6461 0 0 0 0.002,-0.27344 2.6461,2.6461 0 0 0 -0.0273,-0.27149 2.6461,2.6461 0 0 0 -0.0918,-0.40039 2.6461,2.6461 0 0 0 -0.043,-0.1289 2.6461,2.6461 0 0 0 -0.24219,-0.49024 2.6461,2.6461 0 0 0 -0.0762,-0.11328 2.6461,2.6461 0 0 0 -0.082,-0.10937 2.6461,2.6461 0 0 0 -0.0879,-0.10547 2.6461,2.6461 0 0 0 -0.0918,-0.10156 2.6461,2.6461 0 0 0 -0.0977,-0.0957 2.6461,2.6461 0 0 0 -0.55469,-0.39648 2.6461,2.6461 0 0 0 -0.63867,-0.24024 2.6461,2.6461 0 0 0 -0.13476,-0.0293 2.6461,2.6461 0 0 0 -0.4375,-0.043 z"
             color="#000000"
             color-rendering="auto"
             dominant-baseline="auto"
             image-rendering="auto"
             solid-color="#000000"
             stop-color="#000000"
             style="font-variant-ligatures:normal;font-variant-position:normal;font-variant-caps:normal;font-variant-numeric:normal;font-variant-alternates:normal;font-variant-east-asian:normal;font-feature-settings:normal;font-variation-settings:normal;text-indent:0;text-decoration-line:none;text-decoration-style:solid;text-decoration-color:#000000;text-transform:none;text-orientation:mixed;white-space:normal;shape-padding:0;shape-margin:0;inline-size:0;isolation:auto;mix-blend-mode:normal;fill:#1a1a1a;fill-opacity:1"
             id="path6" />
          <path
             d="m 40.012,43.734 a 2.6461,2.6461 0 0 0 -0.27148,0.01758 2.6461,2.6461 0 0 0 -0.13672,0.01953 2.6461,2.6461 0 0 0 -0.39648,0.09961 2.6461,2.6461 0 0 0 -0.12891,0.04687 2.6461,2.6461 0 0 0 -0.125,0.05469 2.6461,2.6461 0 0 0 -0.12305,0.05859 2.6461,2.6461 0 0 0 -0.23633,0.13867 2.6461,2.6461 0 0 0 -0.2207,0.16211 2.6461,2.6461 0 0 0 -0.10352,0.08984 2.6461,2.6461 0 0 0 -0.28125,0.29883 2.6461,2.6461 0 0 0 -0.08203,0.10742 2.6461,2.6461 0 0 0 -0.14844,0.23047 2.6461,2.6461 0 0 0 -0.125,0.24414 2.6461,2.6461 0 0 0 -0.05273,0.125 2.6461,2.6461 0 0 0 -0.11719,0.39258 2.6461,2.6461 0 0 0 -0.02539,0.13477 2.6461,2.6461 0 0 0 -0.01758,0.13672 2.6461,2.6461 0 0 0 -0.01172,0.13476 2.6461,2.6461 0 0 0 -0.0039,0.13672 2.6461,2.6461 0 0 0 0.002,0.13672 2.6461,2.6461 0 0 0 0.16406,0.80273 2.6461,2.6461 0 0 0 0.05078,0.12695 2.6461,2.6461 0 0 0 0.05664,0.12305 2.6461,2.6461 0 0 0 0.06445,0.12109 2.6461,2.6461 0 0 0 0.07031,0.11719 2.6461,2.6461 0 0 0 0.24414,0.32812 2.6461,2.6461 0 0 0 0.0918,0.10156 2.6461,2.6461 0 0 0 0.20117,0.18555 2.6461,2.6461 0 0 0 0.69922,0.42383 2.6461,2.6461 0 0 0 0.39062,0.125 2.6461,2.6461 0 0 0 0.26953,0.04883 2.6461,2.6461 0 0 0 0.13672,0.01367 2.6461,2.6461 0 0 0 0.16602,0.0078 h 78.801 a 2.6461,2.6461 0 0 0 0.13672,-0.0059 2.6461,2.6461 0 0 0 0.13476,-0.01172 2.6461,2.6461 0 0 0 0.53321,-0.12109 2.6461,2.6461 0 0 0 0.2539,-0.09961 2.6461,2.6461 0 0 0 0.12305,-0.06055 2.6461,2.6461 0 0 0 0.12109,-0.06445 2.6461,2.6461 0 0 0 0.11524,-0.07422 2.6461,2.6461 0 0 0 0.11133,-0.07813 2.6461,2.6461 0 0 0 0.10937,-0.08203 2.6461,2.6461 0 0 0 0.4668,-0.49805 2.6461,2.6461 0 0 0 0.41015,-0.85938 2.6461,2.6461 0 0 0 0.0332,-0.13281 2.6461,2.6461 0 0 0 0.0254,-0.13477 2.6461,2.6461 0 0 0 0.0293,-0.27148 2.6461,2.6461 0 0 0 0.002,-0.27344 2.6461,2.6461 0 0 0 -0.0273,-0.27148 2.6461,2.6461 0 0 0 -0.0918,-0.40039 2.6461,2.6461 0 0 0 -0.0449,-0.12891 2.6461,2.6461 0 0 0 -0.24219,-0.49023 2.6461,2.6461 0 0 0 -0.0762,-0.11328 2.6461,2.6461 0 0 0 -0.082,-0.10938 2.6461,2.6461 0 0 0 -0.0859,-0.10547 2.6461,2.6461 0 0 0 -0.0937,-0.09961 2.6461,2.6461 0 0 0 -0.0977,-0.0957 2.6461,2.6461 0 0 0 -0.55469,-0.39648 2.6461,2.6461 0 0 0 -0.63671,-0.24219 2.6461,2.6461 0 0 0 -0.13477,-0.02734 2.6461,2.6461 0 0 0 -0.4082,-0.04297 2.6461,2.6461 0 0 0 -0.0293,0 z"
             color="#000000"
             color-rendering="auto"
             dominant-baseline="auto"
             image-rendering="auto"
             solid-color="#000000"
             stop-color="#000000"
             style="font-variant-ligatures:normal;font-variant-position:normal;font-variant-caps:normal;font-variant-numeric:normal;font-variant-alternates:normal;font-variant-east-asian:normal;font-feature-settings:normal;font-variation-settings:normal;text-indent:0;text-decoration-line:none;text-decoration-style:solid;text-decoration-color:#000000;text-transform:none;text-orientation:mixed;white-space:normal;shape-padding:0;shape-margin:0;inline-size:0;isolation:auto;mix-blend-mode:normal;fill:#1a1a1a;fill-opacity:1"
             id="path7" />
        </g>
        <rect
           x="15.875"
           y="57.645"
           width="127"
           height="43.459999"
           rx="1.3229001"
           ry="1.3229001"
           fill="#00aa00"
           stroke="#ffffff"
           stroke-linecap="round"
           stroke-linejoin="round"
           stroke-width="5.2917"
           id="rect7"
           style="fill:#1a1a1a;fill-opacity:1;stroke:none" />
        <g
           fill="#ffffff"
           stroke-width="0.26458"
           aria-label="WWW"
           id="g10">
          <path
             d="m 57.52,66.781 -6.3147,25.188 h -6.985 L 41.2922,79.798 q -0.10583,-0.35278 -0.28222,-1.1289 -0.14111,-0.77611 -0.3175,-1.6933 -0.17639,-0.91722 -0.35278,-1.7639 -0.14111,-0.88195 -0.17639,-1.4464 -0.07056,0.56444 -0.24694,1.4464 -0.14111,0.84667 -0.3175,1.7639 -0.17639,0.91722 -0.35278,1.6933 -0.17639,0.77608 -0.24694,1.1289 l -2.9633,12.171 h -6.9497 l -6.35,-25.188 h 5.8561 l 2.9986,13.229 q 0.17639,0.74083 0.42333,1.9756 0.24694,1.2347 0.45861,2.54 0.24694,1.27 0.35278,2.1167 0.14111,-1.1289 0.42333,-2.6458 0.28222,-1.5522 0.56444,-2.9633 0.3175,-1.4464 0.52917,-2.2578 l 2.9986,-11.994 h 5.6092 l 2.9986,11.994 q 0.14111,0.59972 0.35278,1.5875 0.21167,0.98778 0.42333,2.1519 0.21167,1.1289 0.38806,2.2225 0.21167,1.0936 0.3175,1.905 0.10583,-0.84667 0.3175,-2.1167 0.24694,-1.3053 0.49389,-2.5047 0.24694,-1.2347 0.42333,-1.9756 l 2.9986,-13.264 z"
             id="path8" />
          <path
             d="m 96.767,66.781 -6.3147,25.188 h -6.985 L 80.5392,79.798 q -0.10583,-0.35278 -0.28222,-1.1289 -0.14111,-0.77611 -0.3175,-1.6933 -0.17639,-0.91722 -0.35278,-1.7639 -0.14111,-0.88195 -0.17639,-1.4464 -0.07056,0.56444 -0.24694,1.4464 -0.14111,0.84667 -0.3175,1.7639 -0.17639,0.91722 -0.35278,1.6933 -0.17639,0.77608 -0.24694,1.1289 l -2.9633,12.171 h -6.9497 l -6.35,-25.188 h 5.8561 l 2.9986,13.229 q 0.17639,0.74083 0.42333,1.9756 0.24694,1.2347 0.45861,2.54 0.24694,1.27 0.35278,2.1167 0.14111,-1.1289 0.42333,-2.6458 0.28222,-1.5522 0.56444,-2.9633 0.3175,-1.4464 0.52917,-2.2578 l 2.9986,-11.994 h 5.6092 l 2.9986,11.994 q 0.14111,0.59972 0.35278,1.5875 0.21167,0.98778 0.42333,2.1519 0.21167,1.1289 0.38806,2.2225 0.21167,1.0936 0.3175,1.905 0.10583,-0.84667 0.3175,-2.1167 0.24694,-1.3053 0.49389,-2.5047 0.24694,-1.2347 0.42333,-1.9756 l 2.9986,-13.264 z"
             id="path9" />
          <path
             d="m 136.01,66.781 -6.3147,25.188 h -6.985 l -2.9281,-12.171 q -0.10583,-0.35278 -0.28222,-1.1289 -0.14111,-0.77611 -0.3175,-1.6933 -0.17639,-0.91722 -0.35278,-1.7639 -0.14111,-0.88195 -0.17639,-1.4464 -0.0706,0.56444 -0.24694,1.4464 -0.14111,0.84667 -0.3175,1.7639 -0.17639,0.91722 -0.35278,1.6933 -0.17639,0.77608 -0.24695,1.1289 l -2.9633,12.171 h -6.9497 l -6.35,-25.188 h 5.8561 l 2.9986,13.229 q 0.17639,0.74083 0.42333,1.9756 0.24694,1.23477 0.45861,2.54 0.24695,1.27 0.35278,2.1167 0.14111,-1.1289 0.42333,-2.6458 0.28223,-1.5522 0.56445,-2.9633 0.3175,-1.4464 0.52917,-2.2578 l 2.9986,-11.994 h 5.6092 l 2.9986,11.994 q 0.14111,0.59972 0.35278,1.5875 0.21167,0.98778 0.42333,2.1519 0.21167,1.1289 0.38806,2.2225 0.21167,1.0936 0.3175,1.905 0.10583,-0.84667 0.3175,-2.1167 0.24694,-1.3053 0.49389,-2.5047 0.24694,-1.2347 0.42333,-1.9756 l 2.9986,-13.264 z"
             id="path10" />
        </g>
      </g>
      <path
         d="m 68.904375,15.069082 h 1.633332 L 69.704374,17.16908 64.304379,33.835731 H 61.771048 L 56.004387,15.069082 h 1.633332 l 5.433328,17.999983 z m 12.933321,0 h 1.666665 L 77.4377,33.835731 H 74.937703 L 69.704374,17.16908 68.937708,15.069082 h 1.599999 l 5.633328,17.999983 z m 8.933331,19.099982 q -2.166664,0 -3.599996,-1.033333 -1.399999,-1.033332 -2.099998,-2.633331 -0.699999,-1.633331 -0.666666,-3.366663 0,-1.799998 0.733333,-3.366664 0.733332,-1.566665 2.133331,-2.499997 1.433332,-0.966666 3.466663,-0.966666 1.699999,0 2.999993,0.766666 1.33334,0.733333 2.13334,2.099998 0.79999,1.333332 0.89999,3.199997 0.0333,0.166667 0.0333,0.4 0,0.233333 0,0.433333 H 85.871032 q 0,2.566664 1.266666,4.099996 1.299998,1.533331 3.633329,1.533331 1.699999,0 2.93333,-0.899999 1.26667,-0.899999 1.56667,-2.433331 h 1.49999 q -0.23333,1.366666 -1.06666,2.433331 -0.83333,1.033333 -2.1,1.633332 -1.266664,0.6 -2.83333,0.6 z m -4.799995,-7.96666 h 9.266655 q -0.0333,-0.633332 -0.3,-1.399998 -0.23333,-0.799999 -0.76666,-1.533332 -0.53334,-0.733333 -1.400001,-1.199999 -0.833333,-0.466666 -2.033332,-0.466666 -1.099999,0 -1.933331,0.399999 -0.833333,0.366667 -1.433332,1 -0.566666,0.633332 -0.933333,1.466665 -0.333333,0.799999 -0.466666,1.733331 z m 20.666638,7.96666 q -1.33333,0 -2.26666,-0.466667 -0.93333,-0.466666 -1.56667,-1.133332 -0.6,-0.666666 -0.93333,-1.233332 -0.3,-0.599999 -0.36667,-0.766666 h -0.0667 l -0.26667,3.266664 H 99.870967 V 15.069082 h 1.600003 v 8.899991 h 0.0667 q 0.0667,-0.233333 0.33333,-0.799999 0.3,-0.599999 0.86667,-1.266665 0.6,-0.666666 1.53333,-1.133333 0.96666,-0.466666 2.36666,-0.466666 1.93333,0 3.26667,0.933333 1.36666,0.899999 2.06666,2.499997 0.73333,1.566665 0.73333,3.499997 0,1.966665 -0.73333,3.53333 -0.7,1.566665 -2.06666,2.499997 -1.33334,0.9 -3.26667,0.9 z m -0.2,-1.433332 q 1.66667,0 2.7,-0.766666 1.06667,-0.8 1.53333,-2.066665 0.5,-1.299999 0.5,-2.666664 0,-1.399999 -0.53333,-2.633331 -0.53333,-1.266665 -1.63333,-2.033331 -1.1,-0.8 -2.76667,-0.8 -1.33333,0 -2.4,0.666666 -1.06666,0.633333 -1.69999,1.866665 -0.63334,1.199999 -0.63334,2.933331 0,1.733332 0.66667,2.999997 0.66667,1.233332 1.76666,1.866665 1.13334,0.633333 2.5,0.633333 z m 14.03331,1.433332 q -1.36667,0 -2.33333,-0.366667 -0.96667,-0.399999 -1.6,-0.999999 -0.63333,-0.599999 -1,-1.233332 -0.36667,-0.633333 -0.53333,-1.166666 -0.13333,-0.533332 -0.13333,-0.799999 h 1.49999 q 0,0.03333 0.0667,0.566666 0.1,0.5 0.46667,1.166666 0.4,0.666666 1.23333,1.166665 0.83333,0.466667 2.33333,0.466667 1.1,0 2,-0.233333 0.9,-0.266667 1.43333,-0.8 0.53333,-0.566666 0.53333,-1.466665 0,-1.066666 -0.7,-1.633332 -0.66666,-0.599999 -1.73333,-0.866666 -1.06666,-0.299999 -2.23333,-0.533332 -1.16667,-0.266667 -2.23333,-0.666666 -1.03333,-0.4 -1.7,-1.166666 -0.63333,-0.766666 -0.63333,-2.099998 0.0333,-1.599998 1.5,-2.566664 1.46666,-0.999999 3.76666,-0.999999 0.86667,0 1.83333,0.2 0.96667,0.199999 1.76667,0.699999 0.83333,0.499999 1.33333,1.366665 0.53333,0.866666 0.43333,2.266665 h -1.46666 q 0.0333,-1.033333 -0.36667,-1.666665 -0.36667,-0.633333 -1.03333,-0.966666 -0.63334,-0.366666 -1.33333,-0.466666 -0.7,-0.1 -1.26667,-0.1 -1.56667,0 -2.66666,0.566666 -1.06667,0.566666 -1.06667,1.733332 0,0.966665 0.66667,1.499998 0.66666,0.533333 1.73333,0.833333 1.06666,0.266666 2.23333,0.499999 1.16666,0.233333 2.23333,0.666666 1.06667,0.433333 1.73333,1.233332 0.66667,0.8 0.66667,2.233332 0,1.299998 -0.73333,2.099998 -0.7,0.799999 -1.93334,1.166665 -1.23333,0.366667 -2.76666,0.366667 z m 8.29999,-0.333333 V 20.30241 h 1.53333 v 13.533321 z m 0.8,-15.699985 q -0.66667,0 -0.93333,-0.333333 -0.23334,-0.366667 -0.23334,-0.833333 0,-0.466666 0.23334,-0.799999 0.26666,-0.333333 0.93333,-0.333333 0.7,0 0.9,0.333333 0.23333,0.333333 0.23333,0.799999 0,0.466666 -0.23333,0.833333 -0.2,0.333333 -0.9,0.333333 z m 7.09996,15.699985 q -1.03333,0 -1.36667,-0.6 -0.3,-0.599999 -0.3,-1.433332 V 21.269076 h 1.46667 v 11.266656 h 3.16666 v 1.299999 z m -3.9,-12.299989 V 20.30241 q 0.9,0 1.36667,-0.06667 0.46666,-0.06667 0.66666,-0.366667 0.2,-0.333333 0.23334,-1.033332 0.0667,-0.733333 0.0667,-2.033332 h 1.36667 v 3.499997 h 3.16666 v 1.233332 z m 15.23328,12.633322 q -2.16666,0 -3.6,-1.033333 -1.39999,-1.033332 -2.09999,-2.633331 -0.7,-1.633331 -0.66667,-3.366663 0,-1.799998 0.73333,-3.366664 0.73334,-1.566665 2.13333,-2.499997 1.43334,-0.966666 3.46667,-0.966666 1.7,0 3,0.766666 1.33333,0.733333 2.13333,2.099998 0.8,1.333332 0.9,3.199997 0.0333,0.166667 0.0333,0.4 0,0.233333 0,0.433333 h -10.93332 q 0,2.566664 1.26666,4.099996 1.3,1.533331 3.63333,1.533331 1.7,0 2.93333,-0.899999 1.26667,-0.899999 1.56667,-2.433331 h 1.5 q -0.23334,1.366666 -1.06667,2.433331 -0.83333,1.033333 -2.1,1.633332 -1.26666,0.6 -2.83333,0.6 z m -4.79999,-7.96666 h 9.26665 q -0.0333,-0.633332 -0.3,-1.399998 -0.23333,-0.799999 -0.76666,-1.533332 -0.53333,-0.733333 -1.4,-1.199999 -0.83333,-0.466666 -2.03333,-0.466666 -1.1,0 -1.93333,0.399999 -0.83334,0.366667 -1.43334,1 -0.56666,0.633332 -0.93333,1.466665 -0.33333,0.799999 -0.46666,1.733331 z"
         id="wording"
         style="font-size:33.3333px;line-height:0.7;font-family:'Darker Grotesque';-inkscape-font-specification:'Darker Grotesque';letter-spacing:0px;word-spacing:0px;fill:#1a1a1a;stroke-width:0;stroke-linecap:square;stroke-linejoin:round"
         aria-label="Website"
         inkscape:label="wording" />
    </g>
  </g>
</svg>
