<?xml version="1.0" encoding="UTF-8" standalone="no"?>
<svg
   width="250"
   height="50"
   version="1.1"
   viewBox="0 0 250 50"
   xml:space="preserve"
   id="svg6"
   sodipodi:docname="discuss_210x50.svg"
   inkscape:version="1.3.2 (091e20ef0f, 2023-11-25)"
   xmlns:inkscape="http://www.inkscape.org/namespaces/inkscape"
   xmlns:sodipodi="http://sodipodi.sourceforge.net/DTD/sodipodi-0.dtd"
   xmlns="http://www.w3.org/2000/svg"
   xmlns:svg="http://www.w3.org/2000/svg"
   xmlns:rdf="http://www.w3.org/1999/02/22-rdf-syntax-ns#"
   xmlns:cc="http://creativecommons.org/ns#"
   xmlns:dc="http://purl.org/dc/elements/1.1/"><title
     id="title6">Discussion Button (English)</title><defs
     id="defs6" /><sodipodi:namedview
     id="namedview6"
     pagecolor="#505050"
     bordercolor="#ffffff"
     borderopacity="1"
     inkscape:showpageshadow="0"
     inkscape:pageopacity="0"
     inkscape:pagecheckerboard="1"
     inkscape:deskcolor="#505050"
     inkscape:zoom="3.352"
     inkscape:cx="124.70167"
     inkscape:cy="25.357995"
     inkscape:window-width="1920"
     inkscape:window-height="971"
     inkscape:window-x="0"
     inkscape:window-y="40"
     inkscape:window-maximized="1"
     inkscape:current-layer="svg6" /><rect
     transform="translate(51.603,4.086e-4)"
     x="-33.215"
     y="-.0004086"
     width="213.22"
     height="50"
     rx="5.0768"
     ry="5"
     style="fill:#f2f2f2"
     id="background"
     inkscape:label="background" /><g
     transform="translate(50.362 .00040862)"
     id="foreground"
     inkscape:label="foreground"><g
       transform="translate(8.8677 .65926)"
       style="fill:#1a1a1a"
       id="g1"><path
         d="m39.966 32.224v-16.067h3.6q2.8 0 4.8667 0.86667 2.0667 0.86667 3.2 2.6333 1.1333 1.7667 1.1333 4.5 0 2.4667-0.63333 4.0667-0.63333 1.5667-1.8667 2.4667-1.2333 0.86667-2.9333 1.2-1.7 0.33333-3.7667 0.33333-0.4 0-1.2333 0-0.83333 0-2.3667 0zm14.433-8.0667q0-3.1333-1.4-5.2-1.3667-2.0667-3.8667-3.1-2.4667-1.0667-5.8333-1.0667-0.43333 0-1.5333 0t-3.3333 0v18.767q2.1 0 3.2333 0 1.1333 0 1.6333 0 3.3667 0 5.8333-0.8 2.5-0.8 3.8667-2.8333 1.4-2.0667 1.4-5.7667zm2.8 9.4v-13.533h1.5333v13.533zm0.8-15.7q-0.66667 0-0.93333-0.33333-0.23333-0.36667-0.23333-0.83333t0.23333-0.8q0.26667-0.33333 0.93333-0.33333 0.7 0 0.9 0.33333 0.23333 0.33333 0.23333 0.8t-0.23333 0.83333q-0.2 0.33333-0.9 0.33333zm9.2 16.033q-1.3667 0-2.3333-0.36667-0.96666-0.4-1.6-1-0.63333-0.6-1-1.2333-0.36667-0.63333-0.53333-1.1667-0.13333-0.53333-0.13333-0.8h1.5q0 0.03333 0.06667 0.56667 0.1 0.5 0.46667 1.1667 0.4 0.66667 1.2333 1.1667 0.83333 0.46667 2.3333 0.46667 1.1 0 2-0.23333 0.9-0.26667 1.4333-0.8 0.53333-0.56667 0.53333-1.4667 0-1.0667-0.7-1.6333-0.66667-0.6-1.7333-0.86667-1.0667-0.3-2.2333-0.53333-1.1667-0.26667-2.2333-0.66667-1.0333-0.4-1.7-1.1667-0.63333-0.76667-0.63333-2.1 0.03333-1.6 1.5-2.5667 1.4667-1 3.7667-1 0.86667 0 1.8333 0.2t1.7667 0.7q0.83333 0.5 1.3333 1.3667 0.53333 0.86666 0.43333 2.2667h-1.4667q0.03333-1.0333-0.36667-1.6667-0.36667-0.63333-1.0333-0.96667-0.63333-0.36667-1.3333-0.46667t-1.2667-0.1q-1.5667 0-2.6667 0.56667-1.0667 0.56667-1.0667 1.7333 0 0.96667 0.66667 1.5 0.66667 0.53333 1.7333 0.83333 1.0667 0.26667 2.2333 0.5 1.1667 0.23333 2.2333 0.66667 1.0667 0.43333 1.7333 1.2333 0.66667 0.8 0.66667 2.2333 0 1.3-0.73333 2.1-0.7 0.8-1.9333 1.1667-1.2333 0.36667-2.7667 0.36667zm13.867 0q-1.9 0-3.3667-0.8-1.4333-0.8-2.2667-2.3333-0.83333-1.5333-0.83333-3.6333 0.06667-2.1333 0.86666-3.7333 0.83333-1.6 2.3-2.4667 1.4667-0.9 3.4-0.9 1.6667 0 2.9333 0.63333 1.2667 0.6 2.0667 1.6667 0.83333 1.0667 1.0667 2.4333h-1.4333q-0.33333-1.5667-1.5667-2.4333-1.2333-0.9-3.0333-0.9-1.5333 0-2.6667 0.73333-1.1333 0.7-1.7667 1.9667-0.63333 1.2667-0.66667 2.9333 0 2.4667 1.3333 3.9667 1.3667 1.4667 3.6667 1.4667 1.8 0 3.0667-0.9 1.3-0.9 1.6333-2.4667h1.4333q-0.23333 1.3667-1.1 2.4333-0.83333 1.0667-2.1333 1.7-1.2667 0.63333-2.9333 0.63333zm13.933 0q-1.2667 0-2.2-0.36667-0.9-0.36667-1.5-1-0.6-0.66667-0.93333-1.5-0.33333-0.86667-0.46667-1.8667-0.13333-1-0.13333-2.0667v-7.0667h1.5v7.0667q0 1.5 0.3 2.7333 0.33333 1.2333 1.2333 1.9667 0.9 0.7 2.5667 0.7 1.6 0 2.5333-0.73333 0.96667-0.76666 1.4333-1.9333 0.46667-1.2 0.53333-2.5333v-7.2667h1.5667v13.533h-1.2667l-0.26667-3.2333h-0.06667q-0.16667 0.53333-0.53333 1.1333-0.36667 0.6-0.96667 1.1667-0.56667 0.56667-1.4 0.93333-0.83333 0.33333-1.9333 0.33333zm14.8 0q-1.3667 0-2.3333-0.36667-0.96666-0.4-1.6-1-0.63333-0.6-0.99999-1.2333-0.36667-0.63333-0.53334-1.1667-0.13333-0.53333-0.13333-0.8h1.5q0 0.03333 0.0667 0.56667 0.1 0.5 0.46667 1.1667 0.4 0.66667 1.2333 1.1667 0.83334 0.46667 2.3333 0.46667 1.1 0 2-0.23333 0.9-0.26667 1.4333-0.8 0.53334-0.56667 0.53334-1.4667 0-1.0667-0.7-1.6333-0.66667-0.6-1.7333-0.86667-1.0667-0.3-2.2333-0.53333-1.1667-0.26667-2.2333-0.66667-1.0333-0.4-1.7-1.1667-0.63333-0.76667-0.63333-2.1 0.0333-1.6 1.5-2.5667 1.4667-1 3.7667-1 0.86667 0 1.8333 0.2 0.96666 0.2 1.7667 0.7 0.83333 0.5 1.3333 1.3667 0.53334 0.86666 0.43334 2.2667h-1.4667q0.0333-1.0333-0.36667-1.6667-0.36666-0.63333-1.0333-0.96667-0.63333-0.36667-1.3333-0.46667t-1.2667-0.1q-1.5667 0-2.6667 0.56667-1.0667 0.56667-1.0667 1.7333 0 0.96667 0.66667 1.5 0.66667 0.53333 1.7333 0.83333 1.0667 0.26667 2.2333 0.5 1.1667 0.23333 2.2333 0.66667 1.0667 0.43333 1.7333 1.2333 0.66666 0.8 0.66666 2.2333 0 1.3-0.73333 2.1-0.7 0.8-1.9333 1.1667-1.2333 0.36667-2.7667 0.36667zm13.1 0q-1.3667 0-2.3333-0.36667-0.96667-0.4-1.6-1-0.63333-0.6-1-1.2333-0.36667-0.63333-0.53333-1.1667-0.13334-0.53333-0.13334-0.8h1.5q0 0.03333 0.0667 0.56667 0.1 0.5 0.46667 1.1667 0.4 0.66667 1.2333 1.1667 0.83333 0.46667 2.3333 0.46667 1.1 0 2-0.23333 0.9-0.26667 1.4333-0.8 0.53333-0.56667 0.53333-1.4667 0-1.0667-0.7-1.6333-0.66666-0.6-1.7333-0.86667-1.0667-0.3-2.2333-0.53333-1.1667-0.26667-2.2333-0.66667-1.0333-0.4-1.7-1.1667-0.63333-0.76667-0.63333-2.1 0.0333-1.6 1.5-2.5667 1.4667-1 3.7667-1 0.86667 0 1.8333 0.2 0.96667 0.2 1.7667 0.7 0.83333 0.5 1.3333 1.3667 0.53333 0.86666 0.43333 2.2667h-1.4667q0.0333-1.0333-0.36667-1.6667-0.36667-0.63333-1.0333-0.96667-0.63334-0.36667-1.3333-0.46667-0.7-0.1-1.2667-0.1-1.5667 0-2.6667 0.56667-1.0667 0.56667-1.0667 1.7333 0 0.96667 0.66667 1.5 0.66666 0.53333 1.7333 0.83333 1.0667 0.26667 2.2333 0.5 1.1667 0.23333 2.2333 0.66667 1.0667 0.43333 1.7333 1.2333 0.66667 0.8 0.66667 2.2333 0 1.3-0.73333 2.1-0.7 0.8-1.9333 1.1667-1.2333 0.36667-2.7667 0.36667z"
         style="stroke-width:0"
         aria-label="Discuss"
         id="path1" /></g><g
       transform="matrix(.098439 0 0 .098439 2.8027 -1.2211)"
       id="g5"><path
         d="m348.95 364.96h-173.56c-24.681 0-46.211-18.642-46.211-43.323v-0.263 14.441c0 24.682 21.53 46.212 46.21 46.212h173.56c24.943 0 46.211-21.793 46.211-46.212v-14.44c0 24.68-21.53 43.585-46.211 43.585zm-220.03-124.46v-19.693l-32.295-53.3c-1.838-2.888-2.626-5.514-2.363-8.14v22.58c0 2.101 0.787 4.202 2.1 6.565z"
         style="fill:#070707"
         id="path2" /><path
         d="m348.95 150.71h-243.14c-9.715 0-15.228 8.402-8.664 17.329l31.77 55.138v98.462c0 25.206 18.38 46.211 43.323 46.211h176.44c24.944 0 46.211-21.267 46.211-46.211v-124.46c0.263-25.207-21.005-46.474-45.948-46.474z"
         style="fill:#1a1a1a"
         id="path3" /><g
         style="fill:#f2f2f2"
         id="g4"><path
           d="m346.06 220.29h-167.78c-7.352 0-14.441-4.463-14.441-11.553 0-7.089 7.09-11.552 14.441-11.552h167.78c7.352 0 14.442 4.463 14.442 11.552 0 7.09-7.09 11.553-14.442 11.553zm0 46.212h-167.78c-7.352 0-14.441-4.464-14.441-11.553 0-7.09 7.09-11.553 14.441-11.553h167.78c7.352 0 14.442 4.464 14.442 11.553s-7.09 11.553-14.442 11.553zm-46.474 46.473h-121.57c-7.351 0-14.44-4.463-14.44-11.552s7.089-11.553 14.44-11.553h121.57c7.351 0 14.44 4.463 14.44 11.553s-7.089 11.552-14.44 11.552z"
           style="fill:#f2f2f2"
           id="path4" /></g></g></g><metadata
     id="metadata6"><rdf:RDF><cc:Work
         rdf:about=""><dc:title>Discussion Button (English)</dc:title><dc:date>June 7, 2024</dc:date><dc:creator><cc:Agent><dc:title>(Holloway) Chew, Kean Ho</dc:title></cc:Agent></dc:creator><dc:rights><cc:Agent><dc:title>All Rights Reserved</dc:title></cc:Agent></dc:rights><dc:publisher><cc:Agent><dc:title>(Holloway) Chew, Kean Ho</dc:title></cc:Agent></dc:publisher><dc:identifier>chewkeanho-graphics-button-discuss</dc:identifier><dc:source>https://www.hollowaykeanho.com/</dc:source><dc:relation>graphics, UI</dc:relation><dc:language>english</dc:language><dc:subject><rdf:Bag><rdf:li>graphics</rdf:li><rdf:li>buttons</rdf:li></rdf:Bag></dc:subject><dc:description>A button with label directing user to discussion section.</dc:description><dc:contributor><cc:Agent><dc:title>(Holloway) Chew, Kean Ho</dc:title></cc:Agent></dc:contributor><dc:coverage>UI</dc:coverage></cc:Work></rdf:RDF></metadata></svg>
