<?xml version="1.0" encoding="UTF-8" standalone="no"?>
<svg
   width="250"
   height="50"
   version="1.1"
   viewBox="0 0 250 50"
   xml:space="preserve"
   id="svg12"
   sodipodi:docname="sponsor_210x50.svg"
   inkscape:version="1.3.2 (091e20ef0f, 2023-11-25)"
   xmlns:inkscape="http://www.inkscape.org/namespaces/inkscape"
   xmlns:sodipodi="http://sodipodi.sourceforge.net/DTD/sodipodi-0.dtd"
   xmlns="http://www.w3.org/2000/svg"
   xmlns:svg="http://www.w3.org/2000/svg"
   xmlns:rdf="http://www.w3.org/1999/02/22-rdf-syntax-ns#"
   xmlns:cc="http://creativecommons.org/ns#"
   xmlns:dc="http://purl.org/dc/elements/1.1/"><defs
     id="defs12" /><sodipodi:namedview
     id="namedview12"
     pagecolor="#505050"
     bordercolor="#ffffff"
     borderopacity="1"
     inkscape:showpageshadow="0"
     inkscape:pageopacity="0"
     inkscape:pagecheckerboard="1"
     inkscape:deskcolor="#505050"
     inkscape:zoom="3.352"
     inkscape:cx="125"
     inkscape:cy="25.059666"
     inkscape:window-width="1920"
     inkscape:window-height="971"
     inkscape:window-x="0"
     inkscape:window-y="40"
     inkscape:window-maximized="1"
     inkscape:current-layer="svg12" /><title
     id="title1">Sponsorship Button (English)</title><rect
     transform="translate(51.603,4.086e-4)"
     x="-33.215"
     y="-.0004086"
     width="213.22"
     height="50"
     rx="5.0768"
     ry="5"
     style="fill:#f2f2f2"
     id="background"
     inkscape:label="background" /><g
     id="foreground"
     inkscape:label="foreground"><path
       d="m100.15 29.457q0 1.6631-0.83157 2.8065-0.83156 1.1434-2.2868 1.7151-1.4552 0.5717-3.3003 0.5717-1.6891 0-2.9365-0.23388-1.2473-0.23388-2.1309-0.59769v-1.4812q0.9615 0.3898 2.2868 0.67565 1.3253 0.28585 2.8585 0.28585 2.1309 0 3.4562-0.90952 1.3513-0.90952 1.3513-2.7286 0-1.0914-0.51973-1.7931-0.49374-0.72762-1.5592-1.2473-1.0395-0.54571-2.6766-1.0914-1.5592-0.51973-2.6766-1.1694t-1.7151-1.6112q-0.59769-0.98748-0.59769-2.4687 0-1.5072 0.75361-2.5467 0.77959-1.0654 2.1049-1.6112 1.3513-0.54572 3.0664-0.54572 1.3513 0 2.5727 0.25986t2.3128 0.72762l-0.49374 1.2993q-2.2348-0.93551-4.4437-0.93551-1.923 0-3.1444 0.85755-1.1954 0.83156-1.1954 2.4687 0 1.1954 0.51973 1.923 0.51973 0.70163 1.5072 1.1954 0.98748 0.49374 2.4167 0.98748 1.6371 0.5717 2.8065 1.1954 1.1954 0.62367 1.845 1.5852 0.64966 0.93551 0.64966 2.4167zm8.5235-13.721q6.6785 0 6.6785 5.2493 0 2.6766-1.7411 4.2098-1.7151 1.5072-5.3272 1.5072h-2.7286v7.588h-1.5072v-18.554zm-0.15592 1.3253h-2.9624v8.3156h2.5727q2.6766 0 4.1578-0.93551 1.5072-0.93551 1.5072-3.3782 0-2.0789-1.2993-3.0404-1.2733-0.9615-3.9759-0.9615zm26.558 7.9259q0 2.8325-0.93551 4.9894-0.93551 2.1569-2.8065 3.3782-1.845 1.1954-4.5996 1.1954-2.8065 0-4.6776-1.1954-1.845-1.2214-2.7806-3.3782-0.90952-2.1829-0.90952-5.0154 0-2.8325 0.93551-4.9634 0.9615-2.1309 2.8325-3.3263 1.897-1.2214 4.6776-1.2214 2.6766 0 4.5216 1.1694 1.845 1.1434 2.7806 3.2743 0.96149 2.1309 0.96149 5.0933zm-15.124-0.02599q0 2.4687 0.72762 4.3397 0.72762 1.845 2.2348 2.8845 1.5072 1.0135 3.82 1.0135 2.3388 0 3.82-1.0135 1.5072-1.0135 2.2088-2.8585 0.72762-1.871 0.72762-4.3397 0-3.872-1.6891-6.0288-1.6631-2.1569-4.9894-2.1569-2.3128 0-3.846 1.0395-1.5332 1.0135-2.2868 2.8585-0.72762 1.819-0.72762 4.2618zm33.107 9.3291h-1.6112l-10.758-16.216h-0.078q0.052 1.0135 0.078 2.1569 0.052 1.1174 0.052 2.3388v11.72h-1.4292v-18.554h1.6112l10.732 16.164h0.078q-0.052-0.80558-0.078-2.0529t-0.026-2.3388v-11.772h1.4292zm15.488-4.8335q0 1.6631-0.83157 2.8065-0.83156 1.1434-2.2868 1.7151-1.4552 0.5717-3.3003 0.5717-1.6891 0-2.9365-0.23388-1.2473-0.23388-2.1309-0.59769v-1.4812q0.9615 0.3898 2.2868 0.67565 1.3253 0.28585 2.8585 0.28585 2.1309 0 3.4562-0.90952 1.3513-0.90952 1.3513-2.7286 0-1.0914-0.51973-1.7931-0.49374-0.72762-1.5592-1.2473-1.0395-0.54571-2.6766-1.0914-1.5592-0.51973-2.6766-1.1694-1.1174-0.64966-1.7151-1.6112-0.59769-0.98748-0.59769-2.4687 0-1.5072 0.75361-2.5467 0.77959-1.0654 2.1049-1.6112 1.3513-0.54572 3.0664-0.54572 1.3513 0 2.5726 0.25986t2.3128 0.72762l-0.49374 1.2993q-2.2348-0.93551-4.4437-0.93551-1.923 0-3.1444 0.85755-1.1954 0.83156-1.1954 2.4687 0 1.1954 0.51973 1.923 0.51972 0.70163 1.5072 1.1954 0.98748 0.49374 2.4167 0.98748 1.6371 0.5717 2.8065 1.1954 1.1954 0.62367 1.845 1.5852 0.64966 0.93551 0.64966 2.4167zm19.62-4.4697q0 2.8325-0.93551 4.9894-0.93551 2.1569-2.8065 3.3782-1.845 1.1954-4.5996 1.1954-2.8065 0-4.6776-1.1954-1.845-1.2214-2.7806-3.3782-0.90952-2.1829-0.90952-5.0154 0-2.8325 0.93551-4.9634 0.96149-2.1309 2.8325-3.3263 1.897-1.2214 4.6776-1.2214 2.6766 0 4.5216 1.1694 1.845 1.1434 2.7806 3.2743 0.96149 2.1309 0.96149 5.0933zm-15.124-0.02599q0 2.4687 0.72762 4.3397 0.72762 1.845 2.2348 2.8845 1.5072 1.0135 3.82 1.0135 2.3388 0 3.82-1.0135 1.5072-1.0135 2.2088-2.8585 0.72762-1.871 0.72762-4.3397 0-3.872-1.6891-6.0288-1.6631-2.1569-4.9894-2.1569-2.3128 0-3.846 1.0395-1.5332 1.0135-2.2868 2.8585-0.72762 1.819-0.72762 4.2618zm23.985-9.2252q3.3263 0 4.9894 1.1694 1.6891 1.1434 1.6891 3.9239 0 2.1309-1.1434 3.3522-1.1174 1.1954-2.8065 1.6891l5.0933 8.4196h-1.7931l-4.7295-8.0038h-4.4177v8.0038h-1.5072v-18.554zm-0.12993 1.3253h-2.9884v7.9259h3.5082q2.2608 0 3.4822-1.0395 1.2473-1.0654 1.2473-3.0664 0-2.1309-1.2993-2.9624-1.2993-0.85755-3.9499-0.85755z"
       style="fill:#1a1a1a;stroke-linecap:square;stroke-linejoin:round;stroke-width:3.898"
       aria-label="SPONSOR"
       id="path1" /><g
       transform="matrix(.078727 0 0 .078727 34.223 1.3819)"
       style="stroke:#fff"
       id="g12"><g
         transform="translate(79.95)"
         style="stroke:#fff"
         id="g8"><rect
           transform="translate(-5.1906e-6)"
           x="176.59"
           y="50"
           width="246.82"
           height="500"
           rx="50"
           ry="50"
           style="fill:#f2f2f2;stroke-miterlimit:1;stroke:#fff"
           id="rect2" /><rect
           x="233.65"
           y="470.33"
           width="132.71"
           height="40"
           rx="20"
           ry="20"
           style="fill:#1a1a1a;stroke-miterlimit:1;stroke-width:.37075;stroke:#fff"
           id="rect3" /><rect
           x="216.99"
           y="427.66"
           width="166.03"
           height="8.2312"
           rx="3.0149"
           ry="1.3719"
           style="fill:#1a1a1a;stroke-miterlimit:1;stroke-width:.85548;stroke:#fff"
           id="rect4" /><rect
           transform="translate(-5.1906e-6)"
           x="306.63"
           y="397.84"
           width="76.382"
           height="19.821"
           rx="1.3871"
           ry="3.3034"
           style="stroke-miterlimit:1;stroke-width:.90042;stroke:#fff"
           id="rect5" /><rect
           transform="translate(-5.1906e-6)"
           x="216.99"
           y="379.61"
           width="166.03"
           height="8.2312"
           rx="3.0149"
           ry="1.3719"
           style="stroke-miterlimit:1;stroke-width:.85548;stroke:#fff"
           id="rect6" /><rect
           transform="translate(-5.1906e-6)"
           x="220.11"
           y="130.03"
           width="166.03"
           height="8.2312"
           rx="3.0149"
           ry="1.3719"
           style="stroke-miterlimit:1;stroke-width:.85548;stroke:#fff"
           id="rect7" /><rect
           transform="translate(-5.1906e-6)"
           x="220.11"
           y="98.205"
           width="166.03"
           height="19.821"
           rx="3.0149"
           ry="3.3034"
           style="fill:#1a1a1a;stroke-miterlimit:1;stroke-width:1.3275;stroke:#fff"
           id="rect8" /><path
           transform="translate(-5.1906e-6)"
           d="m202.71 548.58c-11.542-2.8325-20.603-11.324-24.615-23.068l-1.2617-3.693v-444.12l1.3134-3.8536c1.8747-5.5007 4.4195-9.575 8.5725-13.725s8.2304-6.6926 13.735-8.5659l3.8565-1.3123h191.38l3.8565 1.3123c5.505 1.8733 9.5824 4.4161 13.735 8.5659s6.6978 8.2241 8.5725 13.725l1.3134 3.8536v444.12l-1.2617 3.693c-2.0123 5.89-4.4914 9.8601-8.8726 14.209-3.2635 3.2396-4.7592 4.3152-8.4835 6.101-8.3235 3.9911 0.0579 3.6987-104.89 3.6589-88.227-0.0335-93.622-0.0837-96.955-0.90153zm187.92-11.993c9.3908-2.6213 16.745-9.7881 19.601-19.103 0.85482-2.7872 0.88638-10.541 0.88638-217.73 0-207.19-0.0316-214.94-0.88638-217.73-2.8801-9.3911-10.135-16.435-19.341-18.778-2.3244-0.59152-6.4217-0.73104-21.452-0.7305l-18.579 6.68e-4 -0.82233 2.7691c-1.0491 3.5326-3.2745 6.2011-6.3745 7.6435l-2.4445 1.1374-41.217-0.0059c-40.428-0.0058-41.258-0.02464-43.386-0.98708-3.7956-1.7168-6.2574-4.8012-7.0034-8.7744l-0.33493-1.784h-18.646c-15.088 0-19.194 0.13949-21.519 0.73117-7.7103 1.9621-14.089 7.1605-17.501 14.263-1.0656 2.2181-2.1692 5.3191-2.4526 6.8911-0.36061 2.0004-0.51274 66.695-0.50688 215.56 7e-3 180.37 0.11086 213.18 0.68271 215.88 2.3427 11.043 11.836 19.793 22.93 21.134 1.7234 0.20835 42.072 0.34122 89.664 0.29528 67.803-0.0654 87.001-0.21458 88.7-0.68905z"
           style="fill:#1a1a1a;stroke:#fff"
           id="path8" /></g><g
         id="layer4"
         transform="matrix(12.702 0 0 12.702 -434.7 -17.553)"><rect
           transform="matrix(.078727 0 0 .078727 32.384 1.3819)"
           x="223.31"
           y="144.79"
           width="360"
           height="220"
           rx="18.582"
           ry="18.293"
           style="fill:#1a1a1a;stroke-miterlimit:1;stroke-width:.92183;stroke:#fff"
           id="rect9" /><rect
           x="51.414"
           y="17.2"
           width="4.7236"
           height="3.9364"
           rx=".39364"
           ry=".39364"
           style="stroke:none"
           id="rect10" /><path
           transform="matrix(.078727 0 0 .078727 31.93 1.658)"
           d="m546.15 260.99c4.155 0 7.5 4.2843 7.5 9.606v10.788c0 5.3217-3.345 9.606-7.5 9.606s-7.5-4.2843-7.5-9.606v-10.788c0-5.3217 3.345-9.606 7.5-9.606zm-19 0c4.155 0 7.5 4.2843 7.5 9.606v10.788c0 5.3217-3.345 9.606-7.5 9.606s-7.5-4.2843-7.5-9.606v-10.788c0-5.3217 3.345-9.606 7.5-9.606zm-19 0c4.155 0 7.5 4.2843 7.5 9.606v10.788c0 5.3217-3.345 9.606-7.5 9.606s-7.5-4.2843-7.5-9.606v-10.788c0-5.3217 3.345-9.606 7.5-9.606zm-29.234-1e-5c4.155 0 7.5 4.2843 7.5 9.606v10.788c0 5.3217-3.345 9.606-7.5 9.606s-7.5-4.2843-7.5-9.606v-10.788c0-5.3217 3.345-9.606 7.5-9.606zm-19 0c4.155 0 7.5 4.2843 7.5 9.606v10.788c0 5.3217-3.345 9.606-7.5 9.606s-7.5-4.2843-7.5-9.606v-10.788c0-5.3217 3.345-9.606 7.5-9.606zm-19 0c4.155 0 7.5 4.2843 7.5 9.606v10.788c0 5.3217-3.345 9.606-7.5 9.606s-7.5-4.2843-7.5-9.606v-10.788c0-5.3217 3.345-9.606 7.5-9.606zm-19 0c4.155 0 7.5 4.2843 7.5 9.606v10.788c0 5.3217-3.345 9.606-7.5 9.606s-7.5-4.2843-7.5-9.606v-10.788c0-5.3217 3.345-9.606 7.5-9.606zm-111.61 0c4.155 0 7.5 4.2843 7.5 9.606v10.788c0 5.3217-3.345 9.606-7.5 9.606s-7.5-4.2843-7.5-9.606v-10.788c0-5.3217 3.345-9.606 7.5-9.606zm-19 0c4.155 0 7.5 4.2843 7.5 9.606v10.788c0 5.3217-3.345 9.606-7.5 9.606s-7.5-4.2843-7.5-9.606v-10.788c0-5.3217 3.345-9.606 7.5-9.606zm-19 0c4.155 0 7.5 4.2843 7.5 9.606v10.788c0 5.3217-3.345 9.606-7.5 9.606s-7.5-4.2843-7.5-9.606v-10.788c0-5.3217 3.345-9.606 7.5-9.606zm-19 0c4.155 0 7.5 4.2843 7.5 9.606v10.788c0 5.3217-3.345 9.606-7.5 9.606s-7.5-4.2843-7.5-9.606v-10.788c0-5.3217 3.345-9.606 7.5-9.606zm141.78 0c4.155 0 7.5 4.2843 7.5 9.606v10.788c0 5.3217-3.345 9.606-7.5 9.606s-7.5-4.2843-7.5-9.606v-10.788c0-5.3217 3.345-9.606 7.5-9.606zm-19 0c4.155 0 7.5 4.2843 7.5 9.606v10.788c0 5.3217-3.345 9.606-7.5 9.606s-7.5-4.2843-7.5-9.606v-10.788c0-5.3217 3.345-9.606 7.5-9.606zm-19 0c4.155 0 7.5 4.2843 7.5 9.606v10.788c0 5.3217-3.345 9.606-7.5 9.606s-7.5-4.2843-7.5-9.606v-10.788c0-5.3217 3.345-9.606 7.5-9.606zm-19 0c4.155 0 7.5 4.2843 7.5 9.606v10.788c0 5.3217-3.345 9.606-7.5 9.606s-7.5-4.2843-7.5-9.606v-10.788c0-5.3217 3.345-9.606 7.5-9.606zm227.06 1e-5c4.155 0 7.5 4.2843 7.5 9.606v10.788c0 5.3217-3.345 9.606-7.5 9.606s-7.5-4.2843-7.5-9.606v-10.788c0-5.3217 3.345-9.606 7.5-9.606z"
           style="fill:#f2f2f2;stroke-miterlimit:1;stroke-width:.49091;stroke:#fff"
           id="path10" /><rect
           transform="matrix(.078727 0 0 .078727 32.384 1.3819)"
           x="241.32"
           y="168.3"
           width="166.03"
           height="19.821"
           rx="3.0149"
           ry="3.3034"
           style="fill:#f2f2f2;stroke-miterlimit:1;stroke-width:1.3275;stroke:#fff"
           id="rect11" /><rect
           transform="matrix(.078727 0 0 .078727 32.384 1.3819)"
           x="239.73"
           y="310.62"
           width="76.382"
           height="19.821"
           rx="1.3871"
           ry="3.3034"
           style="fill:#f2f2f2;stroke-miterlimit:1;stroke-width:.90042;stroke:#fff"
           id="rect12" /><path
           transform="matrix(.078727 0 0 .078727 32.384 1.3819)"
           d="m472.59 301.37-7.4922 40.414h8.3223l2.7734-14.986h1.9316c2.9926 0 4.4545-0.0541 5.7168-0.21875h0.012c3.223-0.49164 5.7953-1.6616 7.9492-3.7051v-2e-3h2e-3c2.9404-2.8294 4.8476-7.3024 4.8476-11.561 0-3.433-1.356-6.2861-3.8906-8.0352l-2e-3 -2e-3c-2.0073-1.4328-4.8445-1.9043-9.9942-1.9043zm0.83008 1h9.3457c5.0888 0 7.6901 0.4879 9.416 1.7207l6e-3 6e-3c2.2616 1.558 3.4648 4.0372 3.4648 7.2148 0 3.9537-1.8277 8.2251-4.5391 10.836-2.0038 1.901-4.3353 2.9722-7.4004 3.4414-8.3e-4 1.1e-4 -3e-3 -1.1e-4 -4e-3 0-1.1905 0.15514-2.6053 0.20898-5.584 0.20898h-2.7637l-2.7734 14.986h-6.2891zm5.1973 6.041-2.1621 11.4h2.7363c2.0094 0 3.9515-0.21298 5.2949-0.54883l4e-3 -2e-3h6e-3c2.7727-0.75094 4.6895-3.2538 4.6895-6.1895 0-1.9408-0.83882-3.3761-2.4316-4.084l-6e-3 -2e-3 -6e-3 -4e-3c-1.0453-0.4304-2.6241-0.57031-5.2578-0.57031zm0.82812 1h2.0391c2.5888 0 4.0999 0.18077 4.8692 0.49609 1.2809 0.57232 1.832 1.482 1.832 3.1641 0 2.5034-1.6034 4.5842-3.9492 5.2207-8.6e-4 2.3e-4 -1e-3 2e-3 -2e-3 2e-3 -1.2169 0.3032-3.1094 0.51758-5.043 0.51758h-1.5293zm-13.747 31.873h7.3067l2.7733-14.987h2.3467c2.9867 0 4.4267-0.0533 5.6533-0.21334 3.1467-0.48 5.6-1.6 7.68-3.5733 2.8267-2.72 4.6933-7.0933 4.6933-11.2 0-3.3067-1.28-5.9733-3.68-7.6267-1.8667-1.3333-4.5867-1.8133-9.7067-1.8133h-9.76zm11.36-21.973 1.9733-10.4h2.4533c2.6133 0 4.16 0.16 5.0667 0.53333 1.44 0.64 2.1333 1.8133 2.1333 3.6267 0 2.72-1.76 5.0133-4.32 5.7067-1.28 0.32-3.2 0.53333-5.1733 0.53333zm35.45-17.941-24.334 40.414h9.2168l6.2402-10.188h13.35l2.3457 10.188h9.082l-9.4609-40.414zm0.56641 1h5.0801l8.9922 38.414h-7.0234l-2.3477-10.188h-14.705l-6.2383 10.188h-6.8887zm0.92578 8.2773-7.4863 13.91h9.8574zm-0.49805 3.0352 1.6836 9.875h-6.998zm-24.444 27.602h8.0533l6.24-10.187h14.027l2.3467 10.187h8.0533l-9.2267-39.413h-5.76zm18.293-17.227 6.4-11.893 2.0267 11.893zm23.358-22.687 8.5527 25.391-2.8066 15.023h8.3242l2.7773-14.861 18.039-25.553h-9.125l-11.66 17.467-5.1387-17.467zm1.3926 1h6.8223l5.5293 18.801 12.553-18.801h6.6602l-17.053 24.154-2.6641 14.26h-6.2891l2.6328-14.096zm4.9564 38.914h7.3067l2.72-14.56 17.547-24.853h-7.8933l-12.107 18.133-5.3333-18.133h-7.8933l8.3733 24.853z"
           style="-inkscape-stroke:none;color:#000000;fill:#f2f2f2;font-variant-ligatures:none;stroke:none"
           id="path12" /></g></g></g><metadata
     id="metadata12"><rdf:RDF><cc:Work
         rdf:about=""><dc:title>Sponsorship Button (English)</dc:title><dc:date>June 7, 2024</dc:date><dc:creator><cc:Agent><dc:title>(Holloway) Chew, Kean Ho</dc:title></cc:Agent></dc:creator><dc:rights><cc:Agent><dc:title>All Rights Reserved</dc:title></cc:Agent></dc:rights><dc:publisher><cc:Agent><dc:title>(Holloway) Chew, Kean Ho</dc:title></cc:Agent></dc:publisher><dc:identifier>chewkeanho-graphics-button-sponsor</dc:identifier><dc:source>https://www.hollowaykeanho.com/</dc:source><dc:relation>graphics, UI</dc:relation><dc:language>english</dc:language><dc:subject><rdf:Bag><rdf:li>graphics</rdf:li><rdf:li>buttons</rdf:li></rdf:Bag></dc:subject><dc:coverage>UI</dc:coverage><dc:description>A button with label directing user to sponsorship section.</dc:description><dc:contributor><cc:Agent><dc:title>(Holloway) Chew, Kean Ho</dc:title></cc:Agent></dc:contributor></cc:Work></rdf:RDF></metadata></svg>
