<?xml version="1.0" encoding="UTF-8" standalone="no"?>
<svg
   width="250"
   height="50"
   version="1.1"
   viewBox="0 0 250 50"
   id="svg13"
   sodipodi:docname="website_210x50.svg"
   inkscape:version="1.3.2 (091e20ef0f, 2023-11-25)"
   xmlns:inkscape="http://www.inkscape.org/namespaces/inkscape"
   xmlns:sodipodi="http://sodipodi.sourceforge.net/DTD/sodipodi-0.dtd"
   xmlns="http://www.w3.org/2000/svg"
   xmlns:svg="http://www.w3.org/2000/svg"
   xmlns:rdf="http://www.w3.org/1999/02/22-rdf-syntax-ns#"
   xmlns:cc="http://creativecommons.org/ns#"
   xmlns:dc="http://purl.org/dc/elements/1.1/">
  <title
     id="title13">Website Button (English)</title>
  <defs
     id="defs13" />
  <sodipodi:namedview
     id="namedview13"
     pagecolor="#505050"
     bordercolor="#ffffff"
     borderopacity="1"
     inkscape:showpageshadow="0"
     inkscape:pageopacity="0"
     inkscape:pagecheckerboard="1"
     inkscape:deskcolor="#505050"
     inkscape:zoom="3.352"
     inkscape:cx="125"
     inkscape:cy="25.059666"
     inkscape:window-width="1920"
     inkscape:window-height="971"
     inkscape:window-x="0"
     inkscape:window-y="40"
     inkscape:window-maximized="1"
     inkscape:current-layer="svg13" />
  <rect
     x="-18.385"
     width="213.22"
     height="50"
     rx="5.0768"
     ry="5"
     style="fill:#f2f2f2"
     id="background"
     transform="translate(36.773)"
     inkscape:label="background" />
  <g
     transform="translate(36.773)"
     id="foreground"
     inkscape:label="foreground">
    <g
       transform="translate(5.642)"
       id="g12">
      <g
         transform="matrix(.30797 0 0 .30797 6.2433 .55451)"
         id="g11">
        <g
           shape-rendering="auto"
           style="fill:#1a1a1a"
           id="g7">
          <path
             d="m79.375 25.258c-29.857 0-54.117 24.261-54.117 54.117 1e-6 29.857 24.261 54.117 54.117 54.117s54.117-24.261 54.117-54.117c0-29.857-24.261-54.117-54.117-54.117zm0 5.291c26.997 0 48.826 21.829 48.826 48.826s-21.829 48.826-48.826 48.826-48.826-21.829-48.826-48.826 21.829-48.826 48.826-48.826z"
             color="#000000"
             color-rendering="auto"
             dominant-baseline="auto"
             image-rendering="auto"
             solid-color="#000000"
             stop-color="#000000"
             style="fill:#1a1a1a;font-feature-settings:normal;font-variant-alternates:normal;font-variant-caps:normal;font-variant-east-asian:normal;font-variant-ligatures:normal;font-variant-numeric:normal;font-variant-position:normal;font-variation-settings:normal;inline-size:0;isolation:auto;mix-blend-mode:normal;shape-margin:0;shape-padding:0;text-decoration-color:#000000;text-decoration-line:none;text-decoration-style:solid;text-indent:0;text-orientation:mixed;text-transform:none;white-space:normal"
             id="path1" />
          <path
             d="m79.375 25.275c-10.859 0-20.537 6.3818-27.334 16.211-6.7966 9.8291-10.891 23.186-10.891 37.889s4.0941 28.06 10.891 37.889c6.7966 9.8291 16.475 16.211 27.334 16.211s20.537-6.3818 27.334-16.211c6.7966-9.8291 10.891-23.186 10.891-37.889s-4.0941-28.06-10.891-37.889c-6.7966-9.8291-16.475-16.211-27.334-16.211zm0 5.291c8.7909 0 16.902 5.1362 22.982 13.93 6.0804 8.7935 9.9512 21.165 9.9512 34.879s-3.8707 26.085-9.9512 34.879c-6.0804 8.7935-14.192 13.93-22.982 13.93s-16.902-5.1362-22.982-13.93c-6.0804-8.7935-9.9512-21.165-9.9512-34.879s3.8707-26.085 9.9512-34.879 14.192-13.93 22.982-13.93z"
             color="#000000"
             color-rendering="auto"
             dominant-baseline="auto"
             image-rendering="auto"
             solid-color="#000000"
             stop-color="#000000"
             style="fill:#1a1a1a;font-feature-settings:normal;font-variant-alternates:normal;font-variant-caps:normal;font-variant-east-asian:normal;font-variant-ligatures:normal;font-variant-numeric:normal;font-variant-position:normal;font-variation-settings:normal;inline-size:0;isolation:auto;mix-blend-mode:normal;shape-margin:0;shape-padding:0;text-decoration-color:#000000;text-decoration-line:none;text-decoration-style:solid;text-indent:0;text-orientation:mixed;text-transform:none;white-space:normal"
             id="path2" />
          <path
             d="m79.375 25.275c-10.859 0-20.537 6.3818-27.334 16.211-6.7966 9.8291-10.891 23.186-10.891 37.889s4.0941 28.06 10.891 37.889c6.7966 9.8291 16.475 16.211 27.334 16.211s20.537-6.3818 27.334-16.211c6.7966-9.8291 10.891-23.186 10.891-37.889s-4.0941-28.06-10.891-37.889c-6.7966-9.8291-16.475-16.211-27.334-16.211zm0 5.291c8.7909 0 16.902 5.1362 22.982 13.93 6.0804 8.7935 9.9512 21.165 9.9512 34.879s-3.8707 26.085-9.9512 34.879c-6.0804 8.7935-14.192 13.93-22.982 13.93s-16.902-5.1362-22.982-13.93c-6.0804-8.7935-9.9512-21.165-9.9512-34.879s3.8707-26.085 9.9512-34.879 14.192-13.93 22.982-13.93z"
             color="#000000"
             color-rendering="auto"
             dominant-baseline="auto"
             image-rendering="auto"
             solid-color="#000000"
             stop-color="#000000"
             style="fill:#1a1a1a;font-feature-settings:normal;font-variant-alternates:normal;font-variant-caps:normal;font-variant-east-asian:normal;font-variant-ligatures:normal;font-variant-numeric:normal;font-variant-position:normal;font-variation-settings:normal;inline-size:0;isolation:auto;mix-blend-mode:normal;shape-margin:0;shape-padding:0;text-decoration-color:#000000;text-decoration-line:none;text-decoration-style:solid;text-indent:0;text-orientation:mixed;text-transform:none;white-space:normal"
             id="path3" />
          <path
             d="m79.375 25.275c-3.2662 0-5.8472 2.2548-7.8164 5.2285s-3.5707 6.9495-4.9219 11.773c-2.7024 9.6479-4.3203 22.689-4.3203 37.098s1.618 27.45 4.3203 37.098c1.3512 4.8239 2.9526 8.7998 4.9219 11.773 1.9692 2.9737 4.5502 5.2285 7.8164 5.2285s5.8472-2.2548 7.8164-5.2285 3.5707-6.9495 4.9219-11.773c2.7024-9.6479 4.3203-22.689 4.3203-37.098s-1.618-27.45-4.3203-37.098c-1.3512-4.8239-2.9526-8.7998-4.9219-11.773s-4.5502-5.2285-7.8164-5.2285zm0 5.291c0.71364 0 1.925 0.62563 3.4043 2.8594s2.9814 5.7919 4.2383 10.279c2.5138 8.9747 4.123 21.662 4.123 35.67s-1.6092 26.695-4.123 35.67c-1.2569 4.4874-2.759 8.0456-4.2383 10.279-1.4792 2.2337-2.6907 2.8594-3.4043 2.8594s-1.925-0.62563-3.4043-2.8594c-1.4792-2.2338-2.9814-5.7919-4.2383-10.279-2.5138-8.9747-4.123-21.662-4.123-35.67s1.6092-26.695 4.123-35.67c1.2569-4.4874 2.759-8.0456 4.2383-10.279s2.6907-2.8594 3.4043-2.8594z"
             color="#000000"
             color-rendering="auto"
             dominant-baseline="auto"
             image-rendering="auto"
             solid-color="#000000"
             stop-color="#000000"
             style="fill:#1a1a1a;font-feature-settings:normal;font-variant-alternates:normal;font-variant-caps:normal;font-variant-east-asian:normal;font-variant-ligatures:normal;font-variant-numeric:normal;font-variant-position:normal;font-variation-settings:normal;inline-size:0;isolation:auto;mix-blend-mode:normal;shape-margin:0;shape-padding:0;text-decoration-color:#000000;text-decoration-line:none;text-decoration-style:solid;text-indent:0;text-orientation:mixed;text-transform:none;white-space:normal"
             id="path4" />
          <path
             d="m27.959 78.053a2.6461 2.6461 0 0 0-0.27148 0.01758 2.6461 2.6461 0 0 0-0.13672 0.01953 2.6461 2.6461 0 0 0-0.39648 0.09961 2.6461 2.6461 0 0 0-0.12891 0.04687 2.6461 2.6461 0 0 0-0.125 0.05469 2.6461 2.6461 0 0 0-0.12305 0.05859 2.6461 2.6461 0 0 0-0.23633 0.13867 2.6461 2.6461 0 0 0-0.2207 0.16211 2.6461 2.6461 0 0 0-0.10352 0.08984 2.6461 2.6461 0 0 0-0.28125 0.29883 2.6461 2.6461 0 0 0-0.08203 0.10742 2.6461 2.6461 0 0 0-0.14844 0.23047 2.6461 2.6461 0 0 0-0.125 0.24414 2.6461 2.6461 0 0 0-0.05273 0.125 2.6461 2.6461 0 0 0-0.11719 0.39258 2.6461 2.6461 0 0 0-0.02539 0.13477 2.6461 2.6461 0 0 0-0.01758 0.13672 2.6461 2.6461 0 0 0-0.01172 0.13477 2.6461 2.6461 0 0 0-0.0039 0.13672 2.6461 2.6461 0 0 0 2e-3 0.13672 2.6461 2.6461 0 0 0 0.16406 0.80274 2.6461 2.6461 0 0 0 0.05078 0.12695 2.6461 2.6461 0 0 0 0.05664 0.12305 2.6461 2.6461 0 0 0 0.06445 0.12109 2.6461 2.6461 0 0 0 0.07031 0.11719 2.6461 2.6461 0 0 0 0.24414 0.33008 2.6461 2.6461 0 0 0 0.0918 0.09961 2.6461 2.6461 0 0 0 0.20117 0.18555 2.6461 2.6461 0 0 0 0.69922 0.42383 2.6461 2.6461 0 0 0 0.39062 0.125 2.6461 2.6461 0 0 0 0.26953 0.04883 2.6461 2.6461 0 0 0 0.13672 0.01367 2.6461 2.6461 0 0 0 0.16602 0.0078h102.83a2.6461 2.6461 0 0 0 0.13671-0.0059 2.6461 2.6461 0 0 0 0.13477-0.01172 2.6461 2.6461 0 0 0 0.5332-0.11914 2.6461 2.6461 0 0 0 0.25391-0.10156 2.6461 2.6461 0 0 0 0.12305-0.06055 2.6461 2.6461 0 0 0 0.12109-0.06445 2.6461 2.6461 0 0 0 0.11523-0.07227 2.6461 2.6461 0 0 0 0.11329-0.08008 2.6461 2.6461 0 0 0 0.10742-0.08203 2.6461 2.6461 0 0 0 0.46679-0.49805 2.6461 2.6461 0 0 0 0.41016-0.85938 2.6461 2.6461 0 0 0 0.0332-0.13281 2.6461 2.6461 0 0 0 0.0254-0.13476 2.6461 2.6461 0 0 0 0.0293-0.27148 2.6461 2.6461 0 0 0 2e-3 -0.27344 2.6461 2.6461 0 0 0-0.0273-0.27148 2.6461 2.6461 0 0 0-0.0918-0.40039 2.6461 2.6461 0 0 0-0.0449-0.12891 2.6461 2.6461 0 0 0-0.24219-0.49024 2.6461 2.6461 0 0 0-0.0742-0.11328 2.6461 2.6461 0 0 0-0.082-0.10938 2.6461 2.6461 0 0 0-0.0879-0.10547 2.6461 2.6461 0 0 0-0.0918-0.09961 2.6461 2.6461 0 0 0-0.0977-0.0957 2.6461 2.6461 0 0 0-0.55675-0.39642 2.6461 2.6461 0 0 0-0.63672-0.24219 2.6461 2.6461 0 0 0-0.13476-0.02734 2.6461 2.6461 0 0 0-0.40625-0.04297 2.6461 2.6461 0 0 0-0.0312 0z"
             color="#000000"
             color-rendering="auto"
             dominant-baseline="auto"
             image-rendering="auto"
             solid-color="#000000"
             stop-color="#000000"
             style="fill:#1a1a1a;font-feature-settings:normal;font-variant-alternates:normal;font-variant-caps:normal;font-variant-east-asian:normal;font-variant-ligatures:normal;font-variant-numeric:normal;font-variant-position:normal;font-variation-settings:normal;inline-size:0;isolation:auto;mix-blend-mode:normal;shape-margin:0;shape-padding:0;text-decoration-color:#000000;text-decoration-line:none;text-decoration-style:solid;text-indent:0;text-orientation:mixed;text-transform:none;white-space:normal"
             id="path5" />
          <path
             d="m41.133 111.17a2.6461 2.6461 0 0 0-0.27344 0.0176 2.6461 2.6461 0 0 0-0.13477 0.0215 2.6461 2.6461 0 0 0-0.39648 0.0996 2.6461 2.6461 0 0 0-0.12891 0.0469 2.6461 2.6461 0 0 0-0.12695 0.0527 2.6461 2.6461 0 0 0-0.12305 0.0606 2.6461 2.6461 0 0 0-0.23438 0.13867 2.6461 2.6461 0 0 0-0.2207 0.16211 2.6461 2.6461 0 0 0-0.10352 0.0898 2.6461 2.6461 0 0 0-0.28125 0.29688 2.6461 2.6461 0 0 0-0.08398 0.10937 2.6461 2.6461 0 0 0-0.14844 0.23047 2.6461 2.6461 0 0 0-0.12305 0.24219 2.6461 2.6461 0 0 0-0.05273 0.12695 2.6461 2.6461 0 0 0-0.11719 0.39258 2.6461 2.6461 0 0 0-0.02539 0.13476 2.6461 2.6461 0 0 0-0.01758 0.13477 2.6461 2.6461 0 0 0-0.01172 0.13672 2.6461 2.6461 0 0 0-0.0059 0.13672 2.6461 2.6461 0 0 0 0.0039 0.13672 2.6461 2.6461 0 0 0 0.16211 0.80078 2.6461 2.6461 0 0 0 0.05273 0.12695 2.6461 2.6461 0 0 0 0.05664 0.125 2.6461 2.6461 0 0 0 0.06445 0.12109 2.6461 2.6461 0 0 0 0.06836 0.11719 2.6461 2.6461 0 0 0 0.24609 0.32813 2.6461 2.6461 0 0 0 0.0918 0.10156 2.6461 2.6461 0 0 0 0.20117 0.18555 2.6461 2.6461 0 0 0 0.69922 0.42187 2.6461 2.6461 0 0 0 0.39062 0.125 2.6461 2.6461 0 0 0 0.26953 0.0488 2.6461 2.6461 0 0 0 0.13477 0.0156 2.6461 2.6461 0 0 0 0.13672 6e-3 2.6461 2.6461 0 0 0 0.03125 2e-3h76.559a2.6461 2.6461 0 0 0 0.13671-6e-3 2.6461 2.6461 0 0 0 0.13672-0.0137 2.6461 2.6461 0 0 0 0.53125-0.11915 2.6461 2.6461 0 0 0 0.25586-0.0996 2.6461 2.6461 0 0 0 0.12305-0.0606 2.6461 2.6461 0 0 0 0.11914-0.0664 2.6461 2.6461 0 0 0 0.11524-0.0723 2.6461 2.6461 0 0 0 0.11328-0.0781 2.6461 2.6461 0 0 0 0.10742-0.084 2.6461 2.6461 0 0 0 0.4668-0.4961 2.6461 2.6461 0 0 0 0.41015-0.85937 2.6461 2.6461 0 0 0 0.0332-0.13281 2.6461 2.6461 0 0 0 0.0254-0.13477 2.6461 2.6461 0 0 0 0.0293-0.27148 2.6461 2.6461 0 0 0 2e-3 -0.27344 2.6461 2.6461 0 0 0-0.0273-0.27149 2.6461 2.6461 0 0 0-0.0918-0.40039 2.6461 2.6461 0 0 0-0.043-0.1289 2.6461 2.6461 0 0 0-0.24219-0.49024 2.6461 2.6461 0 0 0-0.0762-0.11328 2.6461 2.6461 0 0 0-0.082-0.10937 2.6461 2.6461 0 0 0-0.0879-0.10547 2.6461 2.6461 0 0 0-0.0918-0.10156 2.6461 2.6461 0 0 0-0.0977-0.0957 2.6461 2.6461 0 0 0-0.55469-0.39648 2.6461 2.6461 0 0 0-0.63867-0.24024 2.6461 2.6461 0 0 0-0.13476-0.0293 2.6461 2.6461 0 0 0-0.4375-0.043z"
             color="#000000"
             color-rendering="auto"
             dominant-baseline="auto"
             image-rendering="auto"
             solid-color="#000000"
             stop-color="#000000"
             style="fill:#1a1a1a;font-feature-settings:normal;font-variant-alternates:normal;font-variant-caps:normal;font-variant-east-asian:normal;font-variant-ligatures:normal;font-variant-numeric:normal;font-variant-position:normal;font-variation-settings:normal;inline-size:0;isolation:auto;mix-blend-mode:normal;shape-margin:0;shape-padding:0;text-decoration-color:#000000;text-decoration-line:none;text-decoration-style:solid;text-indent:0;text-orientation:mixed;text-transform:none;white-space:normal"
             id="path6" />
          <path
             d="m40.012 43.734a2.6461 2.6461 0 0 0-0.27148 0.01758 2.6461 2.6461 0 0 0-0.13672 0.01953 2.6461 2.6461 0 0 0-0.39648 0.09961 2.6461 2.6461 0 0 0-0.12891 0.04687 2.6461 2.6461 0 0 0-0.125 0.05469 2.6461 2.6461 0 0 0-0.12305 0.05859 2.6461 2.6461 0 0 0-0.23633 0.13867 2.6461 2.6461 0 0 0-0.2207 0.16211 2.6461 2.6461 0 0 0-0.10352 0.08984 2.6461 2.6461 0 0 0-0.28125 0.29883 2.6461 2.6461 0 0 0-0.08203 0.10742 2.6461 2.6461 0 0 0-0.14844 0.23047 2.6461 2.6461 0 0 0-0.125 0.24414 2.6461 2.6461 0 0 0-0.05273 0.125 2.6461 2.6461 0 0 0-0.11719 0.39258 2.6461 2.6461 0 0 0-0.02539 0.13477 2.6461 2.6461 0 0 0-0.01758 0.13672 2.6461 2.6461 0 0 0-0.01172 0.13476 2.6461 2.6461 0 0 0-0.0039 0.13672 2.6461 2.6461 0 0 0 2e-3 0.13672 2.6461 2.6461 0 0 0 0.16406 0.80273 2.6461 2.6461 0 0 0 0.05078 0.12695 2.6461 2.6461 0 0 0 0.05664 0.12305 2.6461 2.6461 0 0 0 0.06445 0.12109 2.6461 2.6461 0 0 0 0.07031 0.11719 2.6461 2.6461 0 0 0 0.24414 0.32812 2.6461 2.6461 0 0 0 0.0918 0.10156 2.6461 2.6461 0 0 0 0.20117 0.18555 2.6461 2.6461 0 0 0 0.69922 0.42383 2.6461 2.6461 0 0 0 0.39062 0.125 2.6461 2.6461 0 0 0 0.26953 0.04883 2.6461 2.6461 0 0 0 0.13672 0.01367 2.6461 2.6461 0 0 0 0.16602 0.0078h78.801a2.6461 2.6461 0 0 0 0.13672-0.0059 2.6461 2.6461 0 0 0 0.13476-0.01172 2.6461 2.6461 0 0 0 0.53321-0.12109 2.6461 2.6461 0 0 0 0.2539-0.09961 2.6461 2.6461 0 0 0 0.12305-0.06055 2.6461 2.6461 0 0 0 0.12109-0.06445 2.6461 2.6461 0 0 0 0.11524-0.07422 2.6461 2.6461 0 0 0 0.11133-0.07813 2.6461 2.6461 0 0 0 0.10937-0.08203 2.6461 2.6461 0 0 0 0.4668-0.49805 2.6461 2.6461 0 0 0 0.41015-0.85938 2.6461 2.6461 0 0 0 0.0332-0.13281 2.6461 2.6461 0 0 0 0.0254-0.13477 2.6461 2.6461 0 0 0 0.0293-0.27148 2.6461 2.6461 0 0 0 2e-3 -0.27344 2.6461 2.6461 0 0 0-0.0273-0.27148 2.6461 2.6461 0 0 0-0.0918-0.40039 2.6461 2.6461 0 0 0-0.0449-0.12891 2.6461 2.6461 0 0 0-0.24219-0.49023 2.6461 2.6461 0 0 0-0.0762-0.11328 2.6461 2.6461 0 0 0-0.082-0.10938 2.6461 2.6461 0 0 0-0.0859-0.10547 2.6461 2.6461 0 0 0-0.0937-0.09961 2.6461 2.6461 0 0 0-0.0977-0.0957 2.6461 2.6461 0 0 0-0.55469-0.39648 2.6461 2.6461 0 0 0-0.63671-0.24219 2.6461 2.6461 0 0 0-0.13477-0.02734 2.6461 2.6461 0 0 0-0.4082-0.04297 2.6461 2.6461 0 0 0-0.0293 0z"
             color="#000000"
             color-rendering="auto"
             dominant-baseline="auto"
             image-rendering="auto"
             solid-color="#000000"
             stop-color="#000000"
             style="fill:#1a1a1a;font-feature-settings:normal;font-variant-alternates:normal;font-variant-caps:normal;font-variant-east-asian:normal;font-variant-ligatures:normal;font-variant-numeric:normal;font-variant-position:normal;font-variation-settings:normal;inline-size:0;isolation:auto;mix-blend-mode:normal;shape-margin:0;shape-padding:0;text-decoration-color:#000000;text-decoration-line:none;text-decoration-style:solid;text-indent:0;text-orientation:mixed;text-transform:none;white-space:normal"
             id="path7" />
        </g>
        <rect
           x="15.875"
           y="57.645"
           width="127"
           height="43.46"
           rx="1.3229"
           ry="1.3229"
           stroke="#fff"
           stroke-linecap="round"
           stroke-linejoin="round"
           stroke-width="5.2917"
           style="fill:#1a1a1a"
           id="rect7" />
        <g
           fill="#fff"
           stroke-width=".26458"
           aria-label="WWW"
           id="g10">
          <path
             d="m57.52 66.781-6.3147 25.188h-6.985l-2.9281-12.171q-0.10583-0.35278-0.28222-1.1289-0.14111-0.77611-0.3175-1.6933-0.17639-0.91722-0.35278-1.7639-0.14111-0.88195-0.17639-1.4464-0.07056 0.56444-0.24694 1.4464-0.14111 0.84667-0.3175 1.7639-0.17639 0.91722-0.35278 1.6933t-0.24694 1.1289l-2.9633 12.171h-6.9497l-6.35-25.188h5.8561l2.9986 13.229q0.17639 0.74083 0.42333 1.9756 0.24694 1.2347 0.45861 2.54 0.24694 1.27 0.35278 2.1167 0.14111-1.1289 0.42333-2.6458 0.28222-1.5522 0.56444-2.9633 0.3175-1.4464 0.52917-2.2578l2.9986-11.994h5.6092l2.9986 11.994q0.14111 0.59972 0.35278 1.5875t0.42333 2.1519q0.21167 1.1289 0.38806 2.2225 0.21167 1.0936 0.3175 1.905 0.10583-0.84667 0.3175-2.1167 0.24694-1.3053 0.49389-2.5047 0.24694-1.2347 0.42333-1.9756l2.9986-13.264z"
             id="path8" />
          <path
             d="m96.767 66.781-6.3147 25.188h-6.985l-2.9281-12.171q-0.10583-0.35278-0.28222-1.1289-0.14111-0.77611-0.3175-1.6933-0.17639-0.91722-0.35278-1.7639-0.14111-0.88195-0.17639-1.4464-0.07056 0.56444-0.24694 1.4464-0.14111 0.84667-0.3175 1.7639-0.17639 0.91722-0.35278 1.6933t-0.24694 1.1289l-2.9633 12.171h-6.9497l-6.35-25.188h5.8561l2.9986 13.229q0.17639 0.74083 0.42333 1.9756 0.24694 1.2347 0.45861 2.54 0.24694 1.27 0.35278 2.1167 0.14111-1.1289 0.42333-2.6458 0.28222-1.5522 0.56444-2.9633 0.3175-1.4464 0.52917-2.2578l2.9986-11.994h5.6092l2.9986 11.994q0.14111 0.59972 0.35278 1.5875t0.42333 2.1519q0.21167 1.1289 0.38806 2.2225 0.21167 1.0936 0.3175 1.905 0.10583-0.84667 0.3175-2.1167 0.24694-1.3053 0.49389-2.5047 0.24694-1.2347 0.42333-1.9756l2.9986-13.264z"
             id="path9" />
          <path
             d="m136.01 66.781-6.3147 25.188h-6.985l-2.9281-12.171q-0.10583-0.35278-0.28222-1.1289-0.14111-0.77611-0.3175-1.6933-0.17639-0.91722-0.35278-1.7639-0.14111-0.88195-0.17639-1.4464-0.0706 0.56444-0.24694 1.4464-0.14111 0.84667-0.3175 1.7639-0.17639 0.91722-0.35278 1.6933t-0.24695 1.1289l-2.9633 12.171h-6.9497l-6.35-25.188h5.8561l2.9986 13.229q0.17639 0.74083 0.42333 1.9756t0.45861 2.54q0.24695 1.27 0.35278 2.1167 0.14111-1.1289 0.42333-2.6458 0.28223-1.5522 0.56445-2.9633 0.3175-1.4464 0.52917-2.2578l2.9986-11.994h5.6092l2.9986 11.994q0.14111 0.59972 0.35278 1.5875t0.42333 2.1519q0.21167 1.1289 0.38806 2.2225 0.21167 1.0936 0.3175 1.905 0.10583-0.84667 0.3175-2.1167 0.24694-1.3053 0.49389-2.5047 0.24694-1.2347 0.42333-1.9756l2.9986-13.264z"
             id="path10" />
        </g>
      </g>
      <path
         d="m68.904 15.069h1.6333l-0.83333 2.1-5.4 16.667h-2.5333l-5.7667-18.767h1.6333l5.4333 18zm12.933 0h1.6667l-6.0667 18.767h-2.5l-5.2333-16.667-0.76667-2.1h1.6l5.6333 18zm8.9333 19.1q-2.1667 0-3.6-1.0333-1.4-1.0333-2.1-2.6333-0.7-1.6333-0.66667-3.3667 0-1.8 0.73333-3.3667 0.73333-1.5667 2.1333-2.5 1.4333-0.96667 3.4667-0.96667 1.7 0 3 0.76667 1.3333 0.73333 2.1333 2.1 0.79999 1.3333 0.89999 3.2 0.0333 0.16667 0.0333 0.4t0 0.43333h-10.933q0 2.5667 1.2667 4.1 1.3 1.5333 3.6333 1.5333 1.7 0 2.9333-0.9 1.2667-0.9 1.5667-2.4333h1.5q-0.23333 1.3667-1.0667 2.4333-0.83333 1.0333-2.1 1.6333-1.2667 0.6-2.8333 0.6zm-4.8-7.9667h9.2667q-0.0333-0.63333-0.3-1.4-0.23333-0.8-0.76666-1.5333-0.53334-0.73333-1.4-1.2-0.83333-0.46667-2.0333-0.46667-1.1 0-1.9333 0.4-0.83333 0.36667-1.4333 1-0.56667 0.63333-0.93333 1.4667-0.33333 0.8-0.46667 1.7333zm20.667 7.9667q-1.3333 0-2.2667-0.46667-0.93333-0.46667-1.5667-1.1333-0.6-0.66667-0.93333-1.2333-0.3-0.6-0.36667-0.76667h-0.0667l-0.26667 3.2667h-1.3v-18.767h1.6v8.9h0.0667q0.0667-0.23333 0.33333-0.8 0.3-0.6 0.86667-1.2667 0.6-0.66667 1.5333-1.1333 0.96666-0.46667 2.3667-0.46667 1.9333 0 3.2667 0.93333 1.3667 0.9 2.0667 2.5 0.73333 1.5667 0.73333 3.5 0 1.9667-0.73333 3.5333-0.7 1.5667-2.0667 2.5-1.3333 0.9-3.2667 0.9zm-0.2-1.4333q1.6667 0 2.7-0.76667 1.0667-0.8 1.5333-2.0667 0.5-1.3 0.5-2.6667 0-1.4-0.53333-2.6333-0.53333-1.2667-1.6333-2.0333-1.1-0.8-2.7667-0.8-1.3333 0-2.4 0.66667-1.0667 0.63333-1.7 1.8667-0.63334 1.2-0.63334 2.9333t0.66667 3q0.66667 1.2333 1.7667 1.8667 1.1333 0.63333 2.5 0.63333zm14.033 1.4333q-1.3667 0-2.3333-0.36667-0.96667-0.4-1.6-1-0.63333-0.6-1-1.2333t-0.53333-1.1667q-0.13333-0.53333-0.13333-0.8h1.5q0 0.03333 0.0667 0.56667 0.1 0.5 0.46667 1.1667 0.4 0.66667 1.2333 1.1667 0.83333 0.46667 2.3333 0.46667 1.1 0 2-0.23333 0.9-0.26667 1.4333-0.8 0.53333-0.56667 0.53333-1.4667 0-1.0667-0.7-1.6333-0.66666-0.6-1.7333-0.86667-1.0667-0.3-2.2333-0.53333-1.1667-0.26667-2.2333-0.66667-1.0333-0.4-1.7-1.1667-0.63333-0.76667-0.63333-2.1 0.0333-1.6 1.5-2.5667 1.4667-1 3.7667-1 0.86667 0 1.8333 0.2 0.96667 0.2 1.7667 0.7 0.83333 0.5 1.3333 1.3667 0.53333 0.86667 0.43333 2.2667h-1.4667q0.0333-1.0333-0.36667-1.6667-0.36667-0.63333-1.0333-0.96667-0.63334-0.36667-1.3333-0.46667-0.7-0.1-1.2667-0.1-1.5667 0-2.6667 0.56667-1.0667 0.56667-1.0667 1.7333 0 0.96666 0.66667 1.5 0.66666 0.53333 1.7333 0.83333 1.0667 0.26667 2.2333 0.5 1.1667 0.23333 2.2333 0.66667t1.7333 1.2333q0.66667 0.8 0.66667 2.2333 0 1.3-0.73333 2.1-0.7 0.8-1.9333 1.1667-1.2333 0.36667-2.7667 0.36667zm8.3-0.33333v-13.533h1.5333v13.533zm0.8-15.7q-0.66667 0-0.93333-0.33333-0.23334-0.36667-0.23334-0.83333t0.23334-0.8q0.26666-0.33333 0.93333-0.33333 0.7 0 0.9 0.33333 0.23333 0.33333 0.23333 0.8t-0.23333 0.83333q-0.2 0.33333-0.9 0.33333zm7.1 15.7q-1.0333 0-1.3667-0.6-0.3-0.6-0.3-1.4333v-10.533h1.4667v11.267h3.1667v1.3zm-3.9-12.3v-1.2333q0.9 0 1.3667-0.06667 0.46666-0.06667 0.66666-0.36667 0.2-0.33333 0.23334-1.0333 0.0667-0.73333 0.0667-2.0333h1.3667v3.5h3.1667v1.2333zm15.233 12.633q-2.1667 0-3.6-1.0333-1.4-1.0333-2.1-2.6333-0.7-1.6333-0.66667-3.3667 0-1.8 0.73333-3.3667 0.73334-1.5667 2.1333-2.5 1.4333-0.96667 3.4667-0.96667 1.7 0 3 0.76667 1.3333 0.73333 2.1333 2.1 0.8 1.3333 0.9 3.2 0.0333 0.16667 0.0333 0.4t0 0.43333h-10.933q0 2.5667 1.2667 4.1 1.3 1.5333 3.6333 1.5333 1.7 0 2.9333-0.9 1.2667-0.9 1.5667-2.4333h1.5q-0.23334 1.3667-1.0667 2.4333-0.83333 1.0333-2.1 1.6333-1.2667 0.6-2.8333 0.6zm-4.8-7.9667h9.2666q-0.0333-0.63333-0.3-1.4-0.23333-0.8-0.76666-1.5333t-1.4-1.2q-0.83333-0.46667-2.0333-0.46667-1.1 0-1.9333 0.4-0.83334 0.36667-1.4333 1-0.56666 0.63333-0.93333 1.4667-0.33333 0.8-0.46666 1.7333z"
         style="fill:#1a1a1a;stroke-width:0"
         aria-label="Website"
         id="path11" />
    </g>
  </g>
  <metadata
     id="metadata13">
    <rdf:RDF>
      <cc:Work
         rdf:about="">
        <dc:title>Website Button (English)</dc:title>
        <dc:date>June 7, 2024</dc:date>
        <dc:creator>
          <cc:Agent>
            <dc:title>(Holloway) Chew, Kean Ho</dc:title>
          </cc:Agent>
        </dc:creator>
        <dc:rights>
          <cc:Agent>
            <dc:title>All Rights Reserved</dc:title>
          </cc:Agent>
        </dc:rights>
        <dc:publisher>
          <cc:Agent>
            <dc:title>(Holloway) Chew, Kean Ho</dc:title>
          </cc:Agent>
        </dc:publisher>
        <dc:identifier>chewkeanho-graphics-button-website</dc:identifier>
        <dc:source>https://www.hollowaykeanho.com/</dc:source>
        <dc:relation>graphics, UI</dc:relation>
        <dc:language>english</dc:language>
        <dc:subject>
          <rdf:Bag>
            <rdf:li>graphics</rdf:li>
            <rdf:li>buttons</rdf:li>
          </rdf:Bag>
        </dc:subject>
        <dc:description>A button with label directing user to website section.</dc:description>
        <dc:contributor>
          <cc:Agent>
            <dc:title>(Holloway) Chew, Kean Ho</dc:title>
          </cc:Agent>
        </dc:contributor>
        <dc:coverage>UI</dc:coverage>
      </cc:Work>
    </rdf:RDF>
  </metadata>
</svg>
